ply
format ascii 1.0
comment Created by Blender 2.77 (sub 0) - www.blender.org, source file: 'euro.blend'
element vertex 34
property float x
property float y
property float z
property uchar red
property uchar green
property uchar blue
element face 35
property list uchar uint vertex_indices
end_header
-0.249167 0.000000 0.249167 255 255 255
-0.294112 -0.000000 0.131887 255 255 255
-0.149444 0.000000 0.133994 255 255 255
-0.082025 0.000000 0.228801 255 255 255
-0.131185 0.000000 0.360828 255 255 255
0.025422 0.000000 0.270937 255 255 255
0.023315 0.000000 0.398048 255 255 255
0.181327 0.000000 0.372064 255 255 255
0.133572 0.000000 0.247762 255 255 255
0.217143 -0.000000 0.184557 255 255 255
0.305813 0.000000 0.282553 255 255 255
-0.393835 -0.000000 0.133291 255 255 255
-0.393133 -0.000000 0.014607 255 255 255
-0.315180 0.000000 0.013905 255 255 255
-0.169810 0.000000 0.017416 255 255 255
0.099161 0.000000 0.135398 255 255 255
0.097054 0.000000 0.015309 255 255 255
-0.313073 -0.000000 -0.064047 255 255 255
-0.169107 0.000000 -0.066856 255 255 255
-0.393835 -0.000000 -0.066154 255 255 255
-0.295517 -0.000000 -0.183434 255 255 255
-0.392430 -0.000000 -0.182029 255 255 255
-0.149444 -0.000000 -0.180625 255 255 255
0.097756 0.000000 -0.182029 255 255 255
0.098459 -0.000000 -0.064750 255 255 255
-0.237930 -0.000000 -0.307736 255 255 255
-0.071491 0.000000 -0.285264 255 255 255
-0.123460 -0.000000 -0.411673 255 255 255
0.026827 -0.000000 -0.325293 255 255 255
0.049300 -0.000000 -0.451000 255 255 255
0.126550 0.000000 -0.301416 255 255 255
0.197479 -0.000000 -0.410268 255 255 255
0.206609 -0.000000 -0.229784 255 255 255
0.295797 -0.000000 -0.321080 255 255 255
3 0 1 2
3 2 3 0
3 3 4 0
3 5 6 4
3 5 4 3
3 6 5 7
3 7 5 8
3 9 10 7
3 9 7 8
3 8 5 10
3 11 12 1
3 12 13 1
3 1 13 14
3 1 14 2
3 15 2 14
3 16 15 14
3 15 16 2
3 13 17 14
3 14 17 18
3 19 17 20
3 21 19 20
3 17 20 18
3 22 18 20
3 22 23 18
3 18 23 24
3 20 25 22
3 22 25 26
3 25 27 26
3 26 27 28
3 27 29 28
3 28 29 26
3 28 30 29
3 29 30 31
3 30 32 31
3 33 31 32
