ply
format ascii 1.0
comment Created by Blender 2.77 (sub 0) - www.blender.org, source file: 'note.blend'
element vertex 28
property float x
property float y
property float z
property uchar red
property uchar green
property uchar blue
element face 31
property list uchar uint vertex_indices
end_header
-0.249783 0.000004 0.310966 150 150 150
-0.302032 0.000004 0.371642 150 150 150
-0.388499 0.000004 0.397032 150 150 150
-0.247273 0.000004 0.267993 151 151 151
-0.468891 0.000004 0.369956 150 150 150
-0.247273 0.000004 0.267993 255 255 255
-0.502600 0.000004 0.306752 150 150 150
-0.476475 0.000004 0.229222 150 150 150
-0.255683 0.000004 0.233435 157 157 157
-0.476475 0.000004 0.229222 255 255 255
-0.312987 0.000004 0.187086 151 151 151
-0.403159 0.000004 0.184558 150 150 150
-0.184894 0.000004 -0.219108 255 255 255
-0.163692 0.000004 -0.370466 255 255 255
0.336636 0.000004 -0.324359 255 255 255
0.353733 0.000004 -0.474976 255 255 255
0.262987 0.000004 0.258050 150 150 150
0.263556 0.000004 0.230226 150 150 150
0.207979 0.000004 0.325951 150 150 150
0.122001 0.000004 0.349358 150 150 150
0.256915 0.000004 0.186889 171 171 171
0.045026 0.000004 0.320999 150 150 150
0.036045 0.000004 0.184419 150 150 150
0.198609 0.000004 0.141431 150 150 150
0.108186 0.000004 0.138466 150 150 150
0.122001 0.000004 0.349358 255 255 255
0.008114 0.000004 0.256628 150 150 150
0.262987 0.000004 0.258050 255 255 255
3 0 1 2
3 3 0 2
3 2 4 5
3 4 6 5
3 6 7 3
3 8 3 9
3 10 8 9
3 11 10 7
3 0 3 12
3 12 13 14
3 15 14 13
3 16 17 14
3 17 16 18
3 18 19 17
3 17 19 20
3 19 21 22
3 20 23 22
3 24 22 23
3 20 25 22
3 22 21 26
3 13 12 15
3 6 2 3
3 2 1 7
3 4 2 11
3 1 0 11
3 3 10 7
3 26 19 23
3 18 21 24
3 21 19 20
3 22 26 27
3 23 16 21
