<?xml version="1.0" encoding="UTF-8"?>
<svg width="640" height="480" xmlns="http://www.w3.org/2000/svg">
 <g>
  <title>Layer 1</title>
  <g id="layer1">
   <path fill="#7f007f" stroke-width="5" stroke-linecap="round" stroke-miterlimit="4" id="path5065" d="m310.118378,56.147644c-20.046783,75.272217 -42.668671,167.247009 -62.715454,242.519318c-74.672241,-44.657715 -126.752388,-8.36026 -119.223633,42.751434c4.831314,32.799011 71.437744,67.91571 134.994293,14.369263c11.813629,-49.908264 33.086151,-132.188019 49.196167,-196.75885l117.732788,72.157501c-12.015167,46.776764 -23.820831,93.248077 -36.756592,141.819672c-74.67218,-44.657745 -126.804138,-8.369934 -119.27536,42.74176c4.831299,32.799011 71.448822,67.871094 135.005402,14.324646l72.133759,-270.004913c-0.47937,-0.10553 -0.959015,-0.207458 -1.438416,-0.312988l0.147919,-0.159698c-10.333282,-7.035614 -159.509399,-101.181122 -169.800873,-103.447144zm14.058594,55.728271l117.825256,73.530853c-1.791809,6.858673 -3.529205,13.645996 -5.287933,20.440155l-117.891815,-72.607849c1.521576,-6.233887 4.071991,-15.944977 5.354492,-21.363159z"/>
  </g>
 </g>
</svg>