# Blender v2.77 (sub 0) OBJ File: ''
# www.blender.org
mtllib twitter.mtl
o Curve.001_Mesh
v 0.538262 0.000000 -0.341535
v 0.417142 0.000000 -0.306216
v 0.476739 0.000000 -0.358640
v 0.510007 0.000000 -0.423421
v 0.495719 0.000000 -0.417588
v 0.382294 0.000000 -0.373918
v 0.299674 0.000000 -0.428605
v 0.219174 0.000000 -0.444973
v 0.225995 0.000000 -0.442987
v 0.137474 0.000000 -0.427451
v 0.049137 0.000000 -0.362139
v 0.008059 0.000000 -0.257784
v 0.011636 0.000000 -0.180121
v -0.217935 0.000000 -0.231408
v -0.429263 0.000000 -0.400876
v -0.455462 0.000000 -0.332949
v -0.445466 0.000000 -0.227969
v -0.371756 0.000000 -0.116009
v -0.457521 0.000000 -0.147190
v -0.456044 0.000000 -0.146694
v -0.456044 0.000000 -0.146694
v -0.456044 0.000000 -0.146694
v -0.456044 0.000000 -0.146694
v -0.456044 0.000000 -0.146694
v -0.456044 0.000000 -0.146694
v -0.456044 0.000000 -0.146694
v -0.456044 0.000000 -0.146694
v -0.456044 0.000000 -0.146694
v -0.456044 0.000000 -0.146694
v -0.456044 0.000000 -0.146694
v -0.456044 0.000000 -0.146694
v -0.456044 0.000000 -0.146694
v -0.420192 0.000000 -0.016848
v -0.289171 0.000000 0.063262
v -0.347922 0.000000 0.065575
v -0.378230 0.000000 0.065087
v -0.375076 0.000000 0.062361
v -0.320634 0.000000 0.152264
v -0.183208 0.000000 0.218114
v -0.333816 0.000000 0.288806
v -0.447660 0.000000 0.300346
v -0.479331 0.000000 0.300253
v -0.484751 0.000000 0.296736
v -0.350137 0.000000 0.364574
v -0.180838 0.000000 0.390472
v -0.190306 0.000000 0.389090
v 0.062200 0.000000 0.358770
v 0.292012 0.000000 0.196594
v 0.426756 0.000000 -0.037750
v 0.449535 0.000000 -0.246327
v 0.506042 0.000000 -0.295764
vn 0.0000 1.0000 0.0000
usemtl SVGMat.002
s off
f 10//1 7//1 8//1
f 11//1 7//1 10//1
f 11//1 6//1 7//1
f 6//1 3//1 4//1
f 11//1 3//1 6//1
f 16//1 14//1 15//1
f 2//1 51//1 1//1
f 11//1 2//1 3//1
f 12//1 2//1 11//1
f 12//1 51//1 2//1
f 17//1 14//1 16//1
f 12//1 50//1 51//1
f 12//1 49//1 50//1
f 13//1 49//1 12//1
f 18//1 14//1 17//1
f 18//1 13//1 14//1
f 18//1 49//1 13//1
f 33//1 18//1 19//1
f 33//1 49//1 18//1
f 34//1 49//1 33//1
f 34//1 48//1 49//1
f 36//1 48//1 34//1
f 38//1 48//1 36//1
f 39//1 48//1 38//1
f 39//1 47//1 48//1
f 40//1 47//1 39//1
f 42//1 47//1 40//1
f 44//1 47//1 42//1
f 44//1 45//1 47//1
l 35 36
l 8 9
l 45 46
l 42 43
l 36 37
l 19 20
l 41 42
l 4 5
