ply
format ascii 1.0
comment Created by Blender 2.77 (sub 0) - www.blender.org, source file: 'dollar2.blend'
element vertex 54
property float x
property float y
property float z
property uchar red
property uchar green
property uchar blue
element face 83
property list uchar uint vertex_indices
end_header
-0.477417 -0.000000 0.158038 166 166 166
-0.476782 -0.000000 0.023375 166 166 166
-0.288127 -0.000000 -0.107202 166 166 166
-0.479450 -0.000000 0.218763 166 166 166
-0.434450 0.000000 0.253862 169 169 169
-0.368925 -0.000000 0.255625 166 166 166
-0.099091 -0.000000 -0.107202 166 166 166
0.021343 -0.000000 -0.107202 166 166 166
0.034301 -0.000000 0.256388 166 166 166
0.192085 -0.000000 0.129093 166 166 166
0.203519 -0.000000 0.169492 166 166 166
0.243155 -0.000000 0.190073 166 166 166
0.221812 -0.000000 0.254863 166 166 166
0.204281 -0.000000 0.090982 166 166 166
0.194372 0.000000 -0.107202 166 166 166
0.242393 -0.000000 0.067352 166 166 166
0.359016 0.000000 -0.108726 166 166 166
0.283554 -0.000000 0.075736 166 166 166
0.323191 -0.000000 0.070401 166 166 166
0.453534 -0.000000 0.064303 166 166 166
0.355967 -0.000000 0.090981 166 166 166
0.371212 -0.000000 0.130618 166 166 166
0.449723 -0.000000 0.216751 166 166 166
0.356729 -0.000000 0.170254 166 166 166
0.413897 -0.000000 0.251814 166 166 166
0.318617 -0.000000 0.189310 166 166 166
0.289652 -0.000000 0.180163 166 166 166
0.448198 -0.000000 -0.028691 166 166 166
0.448960 -0.000000 -0.107202 166 166 166
-0.476675 -0.000000 -0.105708 166 166 166
-0.477925 -0.000000 -0.271084 166 166 166
-0.477925 -0.000000 -0.197146 177 177 177
-0.348344 -0.000000 -0.198671 167 167 167
-0.434478 -0.000000 -0.306147 166 166 166
-0.278218 -0.000000 -0.306147 166 166 166
-0.187511 -0.000000 -0.200195 166 166 166
-0.117385 -0.000000 -0.306147 166 166 166
-0.042685 -0.000000 -0.201720 166 166 166
0.092231 -0.000000 -0.309196 189 189 189
0.117385 -0.000000 -0.201720 166 166 166
0.310233 -0.000000 -0.307671 166 166 166
0.296512 -0.000000 -0.200195 166 166 166
0.451247 -0.000000 -0.199433 166 166 166
0.448198 -0.000000 -0.272608 166 166 166
0.416184 -0.000000 -0.306147 166 166 166
0.310233 -0.000000 0.103177 255 255 255
0.311757 -0.000000 0.148149 255 255 255
0.243155 -0.000000 0.190073 255 255 255
0.242393 -0.000000 0.067352 255 255 255
0.283554 -0.000000 0.075736 255 255 255
0.323191 -0.000000 0.070401 255 255 255
-0.476675 -0.000000 -0.105708 255 255 255
0.194372 0.000000 -0.107202 255 255 255
-0.348344 -0.000000 -0.198671 255 255 255
3 0 1 2
3 3 4 5
3 3 5 0
3 0 2 5
3 2 6 5
3 6 7 5
3 5 7 8
3 9 10 8
3 10 11 12
3 8 10 12
3 7 9 8
3 9 7 13
3 7 14 13
3 15 13 14
3 14 16 17
3 17 15 14
3 18 17 16
3 19 18 16
3 18 19 20
3 21 20 19
3 19 22 21
3 21 22 23
3 22 24 23
3 23 24 25
3 24 12 25
3 26 25 12
3 11 26 12
3 27 28 16
3 27 19 16
3 29 2 1
3 30 31 32
3 30 32 33
3 34 33 32
3 32 35 34
3 34 35 36
3 35 37 36
3 36 37 38
3 37 39 38
3 38 39 40
3 39 41 40
3 40 41 42
3 43 44 42
3 40 42 44
3 10 9 45
3 10 45 11
3 11 45 26
3 45 46 26
3 13 15 9
3 45 9 15
3 15 17 45
3 45 17 18
3 18 20 45
3 45 20 46
3 20 21 46
3 23 46 21
3 25 46 23
3 46 25 26
3 47 46 48
3 9 15 46
3 10 11 49
3 25 23 50
3 23 21 50
3 20 18 17
3 21 23 45
3 31 51 32
3 2 51 32
3 32 2 35
3 2 35 6
3 35 6 37
3 6 37 7
3 37 7 39
3 7 39 14
3 39 14 41
3 14 41 16
3 41 16 42
3 28 42 16
3 42 28 52
3 14 39 42
3 39 14 37
3 6 37 14
3 37 6 53
3 51 32 6
3 2 32 31
