ply
format ascii 1.0
comment Created by Blender 2.77 (sub 0) - www.blender.org, source file: 'dollar.blend'
element vertex 40
property float x
property float y
property float z
property uchar red
property uchar green
property uchar blue
element face 44
property list uchar uint vertex_indices
end_header
0.053861 -0.000000 -0.356071 255 255 255
-0.050992 -0.000000 -0.358997 255 255 255
-0.048553 -0.000000 -0.467752 255 255 255
0.051911 -0.000000 -0.467752 255 255 255
-0.047090 -0.000000 -0.241464 255 255 255
0.053861 -0.000000 -0.236099 255 255 255
0.161641 -0.000000 -0.317056 255 255 255
0.121650 -0.000000 -0.205375 255 255 255
0.259179 -0.000000 -0.244390 255 255 255
0.170907 -0.000000 -0.149290 255 255 255
-0.139264 -0.000000 -0.328272 255 255 255
-0.112441 -0.000000 -0.214153 255 255 255
-0.226560 0.000000 -0.269750 255 255 255
-0.140727 -0.000000 -0.160995 255 255 255
-0.267038 0.000000 -0.160995 255 255 255
-0.238752 -0.000000 -0.046388 255 255 255
-0.112441 0.000000 -0.094181 255 255 255
-0.151456 -0.000000 0.030180 255 255 255
-0.050504 0.000000 -0.066871 255 255 255
-0.049529 -0.000000 0.069195 255 255 255
0.052398 -0.000000 0.079924 255 255 255
0.053374 -0.000000 -0.045412 255 255 255
0.139695 -0.000000 -0.020052 255 255 255
0.122138 -0.000000 0.108698 255 255 255
0.158715 -0.000000 0.178925 255 255 255
0.232356 -0.000000 0.039446 255 255 255
0.284051 -0.000000 0.150639 255 255 255
0.266006 -0.000000 0.261345 255 255 255
0.128966 -0.000000 0.248177 255 255 255
0.179685 -0.000000 0.356444 255 255 255
0.054837 0.000000 0.281827 255 255 255
0.051872 -0.000000 0.390372 255 255 255
-0.050504 -0.000000 0.270123 255 255 255
-0.131948 -0.000000 0.235009 255 255 255
-0.176328 -0.000000 0.347666 255 255 255
-0.198762 -0.000000 0.169171 255 255 255
-0.279231 -0.000000 0.251103 255 255 255
-0.049256 -0.000000 0.391214 255 255 255
0.052714 0.000000 0.499926 255 255 255
-0.048000 0.000000 0.499432 255 255 255
3 0 1 2
3 0 2 3
3 1 0 4
3 5 4 0
3 0 6 5
3 5 6 7
3 6 8 7
3 7 8 9
3 10 1 4
3 4 11 10
3 10 11 12
3 11 13 12
3 12 13 14
3 15 14 13
3 13 16 15
3 15 16 17
3 16 18 17
3 17 18 19
3 20 19 18
3 18 21 20
3 21 22 20
3 20 22 23
3 24 23 25
3 22 24 25
3 25 23 22
3 26 25 24
3 26 24 27
3 24 28 27
3 27 28 29
3 28 30 29
3 29 30 31
3 30 32 31
3 32 30 20
3 19 32 20
3 21 18 5
3 5 18 4
3 5 4 21
3 32 33 34
3 35 34 33
3 35 36 34
3 37 32 34
3 37 38 31
3 39 38 37
3 37 31 32
