<svg width="600pt" height="600pt" viewBox="0 0 600 600" version="1.1" xmlns="http://www.w3.org/2000/svg">
<g id="#f3f0e7ff">
</g>
<g id="#000000ff">
<path fill="#000000" opacity="1.00" d=" M 258.98 106.40 C 286.25 99.86 315.71 102.81 341.07 114.81 C 367.98 127.34 390.07 149.83 402.13 176.96 C 411.04 196.79 414.62 219.01 412.32 240.63 C 411.27 241.99 409.40 239.28 410.01 238.02 C 412.44 209.09 404.13 179.42 386.92 156.02 C 368.94 131.13 341.25 113.50 311.07 107.81 C 284.73 102.66 256.74 106.59 232.84 118.78 C 208.15 131.17 188.01 152.24 176.58 177.37 C 167.27 197.80 163.67 220.86 166.61 243.14 C 170.34 244.54 171.73 249.84 168.23 252.28 C 168.48 254.69 169.09 257.03 169.71 259.37 C 171.53 259.38 173.34 259.45 175.16 259.59 C 178.00 260.91 180.83 262.94 181.83 266.06 C 183.12 268.15 182.31 270.83 182.36 273.15 C 181.32 274.85 180.75 276.92 179.01 278.09 C 178.34 278.79 176.77 279.32 177.52 280.54 C 179.77 285.50 182.48 290.25 185.54 294.75 C 185.04 295.29 184.02 296.38 183.51 296.92 C 180.32 291.59 177.22 286.21 174.45 280.65 C 172.25 280.76 170.04 280.72 167.85 280.46 C 162.26 278.13 159.27 271.37 161.65 265.72 C 162.82 263.58 164.46 261.84 166.54 260.59 C 167.38 258.34 165.86 255.82 165.61 253.51 C 163.04 252.91 160.38 250.92 160.72 247.99 C 160.68 245.89 162.38 244.47 163.88 243.30 C 160.41 214.66 167.00 184.85 182.72 160.61 C 199.87 133.60 227.81 113.68 258.98 106.40 Z" />
<path fill="#000000" opacity="1.00" d=" M 261.96 119.92 C 261.05 117.05 264.16 117.69 265.93 117.31 C 267.35 120.21 263.68 119.61 261.96 119.92 Z" />
<path fill="#000000" opacity="1.00" d=" M 270.03 117.14 C 271.57 117.06 273.14 116.91 274.65 117.33 C 274.53 117.77 274.28 118.66 274.16 119.10 C 272.89 119.13 271.62 119.16 270.36 119.20 C 270.28 118.69 270.11 117.66 270.03 117.14 Z" />
<path fill="#000000" opacity="1.00" d=" M 278.29 117.23 C 279.76 117.23 281.24 117.25 282.72 117.32 C 282.67 117.85 282.57 118.89 282.51 119.41 C 281.22 119.35 279.94 119.29 278.65 119.23 C 278.56 118.73 278.38 117.73 278.29 117.23 Z" />
<path fill="#000000" opacity="1.00" d=" M 286.22 119.53 C 286.78 117.00 289.17 118.15 290.96 118.39 C 290.88 118.93 290.72 119.99 290.64 120.53 C 289.14 120.31 287.66 119.97 286.22 119.53 Z" />
<path fill="#000000" opacity="1.00" d=" M 253.49 119.44 C 254.88 119.10 256.27 118.75 257.67 118.42 C 257.75 118.96 257.92 120.03 258.00 120.57 C 256.73 120.82 255.47 121.08 254.21 121.34 C 253.97 120.71 253.73 120.08 253.49 119.44 Z" />
<path fill="#000000" opacity="1.00" d=" M 295.05 119.21 C 296.39 119.54 297.74 119.87 299.08 120.20 C 299.71 123.53 293.34 122.01 295.05 119.21 Z" />
<path fill="#000000" opacity="1.00" d=" M 245.46 121.58 C 246.77 121.15 248.10 120.74 249.43 120.32 C 249.82 121.10 250.22 121.88 250.62 122.66 C 249.16 122.74 247.74 122.94 246.39 123.50 C 246.07 122.86 245.76 122.22 245.46 121.58 Z" />
<path fill="#000000" opacity="1.00" d=" M 303.16 121.44 C 304.84 122.05 307.78 122.10 306.73 124.69 C 305.30 124.33 303.89 123.90 302.51 123.43 C 302.72 122.77 302.94 122.10 303.16 121.44 Z" />
<path fill="#000000" opacity="1.00" d=" M 237.75 124.47 C 239.11 123.84 240.43 123.14 241.74 122.39 C 241.87 123.01 242.13 124.25 242.26 124.87 C 241.01 125.36 239.75 125.85 238.50 126.34 C 238.24 125.72 237.99 125.10 237.75 124.47 Z" />
<path fill="#000000" opacity="1.00" d=" M 310.81 124.41 C 312.24 124.80 313.61 125.40 314.87 126.20 C 314.63 126.61 314.15 127.44 313.91 127.86 C 312.71 127.36 311.52 126.86 310.33 126.37 C 310.45 125.88 310.69 124.90 310.81 124.41 Z" />
<path fill="#000000" opacity="1.00" d=" M 233.69 126.07 C 235.90 128.02 232.89 129.13 231.16 129.85 C 230.91 129.42 230.42 128.57 230.17 128.14 C 231.34 127.45 232.51 126.76 233.69 126.07 Z" />
<path fill="#000000" opacity="1.00" d=" M 318.34 128.00 C 319.81 128.49 323.63 129.81 321.06 131.64 C 319.85 131.03 318.70 130.33 317.56 129.62 C 317.75 129.22 318.14 128.41 318.34 128.00 Z" />
<path fill="#000000" opacity="1.00" d=" M 222.89 132.27 C 224.14 131.52 225.40 130.77 226.67 130.04 C 228.81 131.93 225.50 132.94 224.39 134.05 C 223.90 133.45 223.40 132.85 222.89 132.27 Z" />
<path fill="#000000" opacity="1.00" d=" M 324.57 133.42 C 324.91 133.12 325.59 132.51 325.94 132.21 C 327.03 132.95 328.13 133.69 329.23 134.43 C 328.82 135.02 328.42 135.62 328.02 136.23 C 326.78 135.40 325.60 134.49 324.57 133.42 Z" />
<path fill="#000000" opacity="1.00" d=" M 217.22 138.80 C 215.07 136.72 218.48 135.56 219.82 134.55 C 221.90 136.84 218.59 137.64 217.22 138.80 Z" />
<path fill="#000000" opacity="1.00" d=" M 332.23 136.93 C 333.50 137.74 334.71 138.63 335.88 139.58 C 335.08 142.64 329.74 138.94 332.23 136.93 Z" />
<path fill="#000000" opacity="1.00" d=" M 209.82 142.54 C 211.21 141.50 212.76 138.84 214.42 141.06 C 213.41 142.13 212.35 143.14 211.24 144.10 C 210.88 143.71 210.17 142.93 209.82 142.54 Z" />
<path fill="#000000" opacity="1.00" d=" M 337.56 143.98 C 338.76 141.10 340.60 144.10 341.94 145.19 C 341.43 145.73 340.91 146.26 340.38 146.78 C 339.45 145.84 338.50 144.91 337.56 143.98 Z" />
<path fill="#000000" opacity="1.00" d=" M 205.26 150.02 C 202.92 148.36 205.78 146.82 206.84 145.45 C 207.19 145.89 207.87 146.75 208.22 147.18 C 207.24 148.15 206.25 149.08 205.26 150.02 Z" />
<path fill="#000000" opacity="1.00" d=" M 343.28 149.49 C 343.65 149.21 344.37 148.64 344.74 148.36 C 345.75 149.45 346.71 150.60 347.61 151.79 C 346.92 152.09 346.23 152.38 345.55 152.68 C 344.78 151.62 344.02 150.56 343.28 149.49 Z" />
<path fill="#000000" opacity="1.00" d=" M 198.68 155.05 C 199.54 153.92 200.41 152.79 201.28 151.66 C 201.82 152.20 202.33 152.76 202.82 153.35 C 201.99 154.31 201.18 155.28 200.38 156.26 C 199.95 155.96 199.10 155.35 198.68 155.05 Z" />
<path fill="#000000" opacity="1.00" d=" M 203.12 202.96 C 232.78 186.44 262.48 169.98 292.12 153.43 C 293.30 154.74 294.49 156.06 295.74 157.32 C 295.87 158.88 295.99 160.45 296.01 162.03 C 295.97 234.92 296.05 307.82 295.97 380.71 C 294.44 382.39 293.10 384.22 291.49 385.83 C 251.72 363.08 211.98 340.30 172.10 317.76 C 172.00 315.92 171.96 314.07 172.01 312.23 C 209.36 291.64 246.64 270.93 283.98 250.29 C 263.66 239.14 243.28 228.08 222.94 216.96 C 217.29 213.93 211.75 210.68 205.95 207.93 C 204.73 206.46 204.07 204.60 203.12 202.96 M 271.76 173.02 C 271.23 173.33 270.19 173.97 269.66 174.29 C 251.82 183.86 234.33 194.06 216.48 203.62 L 215.82 203.50 C 216.30 205.56 218.37 206.44 219.98 207.51 L 220.21 207.47 C 238.80 217.23 257.14 227.48 275.57 237.55 L 275.65 237.90 C 276.78 238.25 277.91 238.59 279.05 238.94 C 281.74 241.46 285.56 242.61 288.63 244.68 C 288.94 226.84 288.68 208.98 288.76 191.12 C 288.77 190.47 288.78 189.17 288.78 188.52 C 288.75 180.19 288.77 171.87 288.77 163.55 C 283.10 166.71 277.42 169.85 271.76 173.02 M 260.44 271.46 C 259.66 271.92 258.89 272.38 258.12 272.85 C 232.76 286.78 207.52 300.92 182.15 314.82 C 182.81 315.49 183.75 315.68 184.67 315.70 C 185.41 316.85 186.40 317.86 187.72 318.31 C 214.73 333.72 241.77 349.06 268.72 364.57 L 268.76 364.85 C 269.99 365.28 271.24 365.65 272.50 365.97 C 272.86 367.08 274.10 367.48 274.98 368.10 C 279.55 370.68 284.13 373.27 288.67 375.92 C 288.88 349.07 288.74 322.21 288.74 295.36 C 288.74 294.72 288.75 293.45 288.75 292.82 C 288.79 280.51 288.74 268.20 288.78 255.89 C 279.29 261.00 269.95 266.38 260.44 271.46 Z" />
<path fill="#000000" opacity="1.00" d=" M 309.33 156.31 C 310.75 155.42 311.94 154.24 313.11 153.04 C 350.94 190.87 388.80 228.68 426.60 266.55 C 428.11 267.82 427.34 269.97 427.55 271.69 C 399.71 299.15 372.24 326.99 344.50 354.55 C 343.75 355.52 342.01 356.16 342.64 357.73 L 341.36 357.32 L 341.56 358.43 C 340.17 358.43 339.44 359.71 338.53 360.52 C 331.41 367.72 324.21 374.85 317.05 382.02 C 316.35 382.76 315.76 383.58 315.28 384.49 C 313.16 384.96 310.98 384.99 308.83 384.95 C 308.82 311.98 308.83 239.02 308.82 166.05 C 308.86 162.80 308.58 159.51 309.33 156.31 M 316.01 166.12 C 316.05 187.67 315.87 209.23 316.10 230.78 C 316.08 231.37 316.03 232.55 316.01 233.14 C 316.00 279.70 315.97 326.26 316.03 372.82 C 323.56 365.47 330.92 357.93 338.41 350.53 C 339.28 349.54 340.47 348.67 340.76 347.31 C 342.02 346.63 343.23 345.84 344.38 344.98 L 344.39 344.68 C 367.88 320.89 391.61 297.33 415.27 273.71 C 416.66 272.87 417.43 271.45 418.15 270.05 L 419.46 269.99 C 417.62 267.36 415.13 265.30 412.92 263.01 C 392.22 242.33 371.57 221.60 350.83 200.96 C 350.29 200.55 349.21 199.74 348.67 199.34 C 348.51 199.03 348.17 198.41 348.01 198.10 C 337.35 187.43 326.70 176.76 316.01 166.12 Z" />
<path fill="#000000" opacity="1.00" d=" M 350.68 159.36 C 349.99 158.06 347.09 155.69 350.01 155.05 C 351.20 155.77 351.73 157.18 352.54 158.27 C 351.91 158.63 351.30 158.99 350.68 159.36 Z" />
<path fill="#000000" opacity="1.00" d=" M 193.96 161.85 C 194.79 160.63 195.66 159.45 196.58 158.30 C 198.98 159.55 196.58 161.55 195.81 163.03 C 195.34 162.74 194.42 162.15 193.96 161.85 Z" />
<path fill="#000000" opacity="1.00" d=" M 354.47 161.62 C 355.57 162.88 358.30 165.91 355.14 166.23 C 354.40 165.17 353.76 164.05 353.11 162.95 C 353.45 162.62 354.13 161.95 354.47 161.62 Z" />
<path fill="#000000" opacity="1.00" d=" M 191.80 170.20 C 188.82 169.71 191.16 167.02 191.86 165.54 C 192.32 165.79 193.24 166.28 193.70 166.52 C 193.07 167.75 192.43 168.97 191.80 170.20 Z" />
<path fill="#000000" opacity="1.00" d=" M 358.78 173.58 C 358.11 172.18 355.96 169.23 358.91 169.09 C 359.60 170.28 360.14 171.55 360.74 172.80 C 360.08 173.06 359.43 173.32 358.78 173.58 Z" />
<path fill="#000000" opacity="1.00" d=" M 188.21 172.98 C 188.67 173.22 189.58 173.72 190.04 173.97 C 189.49 175.21 188.94 176.47 188.39 177.72 C 187.76 177.34 187.12 176.97 186.49 176.59 C 187.07 175.39 187.64 174.18 188.21 172.98 Z" />
<path fill="#000000" opacity="1.00" d=" M 360.38 177.35 C 362.91 175.32 363.14 179.16 363.81 180.76 C 361.29 181.88 361.04 179.01 360.38 177.35 Z" />
<path fill="#000000" opacity="1.00" d=" M 183.38 184.60 C 184.77 184.76 184.01 179.32 186.81 181.25 C 186.89 182.74 186.17 184.10 185.60 185.43 C 185.04 185.22 183.94 184.81 183.38 184.60 Z" />
<path fill="#000000" opacity="1.00" d=" M 363.06 185.07 C 363.77 184.90 364.47 184.74 365.19 184.58 C 365.49 186.20 367.03 189.21 364.17 189.09 C 363.80 187.75 363.43 186.41 363.06 185.07 Z" />
<path fill="#000000" opacity="1.00" d=" M 181.82 192.83 C 182.17 191.05 182.09 188.14 184.78 189.12 C 184.47 190.55 184.10 191.97 183.73 193.38 C 183.25 193.24 182.30 192.97 181.82 192.83 Z" />
<path fill="#000000" opacity="1.00" d=" M 365.03 192.99 C 367.91 191.56 367.44 195.32 367.84 196.91 C 365.07 197.80 365.41 194.71 365.03 192.99 Z" />
<path fill="#000000" opacity="1.00" d=" M 181.05 196.94 C 183.98 196.49 182.72 199.70 182.58 201.41 C 182.09 201.35 181.10 201.22 180.61 201.16 C 180.72 199.75 180.86 198.34 181.05 196.94 Z" />
<path fill="#000000" opacity="1.00" d=" M 180.23 205.21 C 180.74 205.28 181.77 205.43 182.29 205.51 C 182.00 206.93 182.86 210.16 180.42 209.64 C 179.62 208.31 180.27 206.66 180.23 205.21 Z" />
<path fill="#000000" opacity="1.00" d=" M 179.92 213.74 C 180.65 213.68 181.38 213.66 182.12 213.67 C 182.16 214.98 182.21 216.29 182.27 217.61 C 181.76 217.69 180.76 217.85 180.25 217.93 C 180.13 216.53 180.02 215.13 179.92 213.74 Z" />
<path fill="#000000" opacity="1.00" d=" M 180.49 222.25 C 181.16 222.04 181.84 221.83 182.52 221.62 C 182.68 223.33 184.10 226.61 181.13 226.17 C 180.91 224.86 180.70 223.56 180.49 222.25 Z" />
<path fill="#000000" opacity="1.00" d=" M 181.94 230.14 C 182.59 230.05 183.25 229.96 183.91 229.87 C 184.20 231.22 184.49 232.57 184.80 233.92 C 182.03 235.26 182.27 231.89 181.94 230.14 Z" />
<path fill="#000000" opacity="1.00" d=" M 185.21 242.37 C 184.67 240.71 182.79 237.67 185.85 237.73 C 186.25 239.07 186.65 240.41 187.03 241.76 C 186.57 241.92 185.66 242.22 185.21 242.37 Z" />
<path fill="#000000" opacity="1.00" d=" M 221.43 250.55 C 219.73 246.01 223.12 240.57 227.93 240.09 C 232.94 239.23 237.81 244.08 236.91 249.09 C 236.52 252.71 233.43 255.34 230.02 256.06 C 229.99 262.02 229.97 267.99 230.03 273.95 C 229.52 274.28 228.51 274.92 228.01 275.24 C 227.97 268.85 228.03 262.47 227.98 256.08 C 225.10 255.35 222.31 253.54 221.43 250.55 M 226.54 242.72 C 222.64 244.34 222.02 250.25 225.49 252.64 C 228.64 255.26 234.01 253.26 234.69 249.23 C 235.92 244.77 230.63 240.54 226.54 242.72 Z" />
<path fill="#000000" opacity="1.00" d=" M 188.48 245.45 C 189.08 247.05 191.10 249.72 188.24 250.18 C 187.68 248.91 187.12 247.64 186.56 246.38 C 187.04 246.15 188.00 245.68 188.48 245.45 Z" />
<path fill="#000000" opacity="1.00" d=" M 191.86 257.51 C 191.11 256.06 188.97 253.41 191.81 252.89 C 192.47 254.14 193.14 255.39 193.79 256.65 C 193.15 256.93 192.50 257.22 191.86 257.51 Z" />
<path fill="#000000" opacity="1.00" d=" M 236.53 258.00 C 237.17 258.24 238.45 258.73 239.09 258.98 C 239.27 262.92 239.40 266.90 239.07 270.84 C 238.43 271.07 237.15 271.52 236.51 271.74 C 236.75 267.16 236.68 262.57 236.53 258.00 Z" />
<path fill="#000000" opacity="1.00" d=" M 194.06 261.29 C 195.82 258.69 197.19 262.23 198.07 263.63 C 197.64 263.89 196.77 264.40 196.34 264.66 C 195.58 263.53 194.82 262.41 194.06 261.29 Z" />
<path fill="#000000" opacity="1.00" d=" M 201.42 271.41 C 200.24 270.05 197.76 267.93 200.51 266.81 C 201.31 267.89 202.12 268.97 202.93 270.05 C 202.42 270.49 201.92 270.95 201.42 271.41 Z" />
<path fill="#000000" opacity="1.00" d=" M 204.10 274.62 C 205.55 271.85 207.26 275.02 208.50 276.22 C 207.92 276.65 207.34 277.08 206.77 277.51 C 205.88 276.54 204.99 275.58 204.10 274.62 Z" />
<path fill="#000000" opacity="1.00" d=" M 211.08 279.21 C 212.41 278.82 214.04 280.74 212.88 281.86 C 211.22 283.16 208.71 280.04 211.08 279.21 Z" />
<path fill="#000000" opacity="1.00" d=" M 397.84 339.57 C 395.05 338.83 397.51 337.12 398.95 336.94 C 408.36 343.96 417.96 350.73 427.54 357.51 C 418.93 362.64 409.87 367.03 401.06 371.82 C 401.12 363.36 402.63 354.91 402.76 346.43 C 404.12 346.73 405.46 345.49 404.37 344.30 C 402.34 342.54 400.08 341.04 397.84 339.57 M 405.21 346.71 C 405.32 353.46 404.21 360.19 403.87 366.93 C 409.91 363.81 415.84 360.46 421.93 357.44 C 421.68 356.68 421.22 356.11 420.56 355.71 C 416.35 353.08 412.67 349.65 408.29 347.28 L 408.39 346.04 C 407.30 346.13 406.21 346.26 405.21 346.71 Z" />
<path fill="#000000" opacity="1.00" d=" M 369.58 371.97 C 374.53 365.00 379.32 357.90 384.39 351.02 C 387.86 357.53 391.69 363.86 394.90 370.51 C 388.69 369.93 382.46 369.59 376.26 368.95 C 376.22 368.50 376.16 367.59 376.12 367.13 C 381.24 367.34 386.35 367.79 391.45 368.26 C 388.87 363.79 386.44 359.25 383.97 354.72 C 379.48 361.14 375.12 367.67 370.38 373.90 C 370.18 373.42 369.78 372.46 369.58 371.97 Z" />
<path fill="#000000" opacity="1.00" d=" M 228.00 354.00 C 228.75 354.00 230.25 354.00 231.00 354.00 C 231.01 362.44 230.97 370.87 231.02 379.31 C 232.91 377.47 234.95 375.72 236.53 373.59 C 236.89 368.62 236.40 363.62 236.81 358.65 C 237.40 358.98 238.57 359.64 239.16 359.97 C 239.38 364.23 239.11 368.50 239.29 372.77 C 240.14 373.48 240.95 374.25 241.72 375.06 C 240.89 376.10 240.05 377.16 239.23 378.22 C 239.20 386.67 239.33 395.13 239.15 403.59 C 241.51 401.03 243.94 398.55 246.21 395.92 C 247.82 395.45 250.10 397.10 249.73 398.95 C 246.33 403.00 242.61 406.76 239.13 410.75 C 238.42 410.61 236.99 410.32 236.28 410.18 C 232.51 406.46 228.79 402.68 225.03 398.95 C 225.97 397.70 226.96 396.49 228.18 395.50 C 231.05 398.24 233.81 401.11 236.66 403.88 C 236.67 396.17 236.56 388.46 236.72 380.75 C 234.33 383.13 232.06 385.64 229.79 388.14 C 225.08 384.58 221.38 379.85 217.01 375.89 C 218.02 374.68 219.19 373.63 220.47 372.71 C 222.89 375.36 225.45 377.88 227.98 380.43 C 228.02 371.62 227.99 362.81 228.00 354.00 Z" />
</g>
<g id="#474643ff">
<path fill="#474643" opacity="1.00" d=" M 269.66 174.29 C 270.19 173.97 271.23 173.33 271.76 173.02 C 274.42 178.21 276.85 183.52 279.68 188.62 C 282.71 188.53 285.75 188.52 288.78 188.52 C 288.78 189.17 288.77 190.47 288.76 191.12 C 286.19 191.13 283.62 191.13 281.05 191.11 C 276.94 197.05 272.08 202.64 268.61 208.92 C 271.89 218.99 275.66 228.90 279.05 238.94 C 277.91 238.59 276.78 238.25 275.65 237.90 L 275.57 237.55 C 272.96 228.43 269.39 219.60 266.33 210.62 C 253.86 209.61 241.38 208.58 228.91 207.55 C 226.02 207.34 223.07 206.78 220.21 207.47 L 219.98 207.51 C 218.37 206.44 216.30 205.56 215.82 203.50 L 216.48 203.62 C 232.79 205.65 249.26 206.48 265.64 207.93 C 269.71 202.30 273.80 196.68 277.84 191.02 C 275.14 185.43 272.14 179.99 269.66 174.29 Z" />
<path fill="#474643" opacity="1.00" d=" M 348.67 199.34 C 349.21 199.74 350.29 200.55 350.83 200.96 C 347.99 211.33 344.25 221.50 341.77 231.94 C 347.25 246.63 352.49 261.42 357.89 276.14 C 377.99 274.19 398.03 271.67 418.15 270.05 C 417.43 271.45 416.66 272.87 415.27 273.71 L 415.58 272.69 C 396.81 274.68 378.04 276.72 359.25 278.54 C 354.69 297.05 350.67 315.70 346.34 334.26 C 345.66 337.72 344.36 341.11 344.39 344.68 L 344.38 344.98 C 343.23 345.84 342.02 346.63 340.76 347.31 C 345.64 325.20 350.87 303.16 355.87 281.07 C 356.66 278.71 355.16 276.53 354.49 274.35 C 349.51 260.66 344.49 246.99 339.61 233.26 C 331.74 233.09 323.87 233.30 316.01 233.14 C 316.03 232.55 316.08 231.37 316.10 230.78 C 323.75 230.55 331.41 230.69 339.07 230.72 C 342.44 220.31 345.42 209.78 348.67 199.34 Z" />
<path fill="#474643" opacity="1.00" d=" M 258.12 272.85 C 258.89 272.38 259.66 271.92 260.44 271.46 C 263.49 278.65 266.88 285.69 270.11 292.80 C 276.32 292.81 282.54 292.78 288.75 292.82 C 288.75 293.45 288.74 294.72 288.74 295.36 C 283.52 295.48 278.31 295.31 273.10 295.41 C 271.77 295.18 271.25 296.69 270.53 297.47 C 265.16 305.28 259.72 313.03 254.40 320.87 C 260.44 335.90 266.62 350.87 272.50 365.97 C 271.24 365.65 269.99 365.28 268.76 364.85 L 268.72 364.57 C 268.55 362.09 267.33 359.88 266.44 357.62 C 261.63 345.75 256.88 333.85 252.05 321.98 C 247.02 322.09 241.99 321.89 237.01 321.16 C 220.59 320.13 204.14 319.39 187.72 318.31 C 186.40 317.86 185.41 316.85 184.67 315.70 C 198.78 316.26 212.87 317.27 226.98 317.94 C 235.42 317.79 243.75 319.30 252.19 319.36 C 257.73 311.57 263.04 303.61 268.57 295.81 C 265.16 288.12 261.59 280.51 258.12 272.85 Z" />
</g>
<g id="#7e7e7eff">
<path fill="#7e7e7e" opacity="1.00" d=" M 416.32 213.22 C 418.70 214.60 421.04 216.05 423.26 217.69 C 424.84 218.11 423.61 221.17 422.19 219.78 C 419.94 218.27 417.43 217.02 415.51 215.11 C 415.71 214.64 416.12 213.69 416.32 213.22 Z" />
<path fill="#7e7e7e" opacity="1.00" d=" M 426.98 223.63 C 426.93 222.41 427.50 221.89 428.69 222.09 C 430.92 224.09 433.52 225.91 434.94 228.62 C 434.53 228.90 433.71 229.46 433.30 229.74 C 431.27 227.62 429.04 225.70 426.98 223.63 Z" />
<path fill="#7e7e7e" opacity="1.00" d=" M 444.23 244.50 C 444.84 244.43 446.05 244.29 446.66 244.21 C 448.19 246.74 449.51 249.41 450.47 252.21 C 449.92 252.39 448.82 252.76 448.27 252.95 C 447.07 250.06 445.61 247.29 444.23 244.50 Z" />
<path fill="#7e7e7e" opacity="1.00" d=" M 450.07 257.08 C 450.71 257.10 451.98 257.14 452.62 257.16 C 453.44 260.07 454.33 262.96 454.96 265.92 C 454.34 265.91 453.08 265.88 452.46 265.87 C 451.81 262.90 450.89 260.00 450.07 257.08 Z" />
<path fill="#7e7e7e" opacity="1.00" d=" M 453.50 271.53 C 454.17 271.02 454.86 270.53 455.57 270.06 C 456.51 273.31 456.67 276.69 456.91 280.04 C 456.28 279.98 455.03 279.85 454.40 279.79 C 454.33 277.01 454.10 274.24 453.50 271.53 Z" />
<path fill="#7e7e7e" opacity="1.00" d=" M 454.59 285.38 C 455.20 285.20 456.41 284.85 457.02 284.68 C 456.90 287.72 456.73 290.76 456.54 293.80 C 455.92 293.88 454.66 294.04 454.03 294.12 C 454.35 291.21 454.39 288.29 454.59 285.38 Z" />
<path fill="#7e7e7e" opacity="1.00" d=" M 453.51 298.31 C 454.23 298.64 454.95 298.97 455.68 299.30 C 454.96 302.16 454.24 305.01 453.54 307.87 C 452.94 307.86 451.73 307.82 451.12 307.80 C 451.84 304.62 452.65 301.46 453.51 298.31 Z" />
<path fill="#7e7e7e" opacity="1.00" d=" M 449.40 312.16 C 449.99 312.25 451.18 312.44 451.77 312.53 C 450.78 315.45 449.71 318.39 448.08 321.02 C 447.60 321.00 446.64 320.95 446.16 320.93 C 446.53 317.81 448.54 315.16 449.40 312.16 Z" />
<path fill="#7e7e7e" opacity="1.00" d=" M 421.32 348.77 C 422.97 347.90 424.60 344.84 426.58 346.50 C 427.15 348.47 424.30 349.16 423.24 350.46 C 422.76 350.04 421.80 349.20 421.32 348.77 Z" />
<path fill="#7e7e7e" opacity="1.00" d=" M 352.25 360.30 C 355.13 361.10 358.03 361.82 360.98 362.35 C 360.92 362.96 360.80 364.19 360.74 364.81 C 357.57 364.15 354.39 363.44 351.29 362.48 C 351.61 361.75 351.93 361.02 352.25 360.30 Z" />
<path fill="#7e7e7e" opacity="1.00" d=" M 365.50 363.29 C 367.26 363.28 369.03 363.29 370.80 363.38 C 370.87 364.01 371.00 365.28 371.07 365.92 C 369.22 365.78 367.37 365.64 365.53 365.49 C 365.52 364.94 365.51 363.84 365.50 363.29 Z" />
<path fill="#7e7e7e" opacity="1.00" d=" M 380.99 365.79 C 379.99 362.46 387.06 362.10 385.65 365.36 C 384.10 365.60 382.54 365.67 380.99 365.79 Z" />
</g>
<g id="#8c8c8bff">
<path fill="#8c8c8b" opacity="1.00" d=" M 437.29 232.29 C 437.64 232.28 438.35 232.24 438.70 232.22 C 440.53 234.41 442.18 236.77 443.70 239.20 L 443.26 240.17 L 441.97 240.62 C 439.97 238.27 437.98 235.78 436.49 233.07 L 437.29 232.29 Z" />
</g>
<g id="#8a8a89ff">
<path fill="#8a8a89" opacity="1.00" d=" M 443.23 324.96 C 443.76 324.93 444.83 324.88 445.36 324.85 C 445.23 327.56 443.10 329.56 441.77 331.76 C 441.31 333.28 438.76 334.29 438.60 332.00 C 440.08 329.61 441.68 327.30 443.23 324.96 Z" />
</g>
<g id="#8d8c8bff">
<path fill="#8d8c8b" opacity="1.00" d=" M 435.33 335.82 C 436.03 336.31 436.75 336.82 437.47 337.32 C 435.08 339.67 433.07 342.48 430.20 344.29 C 429.36 343.33 428.76 342.08 430.13 341.28 C 431.89 339.49 433.68 337.72 435.33 335.82 Z" />
</g>
<g id="#898988ff">
<path fill="#898988" opacity="1.00" d=" M 408.12 356.26 C 410.05 355.32 411.99 354.38 414.07 353.79 C 414.82 357.42 410.26 357.72 407.97 359.11 C 408.00 358.39 408.08 356.97 408.12 356.26 Z" />
</g>
<g id="#91908fff">
<path fill="#91908f" opacity="1.00" d=" M 393.16 361.27 C 394.75 360.93 396.34 360.57 397.93 360.17 C 397.95 360.88 398.01 362.30 398.03 363.00 C 396.73 363.00 395.43 363.00 394.14 363.01 C 393.90 362.58 393.40 361.70 393.16 361.27 Z" />
</g>
</svg>
