<?xml version="1.0" encoding="UTF-8" ?>
<!DOCTYPE svg PUBLIC "-//W3C//DTD SVG 1.1//EN" "http://www.w3.org/Graphics/SVG/1.1/DTD/svg11.dtd">
<svg width="100pt" height="100pt" viewBox="0 0 100 100" version="1.1" xmlns="http://www.w3.org/2000/svg">
<g id="#000000ff">
<path fill="#000000" opacity="1.00" d=" M 3.95 10.91 C 3.54 7.46 6.24 3.86 9.86 4.04 C 31.97 3.93 54.08 4.05 76.18 3.99 C 82.62 10.22 88.91 16.60 95.21 22.97 C 95.24 26.10 95.24 29.24 95.24 32.37 C 93.92 32.12 92.59 31.88 91.26 31.63 C 91.29 29.33 91.30 27.03 91.33 24.73 C 86.56 19.83 81.65 15.07 76.88 10.18 C 75.87 9.24 74.93 8.06 73.49 7.82 C 73.20 17.88 73.63 27.97 73.32 38.03 C 73.28 40.18 71.12 41.81 69.05 41.64 C 54.02 41.68 38.98 41.71 23.94 41.62 C 21.51 41.78 19.58 39.42 19.85 37.07 C 19.76 27.36 19.86 17.66 19.82 7.95 C 16.24 7.98 12.65 7.72 9.08 8.12 C 7.62 8.87 8.05 10.64 7.92 11.97 C 7.95 36.98 7.96 61.99 7.92 87.00 C 8.08 88.36 7.59 90.27 9.05 91.09 C 12.63 91.48 16.23 91.22 19.82 91.26 C 19.90 79.83 19.70 68.40 19.90 56.98 C 19.84 53.80 22.91 51.30 25.99 51.61 C 39.80 51.58 53.60 51.60 67.41 51.61 C 66.12 52.92 64.82 54.22 63.53 55.53 C 51.70 55.53 39.86 55.56 28.03 55.51 C 26.76 55.78 23.89 54.93 23.97 56.98 C 23.61 68.39 23.93 79.84 23.83 91.26 C 41.02 91.27 58.21 91.27 75.41 91.26 C 75.41 85.97 75.42 80.69 75.41 75.40 C 76.72 74.09 78.03 72.77 79.35 71.46 C 79.37 78.06 79.34 84.66 79.36 91.26 C 82.90 91.21 86.46 91.48 89.98 91.11 C 91.69 90.50 91.14 88.38 91.32 87.01 C 91.29 77.83 91.28 68.64 91.31 59.46 C 92.62 58.17 93.92 56.88 95.23 55.59 C 95.20 66.73 95.30 77.88 95.20 89.02 C 95.44 92.41 92.41 95.42 89.03 95.22 C 63.70 95.36 38.37 95.19 13.04 95.29 C 10.50 95.24 7.47 95.50 5.63 93.37 C 3.88 91.74 3.97 89.19 3.92 87.00 C 3.98 61.63 3.91 36.27 3.95 10.91 M 23.83 7.94 C 23.83 17.85 23.80 27.76 23.84 37.67 C 39.06 37.65 54.27 37.69 69.48 37.65 C 69.46 27.75 69.48 17.84 69.47 7.94 C 54.25 7.93 39.04 7.93 23.83 7.94 Z" />
<path fill="#000000" opacity="1.00" d=" M 56.20 12.29 C 58.99 11.70 62.00 11.61 64.77 12.34 C 65.90 13.59 65.29 15.49 65.50 17.02 C 65.36 22.07 65.70 27.14 65.33 32.19 C 64.79 34.51 61.72 33.52 60.01 33.80 C 58.56 33.60 55.87 34.21 55.67 32.08 C 55.29 27.06 55.65 22.01 55.50 16.98 C 55.66 15.43 55.20 13.62 56.20 12.29 M 59.54 15.86 C 59.52 20.48 59.53 25.10 59.53 29.73 L 61.52 29.75 C 61.54 25.12 61.53 20.50 61.52 15.87 L 59.54 15.86 Z" />
<path fill="#000000" opacity="1.00" d=" M 88.25 36.25 C 92.36 34.57 97.47 36.97 98.77 41.21 C 99.94 44.40 98.67 47.95 96.23 50.16 C 86.21 60.20 76.15 70.20 66.16 80.26 C 65.04 81.49 63.57 82.32 61.95 82.66 C 58.29 83.55 54.71 84.83 50.96 85.28 C 50.62 84.94 49.95 84.26 49.62 83.92 C 50.18 80.07 51.39 76.35 52.38 72.59 C 52.90 70.06 55.03 68.44 56.73 66.69 C 65.91 57.59 75.03 48.42 84.16 39.26 C 85.40 38.10 86.64 36.86 88.25 36.25 M 56.46 72.58 C 58.42 74.55 60.39 76.52 62.38 78.46 C 72.46 68.32 82.60 58.24 92.69 48.12 C 90.73 46.15 88.77 44.19 86.80 42.23 C 76.69 52.35 66.56 62.45 56.46 72.58 Z" />
<path fill="#000000" opacity="1.00" d=" M 12.02 81.27 C 13.31 81.30 14.59 81.33 15.88 81.35 C 15.88 82.68 15.88 84.01 15.88 85.34 C 14.53 85.33 13.19 85.33 11.84 85.33 C 11.88 83.97 11.94 82.62 12.02 81.27 Z" />
<path fill="#000000" opacity="1.00" d=" M 83.35 81.33 C 84.66 81.33 85.98 81.34 87.30 81.35 C 87.30 82.34 87.29 84.33 87.29 85.33 C 86.31 85.33 84.35 85.34 83.37 85.34 C 83.36 84.00 83.36 82.66 83.35 81.33 Z" />
</g>
</svg>
