<?xml version="1.0" encoding="UTF-8" ?>
<!DOCTYPE svg PUBLIC "-//W3C//DTD SVG 1.1//EN" "http://www.w3.org/Graphics/SVG/1.1/DTD/svg11.dtd">
<svg width="100pt" height="100pt" viewBox="0 0 100 100" version="1.1" xmlns="http://www.w3.org/2000/svg">
<g id="#000000ff">
<path fill="#000000" opacity="1.00" d=" M 76.71 10.78 C 77.80 8.16 78.39 3.96 82.03 3.95 C 85.35 4.71 88.56 6.00 91.60 7.52 C 93.60 8.83 93.46 11.54 92.53 13.46 C 84.53 34.83 76.48 56.19 68.56 77.59 C 66.63 84.32 58.79 86.72 55.87 92.84 C 55.26 93.84 54.60 95.98 52.99 95.07 C 51.03 94.79 51.75 92.58 52.22 91.39 C 53.97 87.10 52.58 82.42 52.68 77.96 C 52.35 74.74 53.90 71.81 54.97 68.88 C 60.85 53.20 66.70 37.51 72.58 21.84 C 73.56 19.37 74.51 16.89 75.08 14.29 C 74.28 14.17 72.69 13.94 71.89 13.82 C 68.15 22.36 65.36 31.28 61.80 39.89 C 60.72 42.72 56.67 44.71 54.05 42.99 C 52.17 40.24 56.10 39.70 57.82 38.91 C 61.50 30.39 64.21 21.45 67.91 12.94 C 69.48 9.52 73.69 9.59 76.71 10.78 M 82.02 7.91 C 81.46 9.39 80.91 10.87 80.36 12.36 C 82.78 13.29 85.22 14.21 87.66 15.11 C 88.20 13.64 88.75 12.17 89.30 10.70 C 86.87 9.76 84.45 8.83 82.02 7.91 M 78.96 16.09 C 76.47 22.71 74.00 29.34 71.53 35.97 C 73.95 36.92 76.37 37.87 78.80 38.81 C 81.27 32.15 83.79 25.51 86.25 18.85 C 83.82 17.92 81.39 17.00 78.96 16.09 M 70.13 39.69 C 65.80 51.23 61.48 62.78 57.17 74.33 C 59.60 75.26 62.03 76.18 64.46 77.10 C 68.77 65.58 73.08 54.06 77.39 42.54 C 74.97 41.58 72.55 40.63 70.13 39.69 M 56.70 78.39 C 56.80 80.65 56.89 82.91 56.98 85.18 C 58.68 83.60 60.36 82.02 62.04 80.44 C 60.26 79.76 58.48 79.07 56.70 78.39 Z" />
<path fill="#000000" opacity="1.00" d=" M 13.79 43.75 C 16.73 39.03 22.00 34.65 27.93 35.97 C 33.94 37.40 36.01 44.46 35.63 49.93 C 35.37 51.58 33.51 52.08 32.25 51.07 C 31.19 47.50 31.87 42.83 28.48 40.37 C 24.39 38.23 20.06 41.57 17.86 44.89 C 12.38 53.12 9.23 63.18 10.06 73.11 C 10.38 75.31 10.65 78.28 13.00 79.28 C 17.53 80.02 20.82 76.50 24.18 74.15 C 25.92 72.86 29.12 72.46 30.14 74.84 C 30.98 77.62 31.03 80.57 31.54 83.42 C 33.73 81.78 35.84 78.57 38.97 79.59 C 42.97 81.10 41.32 87.02 45.31 88.74 C 47.43 89.53 49.04 92.58 46.07 93.53 C 41.38 92.31 38.70 87.77 37.63 83.35 C 35.53 85.10 33.20 88.39 30.08 86.90 C 26.69 85.02 27.30 80.44 26.65 77.20 C 22.79 80.35 18.34 83.90 13.01 83.23 C 8.96 82.77 6.71 78.68 6.28 75.00 C 4.84 64.12 8.14 53.01 13.79 43.75 Z" />
</g>
</svg>
