<?xml version="1.0" encoding="UTF-8" ?>
<!DOCTYPE svg PUBLIC "-//W3C//DTD SVG 1.1//EN" "http://www.w3.org/Graphics/SVG/1.1/DTD/svg11.dtd">
<svg width="444pt" height="410pt" viewBox="0 0 444 410" version="1.1" xmlns="http://www.w3.org/2000/svg">
<g id="#858181ff">
<path fill="#858181" opacity="1.00" d=" M 206.28 3.24 C 214.97 -0.97 225.54 -0.53 234.00 4.02 C 243.52 9.11 250.60 17.71 256.28 26.71 C 269.01 47.51 275.58 71.32 280.98 94.90 C 284.18 92.29 286.04 86.97 290.92 87.34 C 295.79 87.31 299.27 93.40 296.41 97.48 C 293.11 102.40 289.11 106.81 285.59 111.58 C 283.42 114.19 281.64 117.70 278.01 118.44 C 275.13 119.05 272.68 117.04 270.52 115.45 C 265.88 111.75 261.17 108.14 256.47 104.51 C 254.67 103.01 252.61 101.30 252.42 98.79 C 251.79 94.68 255.82 90.59 259.95 91.27 C 262.51 91.74 264.51 93.58 266.77 94.75 C 265.83 88.36 263.89 82.19 262.19 75.97 C 257.49 60.13 251.67 44.36 242.37 30.59 C 237.70 24.05 232.04 17.45 224.16 14.86 C 217.93 12.77 211.24 15.37 206.41 19.38 C 203.48 21.43 201.53 24.56 198.69 26.67 C 192.88 27.62 187.00 28.16 181.16 28.91 C 187.34 18.58 195.25 8.62 206.28 3.24 Z" />
<path fill="#858181" opacity="1.00" d=" M 268.99 305.79 C 269.46 301.75 274.01 298.31 277.95 300.11 C 281.20 301.02 283.02 304.86 282.13 308.03 C 278.35 327.61 273.21 347.03 265.29 365.37 C 260.16 376.84 254.04 388.14 245.11 397.12 C 238.71 403.57 230.32 408.66 221.04 409.08 C 211.19 409.73 201.70 404.99 194.84 398.17 C 187.82 391.62 182.53 383.47 178.13 375.00 C 183.43 375.99 188.78 376.77 194.02 378.05 C 196.58 378.42 197.64 381.06 199.19 382.78 C 203.79 388.42 209.48 394.12 216.99 395.29 C 223.05 396.28 228.93 393.27 233.37 389.38 C 241.60 382.11 246.99 372.29 251.65 362.49 C 259.96 344.47 265.03 325.17 268.99 305.79 Z" />
</g>
<g id="#383838ff">
<path fill="#383838" opacity="1.00" d=" M 337.29 143.14 C 340.92 142.06 345.16 142.64 348.39 144.70 C 351.22 146.95 352.67 150.53 353.13 154.03 C 352.48 158.20 350.47 162.68 346.40 164.48 C 343.75 165.59 340.51 167.06 337.87 165.14 C 333.94 162.70 329.09 159.24 329.64 154.00 C 329.21 149.10 333.48 145.41 337.29 143.14 M 339.31 144.19 C 334.66 144.86 330.95 149.31 331.08 154.00 C 330.75 159.72 336.33 164.99 342.01 164.40 C 346.83 164.14 351.22 159.88 351.40 155.02 C 352.22 148.63 345.58 142.74 339.31 144.19 Z" />
<path fill="#383838" opacity="1.00" d=" M 140.54 149.44 C 150.15 144.42 162.61 145.02 171.29 151.66 C 179.49 158.11 183.13 171.01 177.15 180.09 C 174.12 184.44 169.98 188.04 165.16 190.28 C 165.18 190.82 165.21 191.90 165.23 192.45 C 169.17 193.41 172.75 195.51 175.44 198.57 C 182.63 204.78 183.22 216.03 179.35 224.23 C 177.24 229.83 172.15 233.44 167.09 236.18 C 160.84 238.73 153.81 239.11 147.19 237.99 C 142.26 236.84 137.76 234.29 133.69 231.35 C 128.77 226.93 126.13 220.42 125.61 213.90 C 127.47 214.21 129.90 213.28 131.42 214.61 C 132.66 217.60 132.45 221.08 134.15 223.92 C 137.44 228.77 142.43 232.72 148.40 233.44 C 155.09 234.08 162.63 234.47 168.36 230.33 C 173.99 227.09 175.79 220.07 175.79 214.00 C 175.78 207.94 174.01 200.89 168.36 197.69 C 161.34 193.26 152.72 194.31 144.83 194.14 C 144.81 192.38 144.81 190.62 144.83 188.87 C 152.90 188.79 162.40 189.88 168.68 183.67 C 173.04 180.17 174.23 174.29 173.84 168.97 C 174.04 161.88 170.19 154.08 162.86 152.25 C 154.34 149.97 143.76 150.53 137.37 157.37 C 134.49 160.90 133.22 165.53 133.06 170.03 C 130.99 170.03 128.92 170.03 126.86 170.04 C 127.97 161.60 132.48 153.04 140.54 149.44 Z" />
<path fill="#383838" opacity="1.00" d=" M 294.33 146.21 C 301.95 145.19 310.23 147.77 315.43 153.58 C 322.85 160.99 324.19 172.03 325.09 181.97 C 325.13 194.91 326.14 208.26 321.86 220.71 C 320.19 226.38 316.33 231.19 311.71 234.76 C 301.73 240.99 287.06 239.99 279.12 230.86 C 275.36 226.08 272.59 220.46 271.41 214.48 C 269.49 204.09 269.74 193.49 269.95 182.97 C 270.73 172.92 271.81 161.78 279.09 154.09 C 282.92 149.61 288.49 146.83 294.33 146.21 M 291.29 152.09 C 287.26 153.35 283.86 156.24 281.65 159.80 C 276.64 167.90 276.34 177.76 276.47 187.00 C 276.73 198.87 275.17 211.40 280.39 222.50 C 282.80 228.05 288.00 232.36 294.01 233.33 C 299.14 233.86 304.91 233.64 308.94 229.99 C 315.48 224.72 317.50 215.98 318.32 208.03 C 318.65 197.35 318.61 186.65 318.36 175.96 C 317.48 168.33 315.43 159.88 309.05 154.93 C 304.16 150.85 297.20 150.78 291.29 152.09 Z" />
<path fill="#383838" opacity="1.00" d=" M 204.38 170.50 C 210.55 155.39 226.87 145.56 243.10 146.75 C 242.99 148.41 242.88 150.08 242.73 151.75 C 238.54 152.29 234.19 151.81 230.15 153.24 C 223.69 155.27 217.24 158.59 213.37 164.35 C 207.90 171.03 205.59 179.82 206.06 188.36 C 209.57 187.49 211.66 184.28 214.81 182.72 C 223.05 177.63 234.10 177.33 242.29 182.66 C 247.12 186.75 251.61 191.79 253.06 198.13 C 255.22 206.54 255.11 216.00 250.90 223.79 C 247.36 231.18 240.41 237.41 232.02 238.30 C 221.60 240.09 210.64 234.74 205.00 225.93 C 199.70 218.04 198.87 208.22 198.92 198.98 C 199.44 189.31 200.15 179.38 204.38 170.50 M 221.61 184.81 C 214.72 187.01 208.03 191.94 205.79 199.08 C 205.38 204.95 205.22 211.02 207.11 216.68 C 209.10 223.01 213.32 228.97 219.53 231.70 C 226.10 234.68 234.66 234.17 240.05 229.05 C 246.28 223.63 248.66 214.99 248.39 206.97 C 247.97 199.75 245.43 192.06 239.35 187.65 C 234.34 183.79 227.56 183.70 221.61 184.81 Z" />
<path fill="#383838" opacity="1.00" d=" M 34.50 158.00 C 34.05 153.29 39.39 149.22 43.79 151.15 C 49.56 153.87 54.83 157.53 60.45 160.52 C 63.20 162.24 66.84 163.76 67.65 167.25 C 68.43 170.41 66.28 173.21 64.87 175.83 C 61.52 181.20 58.76 186.93 55.23 192.18 C 52.79 196.18 46.39 196.05 43.90 192.17 C 41.39 188.92 43.57 184.91 44.96 181.70 C 35.95 185.35 27.41 190.58 20.54 197.51 C 16.13 201.89 12.95 208.47 15.23 214.70 C 17.97 222.03 24.47 227.04 30.78 231.25 C 44.32 239.94 59.65 245.37 75.00 249.94 C 103.50 258.20 132.97 262.55 162.46 265.33 C 197.00 268.34 231.77 268.57 266.38 266.45 C 298.56 264.26 330.74 260.17 361.98 251.92 C 376.53 248.04 390.93 243.26 404.38 236.42 C 411.58 232.60 418.73 228.28 424.23 222.18 C 427.62 218.35 430.32 213.27 429.37 208.01 C 428.31 202.02 423.83 197.45 419.40 193.64 C 412.71 188.15 405.01 184.02 397.12 180.54 C 396.02 175.33 395.64 170.01 394.77 164.76 C 407.61 169.31 420.03 175.70 430.33 184.69 C 436.80 190.52 442.38 198.10 443.31 207.00 C 444.45 215.76 440.66 224.47 434.83 230.86 C 425.20 241.61 412.12 248.44 399.05 254.09 C 374.07 264.49 347.44 270.28 320.79 274.44 C 280.85 280.40 240.35 282.16 200.01 281.06 C 170.87 280.09 141.74 277.76 112.99 272.80 C 93.05 269.28 73.22 264.71 54.17 257.76 C 41.44 253.00 28.86 247.34 17.98 239.09 C 10.63 233.32 3.68 226.09 1.28 216.79 C -1.04 207.94 1.68 198.36 7.36 191.35 C 16.57 179.81 30.01 172.81 43.22 166.84 C 39.88 164.51 34.63 162.82 34.50 158.00 Z" />
</g>
</svg>
