<?xml version="1.0" encoding="UTF-8" ?>
<!DOCTYPE svg PUBLIC "-//W3C//DTD SVG 1.1//EN" "http://www.w3.org/Graphics/SVG/1.1/DTD/svg11.dtd">
<svg width="225pt" height="225pt" viewBox="0 0 225 225" version="1.1" xmlns="http://www.w3.org/2000/svg">
<g id="#000000ff">
<path fill="#000000" opacity="1.00" d=" M 107.37 14.68 C 119.59 11.06 133.31 21.24 133.46 33.97 C 134.41 45.10 125.00 55.61 113.89 56.08 C 102.55 57.13 91.65 47.44 91.53 36.02 C 90.83 26.29 97.94 16.90 107.37 14.68 Z" />
<path fill="#000000" opacity="1.00" d=" M 36.37 63.66 C 39.89 63.17 43.46 63.47 47.00 63.41 C 93.34 63.43 139.67 63.41 186.00 63.42 C 189.55 63.27 193.07 64.98 195.02 67.97 C 199.68 74.13 194.82 84.25 187.02 84.19 C 172.99 84.34 158.95 84.17 144.91 84.24 C 141.63 84.14 138.26 85.60 136.51 88.45 C 134.21 92.21 134.16 96.80 134.29 101.06 C 134.69 108.98 136.23 116.78 137.67 124.57 C 141.92 149.11 146.38 173.62 150.61 198.16 C 151.70 203.03 149.07 208.48 144.30 210.20 C 138.61 212.84 131.33 208.79 130.24 202.69 C 127.62 188.33 125.21 173.93 122.65 159.55 C 121.31 152.31 120.67 144.61 116.79 138.17 C 115.58 135.83 112.43 134.10 110.12 136.05 C 106.32 139.67 105.19 145.12 104.03 150.03 C 100.85 167.57 97.95 185.16 94.75 202.69 C 93.67 208.78 86.38 212.86 80.70 210.17 C 75.92 208.44 73.30 203.01 74.42 198.14 C 78.33 175.32 82.48 152.55 86.43 129.74 C 88.08 119.53 90.60 109.38 90.75 98.99 C 90.72 94.76 90.32 89.95 87.13 86.81 C 85.06 84.66 81.94 84.14 79.08 84.21 C 65.70 84.24 52.33 84.25 38.96 84.24 C 34.50 84.52 30.19 81.53 28.79 77.32 C 26.56 71.70 30.41 64.70 36.37 63.66 Z" />
</g>
</svg>
