<?xml version="1.0" encoding="UTF-8" ?>
<!DOCTYPE svg PUBLIC "-//W3C//DTD SVG 1.1//EN" "http://www.w3.org/Graphics/SVG/1.1/DTD/svg11.dtd">
<svg width="512pt" height="512pt" viewBox="0 0 512 512" version="1.1" xmlns="http://www.w3.org/2000/svg">
<g id="#000000ff">
<path fill="#000000" opacity="1.00" d=" M 389.12 103.38 C 396.38 101.57 404.69 100.39 411.38 104.60 C 418.85 109.28 424.40 116.34 431.24 121.81 C 446.67 134.27 464.49 144.21 476.91 160.03 C 486.34 172.76 493.62 186.88 501.43 200.62 C 504.34 206.10 509.40 210.09 512.00 215.77 L 512.00 222.50 C 509.56 226.45 506.37 229.84 502.90 232.90 C 481.93 251.25 465.58 274.84 441.67 289.77 C 433.48 295.14 423.76 297.54 414.10 298.28 C 404.81 299.54 395.24 298.55 386.13 301.06 C 384.75 304.18 383.53 307.37 382.60 310.66 C 378.34 325.75 373.35 340.79 365.61 354.49 C 358.86 365.70 351.59 376.57 344.51 387.56 C 340.72 393.64 336.77 399.73 334.44 406.56 C 331.37 416.38 331.24 426.77 330.24 436.93 C 329.65 444.07 330.14 451.35 328.41 458.35 C 326.23 464.13 321.45 468.35 316.97 472.37 C 272.97 472.43 228.97 472.29 184.97 472.44 C 181.52 466.17 179.14 459.19 179.06 451.98 C 178.71 445.29 180.40 438.69 180.17 432.00 C 180.04 427.23 178.41 422.70 177.54 418.05 C 175.44 407.79 172.67 397.57 167.79 388.26 C 158.92 371.38 148.04 355.43 141.58 337.38 C 138.20 326.54 136.34 315.31 133.64 304.30 C 132.56 300.15 131.95 295.74 129.74 292.00 C 128.75 290.36 126.51 291.34 124.96 291.20 C 108.24 292.97 90.17 293.55 75.03 285.06 C 57.88 275.19 43.72 261.11 29.75 247.30 C 21.65 238.70 12.37 231.24 4.80 222.13 C 2.70 219.36 -0.27 215.56 2.15 212.09 C 6.13 205.12 10.69 198.42 13.63 190.90 C 16.43 183.57 21.15 177.18 26.25 171.29 C 34.48 161.85 43.73 153.16 54.35 146.44 C 67.47 137.97 81.19 130.34 93.48 120.67 C 99.69 115.54 104.98 108.99 112.47 105.64 C 116.24 103.90 120.51 104.32 124.37 105.50 C 133.20 108.05 141.90 111.09 150.44 114.51 C 155.69 117.01 161.77 118.63 165.68 123.20 C 167.86 126.05 171.16 128.97 170.12 132.97 C 169.08 140.11 166.29 147.87 159.87 151.87 C 154.00 155.43 146.56 154.20 140.70 151.27 C 133.00 148.08 126.71 142.35 119.01 139.20 C 110.64 145.66 102.05 152.40 96.23 161.35 C 92.95 168.84 92.78 177.29 89.90 184.94 C 87.72 192.28 82.69 198.33 80.44 205.63 C 85.63 203.81 90.40 200.82 95.87 199.83 C 102.05 198.32 108.62 199.85 114.01 203.06 C 118.81 205.78 122.63 210.01 127.73 212.24 C 130.64 213.62 133.90 212.64 136.91 212.20 C 146.85 210.38 157.44 209.05 167.12 212.80 C 178.96 217.84 187.69 227.76 198.54 234.40 C 204.98 238.49 213.22 237.48 220.12 235.20 C 222.82 234.12 226.76 232.61 226.38 229.04 C 225.85 214.73 224.70 200.43 222.74 186.25 C 220.06 186.29 216.48 186.85 214.80 184.21 C 212.95 180.43 212.49 176.15 212.01 172.03 C 211.83 168.78 211.51 165.22 213.24 162.31 C 214.74 159.88 217.86 161.83 220.01 162.07 C 219.23 153.93 217.60 145.71 218.68 137.53 C 219.35 131.41 222.79 126.13 226.12 121.13 C 230.65 114.54 237.38 109.47 245.08 107.24 C 255.78 104.15 267.80 104.19 277.92 109.18 C 287.52 113.87 294.68 122.82 298.18 132.81 C 301.37 142.93 298.84 153.56 297.72 163.80 C 300.04 163.41 303.92 161.80 304.57 165.24 C 305.31 171.62 305.78 178.47 303.52 184.61 C 302.54 187.44 299.22 187.35 296.78 187.77 C 294.48 194.60 294.03 201.85 293.12 208.95 C 292.53 215.26 291.32 221.62 292.19 227.96 C 292.79 232.41 296.16 235.81 299.69 238.27 C 304.22 241.62 310.05 243.29 315.66 242.56 C 320.35 241.14 323.09 236.70 326.49 233.49 C 331.98 227.55 339.02 222.98 346.95 221.10 C 359.12 217.86 371.73 219.71 384.05 220.84 C 387.41 221.17 389.72 218.19 392.02 216.22 C 396.37 211.80 401.78 208.27 407.92 207.00 C 418.92 204.76 430.23 207.29 440.93 209.98 C 435.66 204.46 431.54 197.72 429.65 190.29 C 427.72 180.80 430.09 170.08 424.24 161.67 C 419.31 154.30 415.44 146.20 409.71 139.40 C 406.91 136.09 402.41 133.47 397.99 134.84 C 392.56 136.32 391.45 143.53 385.97 144.82 C 375.15 147.32 364.00 148.21 352.92 148.05 C 347.93 148.31 344.00 144.73 340.45 141.72 C 338.43 139.85 335.83 136.67 337.97 133.98 C 340.86 129.25 343.76 124.51 346.99 120.00 C 349.01 117.35 351.20 114.42 354.59 113.51 C 366.03 109.92 377.40 106.01 389.12 103.38 Z" />
</g>
</svg>
