<?xml version="1.0" encoding="UTF-8" ?>
<!DOCTYPE svg PUBLIC "-//W3C//DTD SVG 1.1//EN" "http://www.w3.org/Graphics/SVG/1.1/DTD/svg11.dtd">
<svg width="120pt" height="121pt" viewBox="0 0 120 121" version="1.1" xmlns="http://www.w3.org/2000/svg">
<g id="#adb5bdff">
<path fill="#adb5bd" opacity="1.00" d=" M 60.80 14.86 C 70.05 6.11 84.63 3.61 96.20 8.98 C 101.74 11.22 106.23 15.41 109.80 20.12 C 116.71 29.66 117.67 43.03 112.35 53.52 C 109.07 60.53 102.58 65.13 97.57 70.80 C 96.18 70.48 94.15 71.20 93.39 69.59 C 92.05 66.46 92.63 62.89 91.47 59.70 C 91.17 57.70 89.54 55.14 91.42 53.47 C 94.59 50.12 98.25 46.55 98.73 41.69 C 99.80 35.67 97.36 29.06 92.17 25.65 C 88.19 23.26 83.21 21.51 78.67 23.42 C 71.95 25.40 68.01 31.60 63.03 36.04 C 58.63 40.61 52.57 45.01 52.41 51.98 C 51.66 57.53 54.21 63.01 58.55 66.43 C 62.40 68.89 59.97 73.95 57.47 76.49 C 55.61 78.17 53.97 81.05 51.12 80.73 C 49.49 80.93 48.41 79.57 47.23 78.71 C 34.19 68.17 31.57 47.24 42.10 34.06 C 47.62 26.99 54.39 21.08 60.80 14.86 Z" />
<path fill="#adb5bd" opacity="1.00" d=" M 67.05 43.07 C 68.09 41.99 69.96 41.99 71.09 42.92 C 78.17 47.83 83.00 55.78 84.53 64.22 C 84.80 69.86 85.24 75.75 82.93 81.06 C 80.10 89.40 73.04 95.02 67.12 101.13 C 62.42 105.74 57.98 110.93 51.90 113.79 C 41.24 119.19 27.67 117.97 18.12 110.80 C 11.76 105.95 6.84 98.90 5.46 90.94 C 3.18 80.68 6.44 69.31 13.86 61.84 C 16.82 58.81 19.70 55.67 22.87 52.86 C 24.61 51.23 27.66 52.93 27.53 55.23 C 27.76 60.08 29.83 64.65 29.71 69.52 C 25.19 73.38 20.92 78.71 21.55 85.02 C 21.30 95.36 32.94 103.27 42.53 99.72 C 48.56 97.52 52.39 92.13 56.92 87.92 C 61.75 83.11 67.70 78.27 68.35 70.97 C 68.97 64.75 65.09 59.15 60.28 55.59 C 60.49 53.44 59.82 50.97 61.25 49.12 C 62.85 46.82 64.95 44.90 67.05 43.07 Z" />
</g>
</svg>
