<?xml version="1.0" encoding="UTF-8" ?>
<!DOCTYPE svg PUBLIC "-//W3C//DTD SVG 1.1//EN" "http://www.w3.org/Graphics/SVG/1.1/DTD/svg11.dtd">
<svg width="126pt" height="128pt" viewBox="0 0 126 128" version="1.1" xmlns="http://www.w3.org/2000/svg">
<g id="#ffffffff">
<path fill="#ffffff" opacity="1.00" d=" M 56.44 1.54 C 71.48 -0.23 87.13 3.68 99.42 12.56 C 111.76 21.16 120.60 34.50 124.02 49.11 C 126.73 61.43 125.94 74.55 121.21 86.29 C 115.52 100.93 103.84 113.01 89.68 119.69 C 77.65 125.15 63.82 127.05 50.87 124.10 C 34.37 120.99 19.61 110.47 10.70 96.31 C -1.66 76.98 -1.87 50.69 10.13 31.15 C 19.84 14.81 37.51 3.41 56.44 1.54 M 60.53 9.58 C 40.41 10.14 21.56 23.35 13.84 41.87 C 9.06 52.51 8.71 64.73 11.04 76.03 C 14.38 91.45 25.46 104.47 39.32 111.66 C 46.33 115.24 54.23 116.65 62.01 117.29 C 67.66 117.80 72.92 115.32 78.40 114.45 C 86.66 113.26 93.87 108.43 99.95 102.95 C 110.79 93.16 117.47 78.69 117.00 64.00 C 117.52 52.60 114.24 40.94 107.21 31.87 C 97.05 16.87 78.49 8.40 60.53 9.58 Z" />
<path fill="#ffffff" opacity="1.00" d=" M 54.23 20.82 C 73.45 16.12 94.57 27.61 102.53 45.44 C 106.49 52.29 107.05 60.50 106.40 68.23 C 104.36 86.55 89.33 102.53 71.18 105.70 C 62.59 108.05 53.53 105.80 45.54 102.43 C 34.16 97.35 25.74 86.86 21.76 75.20 C 20.21 67.52 19.80 59.43 21.65 51.76 C 24.16 44.86 27.54 38.05 32.89 32.89 C 38.72 26.99 46.37 23.21 54.23 20.82 M 44.33 40.24 C 40.53 41.51 38.70 45.34 37.99 49.00 C 38.68 51.90 39.65 54.99 42.29 56.71 C 45.92 58.99 51.43 58.71 54.29 55.28 C 57.75 51.62 57.44 45.62 53.78 42.22 C 51.39 39.61 47.53 39.58 44.33 40.24 M 76.31 40.20 C 70.56 42.24 67.84 50.15 72.21 54.77 C 75.01 58.67 80.82 59.11 84.70 56.71 C 89.73 53.12 89.44 45.01 84.73 41.26 C 82.12 40.04 79.14 39.54 76.31 40.20 M 46.35 68.20 C 42.95 68.95 39.88 71.49 38.73 74.80 C 36.43 79.74 40.93 84.91 45.35 86.73 C 48.82 88.11 51.96 85.50 54.71 83.72 C 55.75 81.19 57.80 78.34 56.51 75.56 C 55.58 71.13 50.81 67.55 46.35 68.20 M 77.44 68.44 C 74.38 69.45 71.35 71.27 70.69 74.67 C 68.94 77.75 70.66 81.00 72.24 83.71 C 73.80 85.39 76.12 86.09 78.16 87.03 C 82.21 87.36 85.48 84.63 87.83 81.63 C 88.55 78.92 88.49 76.08 87.83 73.37 C 85.40 70.34 81.58 66.89 77.44 68.44 Z" />
</g>
<g id="#c3c3c3ff">
<path fill="#c3c3c3" opacity="1.00" d=" M 60.53 9.58 C 78.49 8.40 97.05 16.87 107.21 31.87 C 114.24 40.94 117.52 52.60 117.00 64.00 C 117.47 78.69 110.79 93.16 99.95 102.95 C 93.87 108.43 86.66 113.26 78.40 114.45 C 72.92 115.32 67.66 117.80 62.01 117.29 C 54.23 116.65 46.33 115.24 39.32 111.66 C 25.46 104.47 14.38 91.45 11.04 76.03 C 8.71 64.73 9.06 52.51 13.84 41.87 C 21.56 23.35 40.41 10.14 60.53 9.58 M 54.23 20.82 C 46.37 23.21 38.72 26.99 32.89 32.89 C 27.54 38.05 24.16 44.86 21.65 51.76 C 19.80 59.43 20.21 67.52 21.76 75.20 C 25.74 86.86 34.16 97.35 45.54 102.43 C 53.53 105.80 62.59 108.05 71.18 105.70 C 89.33 102.53 104.36 86.55 106.40 68.23 C 107.05 60.50 106.49 52.29 102.53 45.44 C 94.57 27.61 73.45 16.12 54.23 20.82 Z" />
</g>
</svg>
