<?xml version="1.0" encoding="UTF-8" ?>
<!DOCTYPE svg PUBLIC "-//W3C//DTD SVG 1.1//EN" "http://www.w3.org/Graphics/SVG/1.1/DTD/svg11.dtd">
<svg width="126pt" height="128pt" viewBox="0 0 126 128" version="1.1" xmlns="http://www.w3.org/2000/svg">
<g id="#ffffffff">
<path fill="#ffffff" opacity="1.00" d=" M 56.43 1.54 C 71.48 -0.23 87.12 3.68 99.42 12.56 C 111.75 21.16 120.60 34.49 124.02 49.11 C 126.73 61.43 125.94 74.55 121.21 86.29 C 115.52 100.93 103.84 113.01 89.68 119.70 C 77.64 125.15 63.81 127.05 50.86 124.10 C 34.37 120.99 19.61 110.46 10.70 96.31 C -1.66 76.98 -1.87 50.70 10.13 31.15 C 19.83 14.81 37.51 3.42 56.43 1.54 M 60.54 9.59 C 55.41 9.95 50.24 10.60 45.41 12.45 C 27.77 18.27 14.14 34.20 10.53 52.35 C 8.97 62.50 9.33 73.19 13.14 82.83 C 17.29 94.48 26.28 103.97 36.77 110.27 C 44.08 114.65 52.59 116.44 60.99 117.23 C 67.26 117.97 73.15 115.28 79.23 114.29 C 85.31 113.36 90.71 110.19 95.60 106.60 C 103.05 100.99 109.17 93.57 112.86 84.96 C 117.21 75.69 117.51 65.14 116.65 55.11 C 115.35 43.26 109.02 32.59 100.83 24.17 C 90.04 14.18 75.28 8.55 60.54 9.59 Z" />
<path fill="#ffffff" opacity="1.00" d=" M 44.35 40.23 C 47.56 39.61 51.40 39.61 53.78 42.21 C 57.44 45.62 57.76 51.62 54.29 55.27 C 51.44 58.71 45.92 58.99 42.30 56.71 C 39.65 54.99 38.68 51.90 37.99 49.00 C 38.70 45.32 40.55 41.50 44.35 40.23 Z" />
<path fill="#ffffff" opacity="1.00" d=" M 76.34 40.18 C 78.92 39.66 81.66 39.89 84.06 40.99 C 89.49 44.12 89.90 53.08 84.71 56.71 C 80.82 59.11 75.02 58.67 72.22 54.78 C 67.83 50.13 70.58 42.22 76.34 40.18 Z" />
<path fill="#ffffff" opacity="1.00" d=" M 46.36 68.19 C 50.82 67.56 55.57 71.13 56.51 75.55 C 57.81 78.33 55.75 81.18 54.72 83.71 C 51.97 85.49 48.83 88.10 45.36 86.74 C 40.93 84.92 36.44 79.75 38.73 74.80 C 39.88 71.50 42.96 68.94 46.36 68.19 Z" />
<path fill="#ffffff" opacity="1.00" d=" M 77.45 68.43 C 82.46 66.89 88.62 71.77 88.36 77.01 C 89.16 82.36 84.00 86.72 79.01 87.05 C 74.32 86.51 70.33 82.73 69.94 77.95 C 70.12 73.47 72.96 69.46 77.45 68.43 Z" />
</g>
<g id="#c3c3c3ff">
<path fill="#c3c3c3" opacity="1.00" d=" M 60.54 9.59 C 75.28 8.55 90.04 14.18 100.83 24.17 C 109.02 32.59 115.35 43.26 116.65 55.11 C 117.51 65.14 117.21 75.69 112.86 84.96 C 109.17 93.57 103.05 100.99 95.60 106.60 C 90.71 110.19 85.31 113.36 79.23 114.29 C 73.15 115.28 67.26 117.97 60.99 117.23 C 52.59 116.44 44.08 114.65 36.77 110.27 C 26.28 103.97 17.29 94.48 13.14 82.83 C 9.33 73.19 8.97 62.50 10.53 52.35 C 14.14 34.20 27.77 18.27 45.41 12.45 C 50.24 10.60 55.41 9.95 60.54 9.59 M 58.39 19.45 C 50.06 20.90 42.15 24.34 35.33 29.33 C 32.30 32.62 28.91 35.67 26.55 39.52 C 23.96 44.47 21.19 49.54 20.18 55.07 C 20.42 62.42 18.90 70.16 21.92 77.11 C 23.97 84.70 29.12 90.96 34.78 96.21 C 38.51 100.55 44.09 102.43 49.11 104.82 C 55.94 106.64 63.27 107.92 70.27 106.21 C 73.56 105.89 76.95 105.63 79.82 103.79 C 90.33 99.51 98.97 91.03 103.68 80.75 C 104.55 77.11 106.87 73.83 106.86 70.01 C 106.91 65.36 106.99 60.71 106.81 56.07 C 104.34 43.56 96.93 31.69 85.56 25.47 C 77.38 20.98 67.79 18.02 58.39 19.45 Z" />
</g>
</svg>
