<?xml version="1.0" encoding="UTF-8" ?>
<!DOCTYPE svg PUBLIC "-//W3C//DTD SVG 1.1//EN" "http://www.w3.org/Graphics/SVG/1.1/DTD/svg11.dtd">
<svg width="126pt" height="128pt" viewBox="0 0 126 128" version="1.1" xmlns="http://www.w3.org/2000/svg">
<g id="#ffffffff">
<path fill="#ffffff" opacity="1.00" d=" M 61.45 10.30 C 62.78 9.80 64.23 9.82 65.56 10.30 C 69.07 11.54 72.96 10.09 76.42 11.52 C 81.20 13.40 86.11 14.82 90.63 17.30 C 93.00 19.33 95.65 20.98 98.21 22.76 C 105.85 29.29 111.19 38.24 114.38 47.68 C 117.11 57.74 116.38 68.45 114.71 78.61 C 111.93 84.42 109.84 90.66 105.80 95.76 C 97.57 104.87 87.17 113.54 74.44 114.48 C 69.69 115.63 64.59 118.08 59.76 116.19 C 50.30 115.57 40.82 112.55 33.15 106.88 C 29.05 104.43 26.13 100.54 22.66 97.33 C 17.40 92.21 15.35 85.00 12.26 78.56 C 11.70 73.06 10.07 67.65 9.96 62.14 C 11.05 58.91 10.79 55.53 11.04 52.19 C 12.77 47.03 14.15 41.69 16.96 36.98 C 20.86 31.63 24.37 25.77 29.95 21.94 C 34.48 19.02 38.56 15.13 43.98 13.89 C 47.41 13.19 50.42 10.88 54.00 10.85 C 56.48 10.69 59.06 11.19 61.45 10.30 M 58.40 19.45 C 49.86 20.96 41.67 24.48 34.81 29.80 C 31.61 33.60 27.47 36.77 25.60 41.52 C 23.19 45.43 21.59 49.82 20.23 54.19 C 20.02 60.06 20.01 65.95 20.23 71.82 C 21.16 75.12 22.38 78.35 23.46 81.61 C 26.90 88.73 32.56 94.38 38.40 99.57 C 43.94 102.31 49.36 105.96 55.74 106.17 C 59.64 107.32 63.77 107.03 67.77 106.80 C 71.73 105.49 76.26 106.37 79.80 103.76 C 93.63 98.30 103.92 85.38 106.83 70.94 C 106.92 65.69 107.04 60.44 106.76 55.20 C 105.14 50.35 104.08 45.17 101.00 40.98 C 98.96 36.58 95.44 33.29 92.13 29.87 C 87.26 26.57 82.38 22.82 76.47 21.64 C 70.83 19.23 64.46 18.53 58.40 19.45 Z" />
<path fill="#ffffff" opacity="1.00" d=" M 44.36 40.22 C 47.57 39.62 51.40 39.60 53.78 42.22 C 57.44 45.62 57.76 51.61 54.29 55.27 C 51.44 58.71 45.91 58.99 42.29 56.70 C 39.65 54.99 38.68 51.90 37.99 49.00 C 38.70 45.32 40.55 41.50 44.36 40.22 Z" />
<path fill="#ffffff" opacity="1.00" d=" M 76.36 40.17 C 79.19 39.59 82.15 40.01 84.75 41.27 C 89.21 44.88 89.75 52.45 85.27 56.25 C 82.84 58.50 79.35 58.19 76.31 57.89 C 72.77 56.33 70.12 52.92 69.96 49.00 C 70.09 45.07 72.78 41.66 76.36 40.17 Z" />
<path fill="#ffffff" opacity="1.00" d=" M 46.37 68.19 C 50.82 67.56 55.58 71.13 56.51 75.56 C 57.81 78.33 55.76 81.17 54.72 83.70 C 51.98 85.49 48.85 88.09 45.38 86.75 C 40.95 84.92 36.43 79.75 38.73 74.80 C 39.88 71.49 42.96 68.95 46.37 68.19 Z" />
<path fill="#ffffff" opacity="1.00" d=" M 77.46 68.43 C 82.47 66.90 88.63 71.77 88.36 77.01 C 89.16 82.36 84.00 86.73 79.00 87.05 C 74.32 86.51 70.33 82.74 69.95 77.96 C 70.11 73.47 72.97 69.45 77.46 68.43 Z" />
</g>
</svg>
