<?xml version="1.0" encoding="UTF-8" ?>
<!DOCTYPE svg PUBLIC "-//W3C//DTD SVG 1.1//EN" "http://www.w3.org/Graphics/SVG/1.1/DTD/svg11.dtd">
<svg width="87pt" height="83pt" viewBox="0 0 87 83" version="1.1" xmlns="http://www.w3.org/2000/svg">
<g id="#fefefefe">
<path fill="#fefefe" opacity="1.00" d=" M 10.40 43.00 C 9.21 27.13 20.00 11.49 35.15 6.74 C 29.79 13.60 26.42 22.20 26.98 31.00 C 26.65 48.78 41.65 64.90 59.22 66.59 C 63.60 67.18 68.00 66.56 72.34 65.99 C 64.15 74.45 51.68 78.71 40.05 76.48 C 24.03 73.85 10.98 59.27 10.40 43.00 Z" />
<path fill="#fefefe" opacity="1.00" d=" M 49.97 7.16 C 50.58 8.67 51.15 10.20 51.79 11.70 C 53.50 11.62 55.21 11.55 56.92 11.46 C 55.58 12.39 54.24 13.32 52.88 14.23 C 53.13 15.91 53.57 17.55 54.03 19.18 C 52.71 18.29 51.38 17.39 50.07 16.48 C 48.74 17.45 47.40 18.40 46.02 19.29 C 46.52 17.80 47.05 16.32 47.62 14.85 C 46.24 13.62 44.74 12.53 43.17 11.56 C 44.88 11.65 46.59 11.68 48.30 11.76 C 48.88 10.24 49.42 8.70 49.97 7.16 Z" />
<path fill="#fefefe" opacity="1.00" d=" M 46.31 39.51 C 47.09 37.98 47.71 36.38 48.40 34.81 C 48.87 36.34 49.35 37.87 49.82 39.41 C 51.56 39.34 53.30 39.28 55.05 39.23 C 53.68 40.20 52.31 41.16 50.94 42.11 C 51.34 43.73 51.75 45.34 52.16 46.96 C 51.01 46.11 49.89 45.22 48.82 44.28 C 47.51 44.90 46.22 45.53 44.92 46.15 C 45.14 44.81 45.36 43.48 45.57 42.14 C 44.24 41.27 42.95 40.33 41.71 39.33 C 43.25 39.36 44.78 39.42 46.31 39.51 Z" />
<path fill="#fefefe" opacity="1.00" d=" M 72.40 42.61 C 73.08 44.06 73.69 45.54 74.25 47.04 C 75.90 47.13 77.55 47.17 79.20 47.24 C 77.89 48.15 76.57 49.03 75.24 49.92 C 75.59 51.35 75.94 52.79 76.30 54.22 C 74.97 53.50 73.67 52.72 72.32 52.03 C 71.08 53.07 69.81 54.07 68.53 55.07 C 69.08 53.43 69.61 51.78 70.09 50.11 C 68.69 49.11 67.28 48.14 65.89 47.16 C 67.61 47.18 69.34 47.21 71.06 47.24 C 71.49 45.69 71.93 44.14 72.40 42.61 Z" />
</g>
</svg>
