<?xml version="1.0" encoding="UTF-8" ?>
<!DOCTYPE svg PUBLIC "-//W3C//DTD SVG 1.1//EN" "http://www.w3.org/Graphics/SVG/1.1/DTD/svg11.dtd">
<svg width="98pt" height="96pt" viewBox="0 0 98 96" version="1.1" xmlns="http://www.w3.org/2000/svg">
<g id="#ffffffff">
<path fill="#ffffff" opacity="1.00" d=" M 49.35 4.69 C 51.25 7.98 52.68 11.51 54.07 15.04 C 51.01 15.11 47.95 15.12 44.88 15.00 C 46.15 11.47 47.82 8.11 49.35 4.69 Z" />
<path fill="#ffffff" opacity="1.00" d=" M 71.56 22.91 C 75.06 21.48 78.70 20.48 82.28 19.28 C 80.94 22.89 79.29 26.37 77.72 29.88 C 75.58 27.64 73.57 25.27 71.56 22.91 Z" />
<path fill="#ffffff" opacity="1.00" d=" M 16.26 19.36 C 19.89 20.41 23.47 21.66 27.10 22.71 C 25.29 25.30 22.94 27.44 20.86 29.80 C 19.23 26.36 17.68 22.89 16.26 19.36 Z" />
<path fill="#ffffff" opacity="1.00" d=" M 42.34 23.41 C 50.96 20.82 60.83 23.49 67.11 29.90 C 74.53 37.26 76.48 49.40 71.75 58.73 C 67.94 66.68 59.67 72.17 50.90 72.72 C 42.62 73.33 34.11 69.53 29.17 62.84 C 24.51 56.65 22.78 48.24 25.02 40.77 C 27.25 32.50 34.06 25.64 42.34 23.41 Z" />
<path fill="#ffffff" opacity="1.00" d=" M 6.68 47.29 C 10.13 45.74 13.53 44.01 17.14 42.84 C 17.18 45.92 17.15 48.99 17.11 52.07 C 13.63 50.48 10.06 49.09 6.68 47.29 Z" />
<path fill="#ffffff" opacity="1.00" d=" M 81.42 42.80 C 84.93 44.03 88.32 45.59 91.67 47.21 C 88.43 49.16 84.91 50.57 81.46 52.09 C 81.47 48.99 81.45 45.90 81.42 42.80 Z" />
<path fill="#ffffff" opacity="1.00" d=" M 16.27 75.67 C 17.70 72.16 19.23 68.69 20.83 65.26 C 22.95 67.60 25.29 69.77 27.12 72.36 C 23.48 73.39 19.90 74.63 16.27 75.67 Z" />
<path fill="#ffffff" opacity="1.00" d=" M 71.55 72.16 C 73.57 69.87 75.31 67.26 77.89 65.53 C 79.42 68.91 81.00 72.28 82.29 75.76 C 78.70 74.58 75.07 73.53 71.55 72.16 Z" />
<path fill="#ffffff" opacity="1.00" d=" M 44.80 80.30 C 47.92 80.31 51.04 80.30 54.17 80.30 C 52.59 83.69 51.42 87.31 49.25 90.39 C 47.73 87.04 46.17 83.71 44.80 80.30 Z" />
</g>
</svg>
