<?xml version="1.0" encoding="UTF-8" ?>
<!DOCTYPE svg PUBLIC "-//W3C//DTD SVG 1.1//EN" "http://www.w3.org/Graphics/SVG/1.1/DTD/svg11.dtd">
<svg width="106pt" height="101pt" viewBox="0 0 106 101" version="1.1" xmlns="http://www.w3.org/2000/svg">
<g id="#fefefefe">
<path fill="#fefefe" opacity="1.00" d=" M 48.93 26.12 C 50.70 22.42 52.24 18.62 54.00 14.92 C 55.74 18.63 57.31 22.42 59.07 26.12 C 55.69 26.14 52.31 26.14 48.93 26.12 Z" />
<path fill="#fefefe" opacity="1.00" d=" M 18.84 30.40 C 22.69 31.73 26.58 32.92 30.47 34.15 C 28.57 36.88 26.20 39.22 23.96 41.66 C 22.26 37.91 20.60 34.13 18.84 30.40 Z" />
<path fill="#fefefe" opacity="1.00" d=" M 76.92 34.22 C 80.86 33.07 84.72 31.70 88.66 30.56 C 87.03 34.24 85.37 37.91 83.80 41.61 C 81.35 39.29 79.21 36.68 76.92 34.22 Z" />
<path fill="#fefefe" opacity="1.00" d=" M 45.16 35.28 C 54.00 32.11 64.48 34.27 71.36 40.66 C 77.08 45.74 80.37 53.39 80.15 61.03 C 80.11 64.03 79.25 66.93 78.80 69.88 C 86.43 71.88 93.44 75.87 99.30 81.12 C 99.50 82.78 98.88 83.23 97.46 82.47 C 92.69 78.72 87.65 75.13 81.81 73.23 C 70.62 69.48 58.63 70.04 46.99 70.09 C 36.07 70.25 24.59 71.90 15.51 78.44 C 13.05 79.97 11.04 82.35 8.13 83.04 C 8.13 81.72 8.62 80.50 9.78 79.80 C 15.39 75.19 21.93 71.78 28.93 69.84 C 27.03 63.74 26.61 57.00 29.00 50.97 C 31.69 43.67 37.79 37.77 45.16 35.28 Z" />
<path fill="#fefefe" opacity="1.00" d=" M 8.91 60.01 C 12.62 58.28 16.39 56.70 20.10 54.98 C 20.11 58.34 20.11 61.70 20.10 65.07 C 16.39 63.35 12.60 61.78 8.91 60.01 Z" />
<path fill="#fefefe" opacity="1.00" d=" M 87.56 55.01 C 91.29 56.63 95.00 58.28 98.68 60.01 C 94.99 61.74 91.28 63.42 87.57 65.11 C 87.56 61.74 87.57 58.38 87.56 55.01 Z" />
</g>
</svg>
