<?xml version="1.0" encoding="UTF-8" ?>
<!DOCTYPE svg PUBLIC "-//W3C//DTD SVG 1.1//EN" "http://www.w3.org/Graphics/SVG/1.1/DTD/svg11.dtd">
<svg width="117pt" height="90pt" viewBox="0 0 117 90" version="1.1" xmlns="http://www.w3.org/2000/svg">
<g id="#adb5bdff">
<path fill="#adb5bd" opacity="1.00" d=" M 15.32 4.24 C 17.19 3.97 19.08 3.97 20.97 3.96 C 47.96 4.05 74.96 3.90 101.96 4.04 C 107.41 4.01 113.56 7.13 114.32 12.99 C 114.34 34.98 114.43 56.97 114.28 78.96 C 112.59 83.63 108.19 87.42 103.03 87.16 C 73.67 87.18 44.31 87.16 14.95 87.18 C 8.98 87.20 3.84 81.97 3.77 76.04 C 3.75 56.01 3.79 35.98 3.75 15.95 C 3.38 9.73 9.07 3.93 15.32 4.24 M 13.38 23.60 C 23.16 31.46 33.09 39.15 42.92 46.97 C 47.31 50.54 51.65 54.49 57.06 56.41 C 61.95 57.50 66.07 54.38 69.78 51.68 C 81.50 41.93 93.86 32.97 105.48 23.10 C 105.37 19.94 105.43 16.78 105.37 13.63 C 74.73 13.45 44.08 13.74 13.43 13.48 C 13.40 16.85 13.40 20.23 13.38 23.60 M 13.51 35.93 C 13.29 49.80 13.47 63.68 13.42 77.55 C 44.10 77.39 74.78 77.48 105.46 77.50 C 105.27 63.68 105.50 49.85 105.35 36.03 C 99.46 39.33 94.71 44.24 89.25 48.15 C 82.00 53.51 75.48 60.01 67.43 64.18 C 61.04 67.44 53.39 66.25 47.61 62.27 C 35.80 54.09 25.18 44.29 13.51 35.93 Z" />
</g>
</svg>
