<?xml version="1.0" encoding="UTF-8" ?>
<!DOCTYPE svg PUBLIC "-//W3C//DTD SVG 1.1//EN" "http://www.w3.org/Graphics/SVG/1.1/DTD/svg11.dtd">
<svg width="159pt" height="144pt" viewBox="0 0 159 144" version="1.1" xmlns="http://www.w3.org/2000/svg">
<g id="#ffffffff">
<path fill="#ffffff" opacity="1.00" d=" M 96.20 10.36 C 104.39 5.32 114.88 4.11 124.00 7.16 C 124.57 7.30 125.71 7.58 126.28 7.73 C 134.94 11.43 142.32 18.07 146.07 26.81 C 146.43 27.82 146.81 28.83 147.21 29.84 C 147.36 30.40 147.65 31.52 147.80 32.08 C 149.96 39.93 148.73 48.35 145.67 55.80 C 149.11 59.12 151.45 63.33 153.14 67.77 C 153.35 68.89 153.70 69.96 154.20 70.98 C 154.71 74.99 154.72 79.07 154.21 83.09 C 151.78 92.04 145.88 100.34 137.10 103.92 C 128.96 107.76 119.80 106.06 111.13 106.42 C 111.06 115.79 111.10 125.17 111.11 134.54 C 117.19 134.53 123.28 134.58 129.36 134.52 C 130.64 135.48 131.61 136.75 132.51 138.05 C 131.66 139.13 130.82 140.21 129.99 141.30 C 95.24 141.65 60.48 141.35 25.72 141.46 C 22.85 139.87 22.79 135.98 25.85 134.57 C 35.01 134.44 44.18 134.72 53.35 134.43 C 53.31 127.51 53.32 120.59 53.34 113.67 C 41.89 112.13 31.65 104.16 27.93 93.13 C 27.61 91.78 27.30 90.42 26.75 89.14 C 26.28 85.38 26.31 81.58 26.75 77.81 C 27.19 76.56 27.57 75.29 27.89 74.00 C 30.83 65.04 38.01 58.08 46.75 54.75 C 51.74 52.96 57.12 53.02 62.33 53.52 C 66.03 46.98 72.13 42.41 78.58 38.82 C 78.81 34.31 80.02 29.98 81.78 25.85 C 85.14 19.58 89.80 13.72 96.20 10.36 M 107.86 12.69 C 104.97 13.79 101.97 14.67 99.27 16.20 C 92.58 19.98 87.95 26.72 86.04 34.08 C 85.15 36.71 85.33 39.52 85.28 42.24 C 82.67 45.59 78.06 46.17 75.05 49.07 C 72.93 51.16 69.57 53.05 69.44 56.29 C 76.82 59.10 82.20 65.68 85.02 72.89 C 85.39 73.94 85.75 75.00 86.17 76.04 C 87.08 80.98 86.70 86.01 86.19 90.96 C 84.98 93.33 84.02 95.82 83.04 98.29 C 89.95 100.37 97.25 99.79 104.36 99.74 C 104.22 98.07 104.62 96.12 103.39 94.76 C 99.94 91.14 96.17 87.83 92.86 84.09 C 91.73 82.81 92.37 81.09 92.57 79.60 C 97.87 76.82 100.66 83.58 104.27 86.11 C 104.31 80.12 104.33 74.12 104.26 68.13 C 101.76 65.54 99.13 63.09 96.71 60.43 C 94.78 60.81 92.87 61.37 90.89 61.39 C 89.83 61.01 88.76 60.66 87.67 60.34 C 85.71 58.96 84.14 57.14 82.78 55.17 C 81.79 50.95 82.35 45.83 86.21 43.20 C 88.93 40.68 92.86 41.32 96.22 41.69 C 98.08 43.21 99.93 44.77 101.44 46.66 C 102.14 49.16 102.54 51.72 101.73 54.25 C 100.99 56.17 103.28 57.22 104.23 58.54 C 104.61 53.27 103.61 47.87 105.07 42.71 C 106.63 42.51 108.39 41.81 109.83 42.85 C 110.91 44.32 111.14 46.17 111.11 47.94 C 111.11 55.95 111.05 63.96 111.13 71.97 C 113.43 69.76 115.36 67.05 118.11 65.39 C 119.70 64.36 121.36 65.76 122.63 66.63 C 122.52 68.20 122.66 70.03 121.28 71.12 C 118.40 73.96 115.66 76.95 112.61 79.61 C 111.69 80.48 110.92 81.59 111.11 82.93 C 111.05 88.56 111.12 94.19 111.10 99.81 C 120.64 99.43 131.85 101.72 139.56 94.57 C 150.36 86.49 150.53 68.33 140.06 59.90 C 136.30 56.61 139.99 51.79 141.28 48.19 C 141.45 46.42 141.60 44.64 141.81 42.87 C 142.57 41.34 142.48 39.62 141.87 38.06 C 141.33 27.84 134.32 18.33 124.83 14.58 C 119.54 12.05 113.58 12.02 107.86 12.69 M 89.22 52.78 C 90.53 56.19 96.07 54.22 95.63 50.84 C 95.75 48.73 93.29 48.34 91.93 47.45 C 89.98 48.41 87.85 50.43 89.22 52.78 M 35.96 72.11 C 33.10 77.59 32.56 84.14 34.09 90.09 C 36.44 98.79 44.33 105.60 53.26 106.74 C 53.52 97.08 53.07 87.39 53.48 77.74 C 53.44 75.79 55.95 75.77 56.63 74.23 C 57.03 75.22 57.85 75.80 59.09 75.95 C 59.46 76.93 59.83 77.90 60.21 78.87 C 60.22 81.30 60.24 83.72 60.34 86.15 C 63.40 83.61 66.64 77.16 71.34 80.68 C 71.36 81.91 71.38 83.14 71.38 84.37 C 67.89 88.40 63.76 91.82 60.23 95.83 C 60.24 99.45 60.21 103.08 60.26 106.70 C 72.11 105.21 81.03 93.64 80.26 81.85 C 79.55 78.90 79.16 75.82 77.81 73.07 C 73.79 64.74 64.30 59.04 55.08 60.16 C 47.14 60.29 39.76 65.25 35.96 72.11 M 74.19 108.25 C 70.77 110.49 66.92 111.87 63.07 113.16 C 62.36 113.23 60.95 113.38 60.24 113.46 C 60.23 120.48 60.22 127.51 60.25 134.53 C 65.99 134.52 71.74 134.65 77.48 134.44 C 75.22 132.25 72.21 130.07 73.33 126.47 C 74.09 126.14 75.61 125.49 76.37 125.16 C 78.84 126.16 80.89 127.90 82.45 130.05 C 82.71 127.09 81.83 123.61 84.38 121.43 C 85.36 121.45 86.33 121.47 87.31 121.48 C 89.71 123.64 89.02 127.11 89.23 129.98 C 91.00 127.89 92.86 125.63 95.75 125.19 C 96.59 125.72 97.43 126.24 98.27 126.77 C 98.27 127.60 98.27 129.26 98.27 130.09 C 96.92 131.58 95.53 133.03 94.07 134.41 C 97.48 134.59 100.91 134.65 104.32 134.38 C 104.24 125.08 104.39 115.78 104.23 106.48 C 98.76 106.34 93.27 106.58 87.80 106.20 C 84.77 105.76 81.92 104.52 78.93 103.86 C 77.40 105.37 75.84 106.87 74.19 108.25 Z" />
<path fill="#ffffff" opacity="1.00" d=" M 14.93 14.95 C 19.19 6.44 30.49 3.02 38.99 7.04 C 41.32 8.26 43.20 10.11 45.18 11.79 C 46.63 13.62 47.46 16.32 49.94 16.98 C 54.96 18.43 58.00 23.66 57.87 28.70 C 57.91 30.81 55.75 31.52 54.20 32.28 C 38.74 32.17 23.28 32.22 7.81 32.26 C 6.44 31.42 4.19 31.11 4.12 29.10 C 3.77 25.63 5.39 22.20 8.00 19.96 C 10.03 17.82 13.68 17.92 14.93 14.95 M 26.84 12.60 C 25.25 13.74 23.40 14.58 22.12 16.09 C 20.46 17.90 20.05 20.47 18.55 22.38 C 16.55 23.60 14.15 23.94 12.02 24.91 C 24.78 25.56 37.62 25.24 50.41 25.08 C 48.93 23.42 46.77 22.97 44.76 22.29 C 42.83 21.67 42.10 19.58 41.39 17.89 C 40.06 15.80 38.08 14.29 35.99 13.03 C 33.07 11.90 29.87 12.30 26.84 12.60 Z" />
<path fill="#ffffff" opacity="1.00" d=" M 115.96 28.03 C 118.05 24.63 122.30 23.07 126.14 23.78 C 132.04 24.46 136.06 31.44 133.85 36.92 C 132.07 41.65 126.71 44.60 121.80 43.15 C 115.38 41.87 111.91 33.27 115.96 28.03 M 120.64 33.97 C 121.62 36.19 123.58 37.37 126.04 36.91 C 127.73 35.03 128.43 31.54 125.64 30.29 C 123.01 28.90 121.17 31.78 120.64 33.97 Z" />
<path fill="#ffffff" opacity="1.00" d=" M 122.22 78.01 C 123.84 74.25 127.66 71.54 131.84 71.89 C 135.41 71.74 138.44 74.02 140.38 76.83 C 141.75 79.34 141.73 82.23 141.34 84.99 C 139.41 89.34 134.78 92.65 129.90 91.62 C 123.73 90.96 119.60 83.61 122.22 78.01 M 131.88 85.20 C 134.88 85.16 134.80 81.94 134.54 79.79 C 133.28 79.17 131.70 77.43 130.24 78.64 C 127.01 79.98 128.03 85.95 131.88 85.20 Z" />
<path fill="#ffffff" opacity="1.00" d=" M 6.95 134.64 C 10.77 134.70 14.83 133.86 18.43 135.52 C 18.68 136.74 20.19 138.18 19.13 139.35 C 16.22 143.09 10.85 140.92 6.83 141.38 C 6.35 141.05 5.38 140.38 4.89 140.04 C 4.69 139.57 4.29 138.61 4.09 138.13 C 4.29 137.58 4.70 136.46 4.90 135.90 C 5.41 135.59 6.44 134.96 6.95 134.64 Z" />
<path fill="#ffffff" opacity="1.00" d=" M 135.36 138.05 C 136.37 136.78 137.38 135.50 138.69 134.51 C 142.49 134.63 146.30 134.45 150.11 134.57 C 152.08 134.48 154.44 135.75 154.49 137.95 C 154.66 139.81 152.81 141.06 151.19 141.38 C 147.43 141.53 143.65 141.49 139.89 141.42 C 137.61 141.74 136.70 139.38 135.36 138.05 Z" />
</g>
</svg>
