<?xml version="1.0" encoding="UTF-8" ?>
<!DOCTYPE svg PUBLIC "-//W3C//DTD SVG 1.1//EN" "http://www.w3.org/Graphics/SVG/1.1/DTD/svg11.dtd">
<svg width="108pt" height="106pt" viewBox="0 0 108 106" version="1.1" xmlns="http://www.w3.org/2000/svg">
<g id="#ffffffff">
<path fill="#ffffff" opacity="1.00" d=" M 9.76 9.29 C 19.44 9.18 29.13 8.65 38.78 9.16 C 38.96 12.01 39.18 14.86 39.20 17.72 C 36.80 17.83 34.40 17.85 32.00 18.06 C 30.37 17.94 28.75 17.84 27.12 17.78 C 26.83 20.33 29.25 21.61 30.74 23.26 C 35.70 28.21 40.68 33.16 45.63 38.12 C 44.43 40.63 41.63 43.40 39.13 44.65 C 33.67 39.18 28.23 33.69 22.74 28.26 C 21.54 27.12 20.76 25.64 19.88 24.25 C 17.77 28.39 19.69 33.19 19.21 37.62 C 16.22 37.96 13.20 37.87 10.20 37.86 C 9.49 30.59 10.64 23.29 9.93 16.01 C 10.23 13.77 10.05 11.52 9.76 9.29 Z" />
<path fill="#ffffff" opacity="1.00" d=" M 68.13 9.21 C 69.42 9.14 70.71 9.05 72.00 8.94 C 77.32 9.19 82.67 9.28 88.00 8.97 C 90.94 9.20 93.89 9.17 96.84 9.13 C 96.83 11.42 96.86 13.71 96.99 16.00 C 97.15 23.23 96.54 30.46 97.20 37.69 C 94.25 37.96 91.29 38.19 88.33 38.21 C 87.29 33.70 88.73 29.08 87.59 24.57 C 81.37 31.53 74.46 37.86 67.95 44.55 C 67.74 44.57 67.34 44.60 67.13 44.62 C 65.10 42.73 63.28 40.61 61.11 38.87 C 63.03 35.94 65.90 33.81 68.25 31.25 C 72.67 26.99 76.75 22.39 81.43 18.41 C 77.05 17.52 72.57 17.93 68.14 17.86 C 68.14 14.98 68.15 12.10 68.13 9.21 Z" />
<path fill="#ffffff" opacity="1.00" d=" M 39.27 60.26 C 41.13 59.67 42.06 61.76 43.29 62.71 C 44.24 63.94 46.71 65.18 45.52 66.97 C 39.44 73.00 33.48 79.18 27.27 85.08 C 27.27 85.60 27.27 86.64 27.26 87.16 C 31.28 87.26 35.34 86.82 39.33 87.47 C 38.53 90.15 38.95 92.93 39.24 95.65 C 33.55 96.65 27.81 95.63 22.09 95.88 C 19.73 95.97 17.36 96.23 14.99 95.95 C 13.43 96.05 11.86 96.15 10.30 96.23 C 10.20 94.45 10.13 92.66 10.03 90.87 C 9.91 84.92 10.13 78.95 9.96 72.99 C 10.10 70.94 10.18 68.89 10.30 66.84 C 13.11 66.87 15.91 66.87 18.72 66.85 C 19.52 70.83 18.79 74.86 18.80 78.87 C 19.81 78.67 21.08 78.92 21.70 77.85 C 27.55 71.98 33.37 66.07 39.27 60.26 Z" />
<path fill="#ffffff" opacity="1.00" d=" M 61.37 66.87 C 62.51 64.35 65.38 61.76 67.76 60.32 C 73.91 66.40 80.10 72.47 86.08 78.73 C 86.60 78.73 87.64 78.73 88.16 78.73 C 88.13 74.87 88.14 71.00 88.14 67.14 C 90.92 67.14 93.74 67.34 96.47 66.69 C 97.58 69.75 96.72 72.96 96.97 76.12 C 97.16 82.65 96.73 89.20 97.20 95.72 C 89.10 96.17 80.95 95.65 72.82 96.18 L 72.20 95.82 C 70.87 95.84 69.53 95.86 68.20 95.88 C 68.07 92.85 67.77 89.80 68.30 86.78 C 72.68 87.10 77.09 87.39 81.44 86.58 C 74.43 80.35 68.09 73.40 61.37 66.87 Z" />
</g>
</svg>
