<?xml version="1.0" encoding="UTF-8" ?>
<!DOCTYPE svg PUBLIC "-//W3C//DTD SVG 1.1//EN" "http://www.w3.org/Graphics/SVG/1.1/DTD/svg11.dtd">
<svg width="200pt" height="200pt" viewBox="0 0 200 200" version="1.1" xmlns="http://www.w3.org/2000/svg">
<g id="#3c3c3cff">
<path fill="#3c3c3c" opacity="1.00" d=" M 22.21 10.28 C 30.77 9.67 39.40 10.11 47.99 10.03 C 54.86 9.87 61.35 15.10 62.64 21.85 C 63.43 27.87 62.81 33.97 63.00 40.03 C 63.08 46.40 63.79 53.87 58.59 58.61 C 53.83 63.81 46.36 63.07 39.99 63.00 C 34.28 62.87 28.56 63.28 22.87 62.80 C 15.70 62.01 9.89 55.27 10.03 48.07 C 9.97 40.37 9.97 32.67 10.03 24.97 C 9.88 17.98 15.31 11.43 22.21 10.28 Z" />
<path fill="#3c3c3c" opacity="1.00" d=" M 85.17 10.29 C 91.44 9.64 97.76 10.17 104.05 9.99 C 108.75 10.10 113.84 9.37 118.11 11.80 C 122.89 14.32 126.04 19.57 125.97 24.98 C 126.03 32.64 126.03 40.29 125.98 47.95 C 126.08 53.61 122.64 59.07 117.54 61.50 C 111.74 64.10 105.17 62.62 99.02 62.99 C 91.74 62.74 82.98 64.59 77.40 58.60 C 71.43 53.03 73.25 44.30 73.01 37.03 C 73.27 31.33 72.24 25.44 73.89 19.89 C 75.64 15.02 80.06 11.19 85.17 10.29 Z" />
<path fill="#3c3c3c" opacity="1.00" d=" M 149.23 10.28 C 157.48 9.65 165.79 10.16 174.06 10.00 C 179.51 9.73 185.01 12.47 187.80 17.20 C 191.13 22.50 189.71 29.04 190.00 34.95 C 189.75 40.79 190.65 46.76 189.31 52.50 C 187.55 58.22 182.10 62.66 176.08 62.91 C 170.06 63.17 164.03 62.90 158.01 63.01 C 154.27 62.95 150.38 63.35 146.79 62.07 C 141.42 60.11 137.34 54.85 137.09 49.09 C 136.83 43.08 137.10 37.05 136.99 31.04 C 137.05 27.30 136.64 23.41 137.92 19.82 C 139.69 14.96 144.11 11.16 149.23 10.28 Z" />
<path fill="#3c3c3c" opacity="1.00" d=" M 22.18 74.29 C 30.43 73.64 38.74 74.16 47.02 73.99 C 52.47 73.72 57.99 76.44 60.79 81.19 C 64.28 86.81 62.63 93.73 62.99 99.96 C 62.62 107.55 64.82 116.70 58.62 122.58 C 53.34 128.32 45.02 126.87 38.05 127.00 C 32.21 126.75 26.24 127.64 20.50 126.31 C 14.77 124.56 10.34 119.09 10.09 113.06 C 9.83 107.03 10.10 100.98 9.99 94.94 C 10.05 91.23 9.65 87.37 10.93 83.81 C 12.70 78.97 17.09 75.18 22.18 74.29 Z" />
<path fill="#3c3c3c" opacity="1.00" d=" M 85.22 74.28 C 92.79 73.63 100.41 74.20 108.00 73.97 C 113.56 73.52 119.59 75.23 122.95 79.95 C 127.45 85.64 125.65 93.30 125.99 99.99 C 125.62 107.57 127.82 116.72 121.61 122.59 C 116.04 128.58 107.29 126.75 100.01 126.99 C 92.42 126.63 83.26 128.81 77.39 122.59 C 71.43 117.02 73.25 108.29 73.01 101.02 C 73.34 95.07 72.04 88.79 74.22 83.09 C 76.14 78.58 80.38 75.12 85.22 74.28 Z" />
<path fill="#3c3c3c" opacity="1.00" d=" M 149.25 74.28 C 157.47 73.65 165.74 74.16 173.97 73.99 C 179.45 73.70 184.99 76.43 187.79 81.19 C 190.67 85.57 189.92 91.03 190.01 95.99 C 189.90 101.69 190.17 107.39 189.91 113.08 C 189.63 120.67 182.64 127.15 175.06 126.97 C 167.38 127.03 159.69 127.03 152.02 126.98 C 145.14 127.13 138.66 121.90 137.36 115.16 C 136.57 109.14 137.19 103.04 137.00 96.99 C 137.12 92.60 136.49 88.05 137.92 83.82 C 139.70 78.96 144.13 75.15 149.25 74.28 Z" />
<path fill="#3c3c3c" opacity="1.00" d=" M 22.15 137.29 C 30.75 136.65 39.42 137.12 48.04 137.03 C 55.62 136.85 62.61 143.30 62.91 150.89 C 63.17 156.93 62.90 162.97 63.01 169.01 C 63.32 175.02 63.10 181.93 58.07 186.11 C 52.69 191.34 44.73 189.80 37.96 190.00 C 32.16 189.76 26.23 190.64 20.53 189.32 C 14.42 187.49 9.92 181.44 10.03 175.04 C 9.97 167.35 9.97 159.65 10.03 151.96 C 9.89 144.99 15.29 138.47 22.15 137.29 Z" />
<path fill="#3c3c3c" opacity="1.00" d=" M 85.24 137.28 C 93.82 136.67 102.45 137.11 111.05 137.03 C 117.93 136.90 124.39 142.16 125.65 148.91 C 126.41 154.89 125.82 160.95 126.00 166.97 C 125.90 171.17 126.43 175.49 125.28 179.59 C 123.40 185.65 117.37 190.10 111.00 189.98 C 103.34 190.03 95.67 190.03 88.00 189.98 C 81.85 190.09 76.01 185.97 73.93 180.21 C 72.23 174.65 73.27 168.73 73.01 163.02 C 73.23 157.64 72.29 152.06 73.92 146.84 C 75.68 141.97 80.11 138.16 85.24 137.28 Z" />
<path fill="#3c3c3c" opacity="1.00" d=" M 149.25 137.28 C 157.48 136.65 165.77 137.15 174.03 137.00 C 179.49 136.71 185.01 139.46 187.80 144.21 C 190.67 148.59 189.92 154.05 190.01 159.01 C 189.91 164.67 190.16 170.34 189.92 175.99 C 189.67 183.25 183.29 189.65 176.03 189.91 C 168.02 190.11 159.99 189.99 151.97 189.97 C 144.77 190.14 138.03 184.34 137.20 177.18 C 136.85 168.10 136.87 158.96 137.20 149.88 C 137.92 143.66 143.09 138.31 149.25 137.28 Z" />
</g>
</svg>
