<?xml version="1.0" encoding="UTF-8" ?>
<!DOCTYPE svg PUBLIC "-//W3C//DTD SVG 1.1//EN" "http://www.w3.org/Graphics/SVG/1.1/DTD/svg11.dtd">
<svg width="200pt" height="200pt" viewBox="0 0 200 200" version="1.1" xmlns="http://www.w3.org/2000/svg">
<g id="#3c3c3cff">
<path fill="#3c3c3c" opacity="1.00" d=" M 22.20 10.28 C 39.46 9.62 56.77 10.19 74.05 9.99 C 83.25 9.23 91.17 17.96 90.02 27.02 C 89.95 43.03 90.06 59.05 89.97 75.06 C 90.18 83.05 83.00 90.20 75.02 89.97 C 58.34 90.02 41.66 90.02 24.98 89.98 C 16.98 90.20 9.80 83.02 10.03 75.02 C 9.98 58.34 9.98 41.66 10.03 24.99 C 9.87 17.99 15.30 11.44 22.20 10.28 Z" />
<path fill="#3c3c3c" opacity="1.00" d=" M 122.21 10.28 C 139.47 9.63 156.79 10.19 174.07 9.99 C 179.77 9.70 185.51 12.76 188.17 17.85 C 189.99 20.92 190.04 24.59 190.03 28.05 C 189.94 43.69 190.06 59.34 189.98 74.99 C 190.22 83.02 182.99 90.23 174.96 89.98 C 158.30 90.02 141.64 90.02 124.99 89.98 C 119.36 90.06 113.93 86.63 111.52 81.56 C 109.98 78.64 109.98 75.25 109.97 72.03 C 110.06 56.33 109.94 40.64 110.03 24.94 C 109.89 17.96 115.33 11.43 122.21 10.28 Z" />
<path fill="#3c3c3c" opacity="1.00" d=" M 22.23 110.28 C 39.48 109.63 56.79 110.19 74.05 110.00 C 79.75 109.69 85.47 112.74 88.15 117.81 C 89.97 120.86 90.05 124.52 90.03 127.98 C 89.94 143.66 90.06 159.34 89.98 175.02 C 90.20 183.00 83.06 190.17 75.08 189.97 C 58.38 190.02 41.67 190.02 24.96 189.97 C 19.34 190.05 13.92 186.62 11.52 181.55 C 9.96 178.62 9.98 175.21 9.97 171.98 C 10.06 156.31 9.94 140.64 10.03 124.97 C 9.88 117.97 15.33 111.42 22.23 110.28 Z" />
<path fill="#3c3c3c" opacity="1.00" d=" M 122.17 110.29 C 137.09 109.61 152.06 110.19 167.00 110.00 C 171.84 110.16 177.05 109.28 181.55 111.52 C 186.61 113.91 190.04 119.33 189.97 124.95 C 190.06 140.62 189.94 156.30 190.03 171.98 C 190.02 175.23 190.03 178.65 188.47 181.59 C 186.04 186.65 180.62 190.06 174.99 189.98 C 159.32 190.06 143.64 189.94 127.96 190.03 C 124.75 190.02 121.36 190.02 118.44 188.48 C 113.36 186.07 109.93 180.62 110.02 174.98 C 109.98 158.30 109.98 141.61 110.03 124.92 C 109.91 117.96 115.31 111.45 122.17 110.29 Z" />
</g>
</svg>
