<?xml version="1.0" encoding="UTF-8" ?>
<!DOCTYPE svg PUBLIC "-//W3C//DTD SVG 1.1//EN" "http://www.w3.org/Graphics/SVG/1.1/DTD/svg11.dtd">
<svg width="200pt" height="200pt" viewBox="0 0 200 200" version="1.1" xmlns="http://www.w3.org/2000/svg">
<g id="#3c3c3cff">
<path fill="#3c3c3c" opacity="1.00" d=" M 20.41 10.72 C 24.17 9.64 28.13 10.06 31.99 9.99 C 79.34 10.01 126.69 10.00 174.04 9.99 C 179.72 9.70 185.45 12.71 188.13 17.77 C 190.49 21.76 189.96 26.54 190.01 30.97 C 189.96 79.00 190.05 127.03 189.97 175.06 C 190.17 183.02 183.05 190.16 175.09 189.97 C 125.40 190.05 75.70 189.97 26.00 190.01 C 20.30 190.32 14.56 187.30 11.87 182.23 C 9.51 178.22 10.04 173.40 9.99 168.95 C 10.04 120.95 9.95 72.94 10.03 24.94 C 9.93 18.59 14.37 12.59 20.41 10.72 Z" />
</g>
</svg>
