<?xml version="1.0" encoding="UTF-8" ?>
<!DOCTYPE svg PUBLIC "-//W3C//DTD SVG 1.1//EN" "http://www.w3.org/Graphics/SVG/1.1/DTD/svg11.dtd">
<svg width="48pt" height="48pt" viewBox="0 0 48 48" version="1.1" xmlns="http://www.w3.org/2000/svg">
<g id="#000000ff">
<path fill="#000000" opacity="1.00" d=" M 8.27 11.84 C 6.80 6.72 11.78 1.26 17.00 2.09 C 22.01 2.65 25.59 8.59 23.25 13.20 C 22.25 15.81 19.64 17.09 17.15 17.91 C 21.51 17.66 26.82 19.07 28.28 23.73 C 29.61 28.69 28.94 33.97 28.89 39.05 C 28.87 42.41 25.50 43.93 23.39 45.94 C 22.24 45.97 21.09 46.01 19.93 46.04 C 19.99 44.23 20.10 42.42 20.26 40.62 C 21.55 40.69 22.84 40.74 24.14 40.77 C 25.72 35.77 25.05 30.32 24.68 25.17 C 23.50 21.51 19.11 21.96 16.05 21.93 C 12.96 21.96 8.44 21.48 7.30 25.24 C 6.63 29.87 7.14 34.58 7.01 39.24 C 7.29 39.58 7.86 40.24 8.14 40.57 C 9.35 40.53 10.56 40.58 11.76 40.73 C 11.90 42.50 12.00 44.26 12.07 46.03 C 10.92 46.01 9.76 45.98 8.61 45.94 C 6.53 43.93 3.15 42.44 3.11 39.11 C 3.06 33.99 2.37 28.67 3.74 23.69 C 5.20 19.05 10.51 17.68 14.85 17.89 C 11.82 17.10 8.94 15.06 8.27 11.84 M 14.27 6.31 C 11.56 7.22 11.50 11.01 12.98 13.03 C 15.53 15.08 20.38 13.76 19.99 9.98 C 20.31 6.91 16.85 5.19 14.27 6.31 Z" />
<path fill="#000000" opacity="1.00" d=" M 35.00 3.00 C 35.75 3.00 37.25 3.00 38.00 3.00 C 38.00 17.33 38.00 31.67 38.00 46.00 C 37.25 46.00 35.75 46.00 35.00 46.00 C 35.00 31.67 35.00 17.33 35.00 3.00 Z" />
<path fill="#000000" opacity="1.00" d=" M 40.00 5.00 C 42.00 5.00 44.00 5.00 46.00 5.00 C 46.00 5.75 46.00 7.25 46.00 8.00 C 44.00 8.00 42.00 8.00 40.00 8.00 C 40.00 7.25 40.00 5.75 40.00 5.00 Z" />
<path fill="#000000" opacity="1.00" d=" M 40.00 12.00 C 42.00 12.00 44.00 12.00 46.00 12.00 C 46.00 12.75 46.00 14.25 46.00 15.00 C 44.00 15.00 42.00 15.00 40.00 15.00 C 40.00 14.25 40.00 12.75 40.00 12.00 Z" />
<path fill="#000000" opacity="1.00" d=" M 40.00 19.00 C 42.00 19.00 44.00 19.00 46.00 19.00 C 46.00 19.75 46.00 21.25 46.00 22.00 C 44.00 22.00 42.00 22.00 40.00 22.00 C 40.00 21.25 40.00 19.75 40.00 19.00 Z" />
<path fill="#000000" opacity="1.00" d=" M 40.00 26.00 C 42.00 26.00 44.00 26.00 46.00 26.00 C 46.00 26.75 46.00 28.25 46.00 29.00 C 44.00 29.00 42.00 29.00 40.00 29.00 C 40.00 28.25 40.00 26.75 40.00 26.00 Z" />
<path fill="#000000" opacity="1.00" d=" M 9.16 28.14 C 10.81 27.68 11.35 28.25 10.78 29.84 C 9.12 30.30 8.58 29.73 9.16 28.14 Z" />
<path fill="#000000" opacity="1.00" d=" M 21.17 28.16 C 22.80 27.64 23.36 28.20 22.84 29.83 C 21.20 30.34 20.65 29.79 21.17 28.16 Z" />
<path fill="#000000" opacity="1.00" d=" M 9.09 32.22 C 10.70 31.63 11.28 32.15 10.83 33.79 C 9.22 34.37 8.64 33.85 9.09 32.22 Z" />
<path fill="#000000" opacity="1.00" d=" M 21.16 32.17 C 22.79 31.64 23.35 32.19 22.83 33.82 C 21.21 34.35 20.65 33.80 21.16 32.17 Z" />
<path fill="#000000" opacity="1.00" d=" M 9.17 36.15 C 10.80 35.65 11.35 36.21 10.82 37.83 C 9.18 38.33 8.63 37.77 9.17 36.15 Z" />
<path fill="#000000" opacity="1.00" d=" M 21.17 36.16 C 22.80 35.65 23.35 36.20 22.83 37.83 C 21.20 38.34 20.64 37.79 21.17 36.16 Z" />
</g>
</svg>
