<?xml version="1.0" encoding="UTF-8" ?>
<!DOCTYPE svg PUBLIC "-//W3C//DTD SVG 1.1//EN" "http://www.w3.org/Graphics/SVG/1.1/DTD/svg11.dtd">
<svg width="269pt" height="251pt" viewBox="0 0 269 251" version="1.1" xmlns="http://www.w3.org/2000/svg">
<g id="#fafafaff">
</g>
<g id="#010101ff">
<path fill="#010101" opacity="1.00" d=" M 103.03 8.09 C 103.47 5.46 105.74 2.63 108.53 4.68 C 112.26 8.54 115.29 13.05 118.82 17.10 C 121.93 21.29 125.98 24.86 128.01 29.76 C 130.43 35.11 133.63 40.14 135.44 45.75 C 138.42 39.20 142.41 33.16 145.86 26.86 C 151.26 19.65 157.12 12.79 162.80 5.79 C 164.17 3.91 166.92 3.44 168.54 5.29 C 168.83 6.33 169.13 7.36 169.43 8.39 C 198.64 17.03 227.72 26.12 256.89 34.92 C 263.22 36.51 266.97 43.91 265.04 50.05 C 261.64 63.88 258.19 77.70 254.75 91.53 C 253.83 94.91 252.57 98.55 249.56 100.63 C 246.89 102.76 243.29 103.56 239.95 102.94 C 230.30 101.66 220.64 100.48 210.98 99.24 C 211.03 142.15 210.97 185.07 211.01 227.98 C 210.98 231.06 211.18 234.29 209.97 237.20 C 208.02 242.08 203.58 246.54 198.01 246.47 C 155.01 246.54 112.01 246.48 69.01 246.50 C 61.36 246.80 55.88 239.05 56.28 231.90 C 56.27 187.83 56.14 143.76 56.35 99.69 C 47.58 100.92 38.79 101.94 30.01 103.03 C 25.66 103.79 21.46 101.49 18.60 98.37 C 16.80 95.71 16.02 92.51 15.21 89.44 C 11.91 76.30 8.54 63.18 5.21 50.04 C 3.61 43.98 7.00 37.21 12.94 35.09 C 42.96 26.06 73.00 17.08 103.03 8.09 M 108.71 14.54 C 108.09 19.32 107.33 24.09 106.27 28.79 C 110.15 27.69 114.14 27.10 118.13 26.57 C 114.74 22.78 111.47 18.82 108.71 14.54 M 154.00 26.66 C 158.07 26.93 162.04 27.89 166.07 28.46 C 165.17 23.94 164.42 19.39 163.80 14.82 C 160.59 18.81 157.68 23.08 154.00 26.66 M 22.06 39.18 C 19.46 39.97 16.80 40.60 14.33 41.75 C 11.82 43.13 10.99 46.37 11.90 48.99 C 15.32 62.96 18.89 76.90 22.39 90.85 C 22.79 93.42 24.73 95.57 27.12 96.47 C 30.15 96.64 33.15 95.98 36.15 95.64 C 45.04 94.40 53.98 93.51 62.85 92.12 C 62.62 138.07 62.84 184.03 62.74 229.98 C 62.56 233.44 63.55 236.96 66.13 239.39 C 67.73 239.57 69.34 239.74 70.96 239.75 C 112.32 239.75 153.68 239.74 195.03 239.76 C 196.87 239.76 198.71 239.61 200.54 239.45 C 203.46 237.24 204.35 233.50 204.26 230.00 C 204.23 183.91 204.26 137.82 204.24 91.74 C 216.52 93.34 228.79 94.96 241.08 96.45 C 244.13 97.17 247.32 94.75 247.82 91.74 C 251.42 77.49 255.04 63.25 258.60 48.99 C 259.68 45.92 258.25 41.88 254.82 41.17 C 226.70 32.30 198.28 24.28 170.23 15.18 C 171.55 20.38 172.24 25.71 173.08 31.01 C 173.46 32.58 172.57 34.02 172.07 35.44 C 164.70 35.80 157.52 33.23 150.26 32.19 C 146.20 39.40 142.17 46.64 137.94 53.75 C 136.84 56.10 133.29 55.89 132.36 53.53 C 128.75 46.52 125.54 39.30 121.98 32.26 C 116.63 33.25 111.28 34.21 105.95 35.24 C 104.07 35.53 102.01 36.17 100.24 35.11 C 98.75 33.77 99.32 31.73 99.54 30.01 C 100.37 25.08 101.08 20.13 102.08 15.24 C 75.40 23.19 48.74 31.21 22.06 39.18 Z" />
<path fill="#010101" opacity="1.00" d=" M 134.19 62.18 C 136.80 61.08 139.72 64.60 138.06 66.89 C 137.00 69.29 133.06 69.19 132.19 66.71 C 131.28 65.01 132.32 62.65 134.19 62.18 Z" />
<path fill="#010101" opacity="1.00" d=" M 133.19 79.03 C 135.33 77.45 138.84 79.31 138.48 82.00 C 138.61 84.73 134.57 86.24 132.87 84.12 C 131.32 82.75 131.69 80.28 133.19 79.03 Z" />
</g>
</svg>
