<?xml version="1.0" encoding="UTF-8" ?>
<!DOCTYPE svg PUBLIC "-//W3C//DTD SVG 1.1//EN" "http://www.w3.org/Graphics/SVG/1.1/DTD/svg11.dtd">
<svg width="80pt" height="80pt" viewBox="0 0 80 80" version="1.1" xmlns="http://www.w3.org/2000/svg">
<g id="#000000ff">
<path fill="#000000" opacity="1.00" d=" M 32.51 14.37 C 34.28 8.71 42.55 7.13 46.11 11.98 C 50.19 16.44 47.02 23.79 41.36 24.90 C 45.90 24.61 51.33 26.44 52.50 31.37 C 53.49 37.19 52.95 43.20 52.89 49.08 C 52.92 52.04 50.26 53.69 48.00 54.99 C 47.75 59.44 48.68 64.10 47.33 68.41 C 46.01 71.27 42.56 70.99 39.99 70.47 C 37.43 71.01 34.01 71.24 32.67 68.43 C 31.20 64.19 32.55 59.56 31.79 55.19 C 30.21 53.52 27.53 52.49 27.23 49.92 C 26.76 46.30 27.05 42.63 26.97 38.98 C 27.01 35.52 26.65 31.72 28.76 28.73 C 30.84 25.50 35.07 24.90 38.60 24.93 C 34.13 23.77 30.64 18.96 32.51 14.37 M 38.27 13.33 C 36.03 13.89 35.64 16.89 36.33 18.76 C 37.00 20.95 39.87 21.38 41.76 20.66 C 43.95 19.99 44.39 17.11 43.66 15.23 C 43.00 13.05 40.15 12.60 38.27 13.33 M 31.31 32.19 C 30.73 37.97 30.85 43.87 31.23 49.66 C 32.51 50.72 34.32 50.58 35.84 51.01 C 36.11 56.37 35.95 61.73 36.05 67.09 C 37.60 66.29 39.13 65.44 40.66 64.60 C 41.64 65.52 42.63 66.44 43.69 67.28 C 44.35 61.76 43.77 56.19 44.17 50.66 C 45.55 50.67 46.93 50.69 48.30 50.72 C 49.50 44.64 49.16 38.31 48.68 32.18 C 47.49 28.51 43.09 28.96 40.02 28.93 C 36.94 28.96 32.50 28.50 31.31 32.19 Z" />
<path fill="#000000" opacity="1.00" d=" M 33.14 35.15 C 34.77 34.64 35.32 35.20 34.79 36.82 C 33.15 37.32 32.60 36.76 33.14 35.15 Z" />
<path fill="#000000" opacity="1.00" d=" M 45.19 35.15 C 46.83 34.66 47.37 35.23 46.81 36.84 C 45.18 37.32 44.64 36.76 45.19 35.15 Z" />
<path fill="#000000" opacity="1.00" d=" M 33.11 39.20 C 34.72 38.64 35.29 39.17 34.81 40.81 C 33.19 41.37 32.62 40.83 33.11 39.20 Z" />
<path fill="#000000" opacity="1.00" d=" M 45.16 39.17 C 46.78 38.64 47.34 39.19 46.84 40.82 C 45.21 41.35 44.66 40.80 45.16 39.17 Z" />
<path fill="#000000" opacity="1.00" d=" M 33.15 43.17 C 34.78 42.64 35.33 43.18 34.83 44.81 C 33.21 45.35 32.65 44.80 33.15 43.17 Z" />
<path fill="#000000" opacity="1.00" d=" M 45.15 43.19 C 46.76 42.63 47.32 43.16 46.85 44.80 C 45.24 45.36 44.67 44.83 45.15 43.19 Z" />
<path fill="#000000" opacity="1.00" d=" M 33.13 47.21 C 34.77 46.74 35.30 47.30 34.73 48.91 C 33.08 49.39 32.55 48.82 33.13 47.21 Z" />
<path fill="#000000" opacity="1.00" d=" M 45.17 47.17 C 46.79 46.64 47.34 47.19 46.83 48.82 C 45.21 49.35 44.66 48.80 45.17 47.17 Z" />
<path fill="#000000" opacity="1.00" d=" M 39.17 53.17 C 40.79 52.64 41.34 53.19 40.83 54.82 C 39.21 55.35 38.65 54.80 39.17 53.17 Z" />
<path fill="#000000" opacity="1.00" d=" M 39.15 57.18 C 40.77 56.63 41.33 57.17 40.84 58.81 C 39.23 59.36 38.66 58.82 39.15 57.18 Z" />
<path fill="#000000" opacity="1.00" d=" M 39.16 61.17 C 40.79 60.64 41.34 61.19 40.83 62.82 C 39.21 63.35 38.65 62.80 39.16 61.17 Z" />
</g>
</svg>
