<?xml version="1.0" encoding="UTF-8" ?>
<!DOCTYPE svg PUBLIC "-//W3C//DTD SVG 1.1//EN" "http://www.w3.org/Graphics/SVG/1.1/DTD/svg11.dtd">
<svg width="64pt" height="64pt" viewBox="0 0 64 64" version="1.1" xmlns="http://www.w3.org/2000/svg">
<g id="#000000ff">
<path fill="#000000" opacity="1.00" d=" M 4.05 9.90 C 3.96 6.79 6.76 4.00 9.86 4.05 C 22.93 3.92 36.01 4.04 49.08 4.00 C 52.51 3.59 56.04 6.30 55.94 9.88 C 56.08 20.26 55.97 30.66 56.00 41.05 C 56.33 44.14 54.25 47.44 51.06 47.84 C 46.99 48.23 42.89 47.90 38.81 47.99 C 35.86 50.63 32.94 53.29 30.00 55.93 C 27.06 53.29 24.14 50.62 21.19 47.99 C 16.86 47.85 12.49 48.36 8.20 47.70 C 5.35 46.88 3.71 43.86 4.00 41.00 C 4.03 30.64 3.92 20.26 4.05 9.90 M 8.08 9.95 C 7.87 19.96 8.08 29.99 7.98 40.01 C 8.15 41.32 7.65 43.08 9.11 43.83 C 13.69 44.26 18.29 43.85 22.88 44.05 C 25.22 46.25 27.62 48.38 30.00 50.55 C 32.39 48.37 34.80 46.21 37.18 44.02 C 41.73 43.88 46.30 44.24 50.83 43.84 C 51.08 43.61 51.57 43.15 51.82 42.93 C 52.25 32.63 51.86 22.29 52.02 11.98 C 51.97 10.56 52.24 7.97 50.11 8.09 C 37.41 7.86 24.70 8.08 12.01 7.98 C 10.54 8.00 7.95 7.77 8.08 9.95 Z" />
<path fill="#000000" opacity="1.00" d=" M 28.00 12.00 C 29.34 12.00 30.67 12.00 32.00 12.00 C 32.00 13.34 32.00 14.67 32.00 16.00 C 30.66 16.00 29.33 16.00 28.00 16.00 C 28.00 14.66 28.00 13.33 28.00 12.00 Z" />
<path fill="#000000" opacity="1.00" d=" M 28.00 20.00 C 29.33 20.00 30.67 20.00 32.00 20.00 C 32.00 26.67 32.00 33.33 32.00 40.00 C 30.67 40.00 29.33 40.00 28.00 40.00 C 28.00 33.33 28.00 26.67 28.00 20.00 Z" />
</g>
</svg>
