<?xml version="1.0" encoding="UTF-8" ?>
<!DOCTYPE svg PUBLIC "-//W3C//DTD SVG 1.1//EN" "http://www.w3.org/Graphics/SVG/1.1/DTD/svg11.dtd">
<svg width="52pt" height="52pt" viewBox="0 0 52 52" version="1.1" xmlns="http://www.w3.org/2000/svg">
<g id="#000000ff">
<path fill="#000000" opacity="1.00" d=" M 11.31 8.48 C 16.43 6.26 22.10 8.65 25.59 12.62 C 28.53 9.61 32.57 6.94 36.98 7.77 C 42.24 8.25 46.70 12.74 47.13 18.00 C 47.92 23.40 44.99 28.53 41.21 32.14 C 36.60 36.62 31.29 40.31 26.84 44.97 C 25.30 46.71 23.74 44.30 22.63 43.34 C 16.98 37.33 8.97 33.34 5.27 25.66 C 2.22 19.59 4.48 10.79 11.31 8.48 M 9.99 26.06 C 14.35 31.83 20.68 35.67 25.61 40.91 C 30.08 36.24 35.47 32.57 39.84 27.82 C 42.86 24.64 44.46 19.65 42.39 15.55 C 40.23 11.29 33.94 10.30 30.48 13.57 C 28.56 14.72 27.44 17.73 24.99 17.55 C 21.82 14.50 18.05 10.08 13.09 12.02 C 7.17 13.74 6.57 21.76 9.99 26.06 Z" />
</g>
</svg>
