<?xml version="1.0" encoding="UTF-8" ?>
<!DOCTYPE svg PUBLIC "-//W3C//DTD SVG 1.1//EN" "http://www.w3.org/Graphics/SVG/1.1/DTD/svg11.dtd">
<svg width="32pt" height="32pt" viewBox="0 0 32 32" version="1.1" xmlns="http://www.w3.org/2000/svg">
<g id="#000000fc">
<path fill="#000000" opacity="1.00" d=" M 12.50 4.71 C 18.50 1.85 26.03 7.54 24.90 14.07 C 24.67 18.08 19.94 19.99 19.97 24.04 C 20.31 28.52 12.91 29.30 12.18 25.02 C 12.47 21.62 9.78 19.51 8.09 16.96 C 5.46 12.63 7.89 6.52 12.50 4.71 M 9.02 12.99 C 9.04 16.35 11.99 18.56 13.88 21.00 C 15.31 21.00 16.73 21.00 18.16 21.00 C 19.67 19.18 21.38 17.48 22.48 15.37 C 24.26 11.44 21.19 6.53 16.99 6.08 C 12.95 5.37 8.88 8.89 9.02 12.99 M 14.00 23.00 C 14.00 23.50 14.00 24.50 14.00 25.00 C 15.33 25.00 16.67 25.00 18.00 25.00 C 18.00 24.50 18.00 23.50 18.00 23.00 C 16.67 23.00 15.33 23.00 14.00 23.00 Z" />
<path fill="#000000" opacity="1.00" d=" M 5.16 6.17 C 6.78 5.64 7.34 6.19 6.84 7.82 C 5.21 8.35 4.66 7.80 5.16 6.17 Z" />
<path fill="#000000" opacity="1.00" d=" M 25.18 6.16 C 26.80 5.65 27.35 6.21 26.82 7.83 C 25.19 8.34 24.64 7.78 25.18 6.16 Z" />
<path fill="#000000" opacity="1.00" d=" M 3.17 12.16 C 4.80 11.65 5.35 12.21 4.82 13.83 C 3.20 14.34 2.65 13.79 3.17 12.16 Z" />
<path fill="#000000" opacity="1.00" d=" M 27.17 12.17 C 28.79 11.64 29.34 12.19 28.83 13.82 C 27.21 14.35 26.65 13.80 27.17 12.17 Z" />
<path fill="#000000" opacity="1.00" d=" M 5.18 18.16 C 6.81 17.65 7.36 18.21 6.82 19.83 C 5.19 20.34 4.64 19.78 5.18 18.16 Z" />
<path fill="#000000" opacity="1.00" d=" M 25.18 18.15 C 26.82 17.66 27.36 18.22 26.81 19.84 C 25.18 20.33 24.63 19.77 25.18 18.15 Z" />
</g>
</svg>
