<?xml version="1.0" encoding="UTF-8" ?>
<!DOCTYPE svg PUBLIC "-//W3C//DTD SVG 1.1//EN" "http://www.w3.org/Graphics/SVG/1.1/DTD/svg11.dtd">
<svg width="48pt" height="48pt" viewBox="0 0 48 48" version="1.1" xmlns="http://www.w3.org/2000/svg">
<g id="#000000ff">
<path fill="#000000" opacity="1.00" d=" M 9.52 5.47 C 12.51 0.73 20.19 1.07 22.83 5.99 C 25.90 10.62 22.43 17.15 17.08 17.90 C 21.44 17.63 26.80 19.04 28.26 23.70 C 29.67 28.64 28.86 33.93 28.92 39.01 C 29.04 42.53 25.39 43.67 23.50 45.94 C 22.30 45.97 21.10 46.00 19.90 46.02 C 20.07 44.24 20.16 42.45 20.22 40.66 C 21.47 40.68 22.71 40.71 23.96 40.74 C 25.56 38.47 24.90 35.59 25.03 33.00 C 24.89 30.22 25.37 27.31 24.49 24.63 C 22.90 21.41 18.98 22.05 16.02 21.94 C 12.91 21.96 8.53 21.48 7.28 25.18 C 6.80 29.93 6.83 34.77 7.20 39.52 C 8.31 40.84 10.22 40.99 11.79 40.66 C 11.88 42.44 11.87 44.24 12.12 46.02 C 10.91 46.00 9.70 45.97 8.49 45.95 C 6.88 43.77 3.57 42.95 3.21 39.92 C 2.75 35.95 3.05 31.94 3.00 27.95 C 2.99 24.66 4.27 20.92 7.39 19.37 C 9.65 17.99 12.36 17.96 14.92 17.96 C 9.35 17.12 5.88 10.07 9.52 5.47 M 14.25 6.31 C 12.07 6.98 11.61 9.83 12.31 11.72 C 13.42 15.10 19.61 14.65 19.89 10.92 C 20.90 7.60 17.26 4.90 14.25 6.31 Z" />
<path fill="#000000" opacity="1.00" d=" M 35.00 3.00 C 35.75 3.00 37.25 3.00 38.00 3.00 C 38.00 17.33 38.00 31.67 38.00 46.00 C 37.25 46.00 35.75 46.00 35.00 46.00 C 35.00 31.67 35.00 17.33 35.00 3.00 Z" />
<path fill="#000000" opacity="1.00" d=" M 41.18 5.09 C 44.16 4.01 46.07 9.26 42.81 9.92 C 39.87 11.27 38.08 6.00 41.18 5.09 Z" />
<path fill="#000000" opacity="1.00" d=" M 41.17 13.14 C 43.99 11.79 46.16 17.30 42.84 17.91 C 39.93 19.33 38.05 14.01 41.17 13.14 Z" />
<path fill="#000000" opacity="1.00" d=" M 41.16 21.14 C 43.97 19.80 46.16 25.24 42.84 25.92 C 39.93 27.30 38.04 22.03 41.16 21.14 Z" />
</g>
</svg>
