<?xml version="1.0" encoding="UTF-8" ?>
<!DOCTYPE svg PUBLIC "-//W3C//DTD SVG 1.1//EN" "http://www.w3.org/Graphics/SVG/1.1/DTD/svg11.dtd">
<svg width="147pt" height="145pt" viewBox="0 0 147 145" version="1.1" xmlns="http://www.w3.org/2000/svg">
<g id="#000000ff">
<path fill="#000000" opacity="1.00" d=" M 71.45 4.03 C 73.10 3.77 75.04 3.67 75.88 5.44 C 76.20 9.90 76.08 14.39 75.96 18.86 C 75.79 21.91 70.31 21.96 70.04 18.93 C 69.89 14.44 69.78 9.92 70.12 5.44 C 70.46 5.09 71.12 4.38 71.45 4.03 Z" />
<path fill="#000000" opacity="1.00" d=" M 28.41 21.96 C 29.45 21.96 30.48 21.97 31.52 21.98 C 34.71 25.22 37.88 28.48 41.22 31.58 C 41.43 34.03 40.19 35.99 37.70 36.37 C 34.08 32.18 29.47 28.84 26.64 23.99 C 27.09 23.48 27.97 22.47 28.41 21.96 Z" />
<path fill="#000000" opacity="1.00" d=" M 114.48 21.98 C 115.52 21.97 116.56 21.96 117.60 21.96 C 118.04 22.47 118.92 23.49 119.36 24.00 C 116.51 28.84 111.92 32.19 108.29 36.38 C 105.79 36.00 104.57 34.03 104.79 31.58 C 108.12 28.48 111.29 25.21 114.48 21.98 Z" />
<path fill="#000000" opacity="1.00" d=" M 59.53 29.14 C 64.60 27.84 69.78 26.61 75.06 26.92 C 80.08 26.84 84.73 28.91 89.48 30.21 C 99.03 34.68 106.65 42.95 110.83 52.58 C 111.32 54.51 111.87 56.42 112.43 58.33 C 113.43 65.25 113.62 72.55 111.72 79.35 C 111.40 80.37 111.08 81.39 110.79 82.42 C 107.62 89.57 102.87 95.86 97.73 101.70 C 95.32 104.09 93.08 106.65 91.16 109.46 C 88.95 116.25 90.30 123.48 90.06 130.48 C 88.86 132.08 87.96 134.11 86.08 135.06 C 84.08 136.34 81.64 135.92 79.40 136.08 C 78.44 137.06 77.48 138.04 76.53 139.02 C 74.53 139.04 72.53 139.05 70.53 139.05 C 69.13 138.04 67.72 137.05 66.33 136.04 C 64.35 136.04 62.38 136.04 60.41 136.05 C 58.77 134.24 56.69 132.51 56.13 130.02 C 55.46 123.19 57.17 116.08 54.81 109.46 C 47.95 100.70 39.43 92.98 35.22 82.44 C 32.50 75.31 32.64 67.62 33.20 60.13 C 33.63 57.41 34.54 54.78 35.81 52.34 C 35.87 51.90 36.00 51.03 36.07 50.60 C 40.11 42.39 46.81 35.85 54.57 31.15 C 55.03 31.09 55.94 30.98 56.40 30.92 C 57.44 30.32 58.48 29.73 59.53 29.14 M 65.28 33.52 C 63.22 34.09 61.23 34.84 59.33 35.81 C 58.89 35.87 58.01 35.99 57.57 36.05 C 50.47 39.97 44.47 46.03 41.24 53.52 C 40.73 55.18 40.17 56.82 39.59 58.46 C 38.45 65.35 38.50 72.62 40.22 79.43 C 42.46 83.85 44.36 88.56 47.80 92.24 C 52.49 98.04 58.13 103.16 61.23 110.08 C 69.07 109.92 76.92 109.91 84.76 110.09 C 86.70 106.68 88.44 103.06 91.26 100.27 C 97.82 93.56 103.88 85.90 106.49 76.72 C 106.93 73.67 107.12 70.58 107.37 67.51 C 107.07 64.48 107.04 61.42 106.42 58.43 C 105.83 56.82 105.28 55.20 104.79 53.56 C 100.65 43.36 91.02 36.52 80.70 33.52 C 75.62 32.62 70.36 32.66 65.28 33.52 M 61.99 116.03 C 61.97 117.87 61.96 119.71 61.95 121.55 C 62.49 122.03 63.55 122.99 64.08 123.47 C 64.02 124.42 63.97 125.36 63.91 126.31 C 63.11 127.42 62.14 128.47 61.76 129.82 C 69.17 130.28 76.62 129.95 84.05 129.94 C 84.04 129.47 84.04 128.53 84.03 128.06 C 79.20 127.93 74.37 127.96 69.54 128.03 C 68.57 127.12 67.59 126.21 66.61 125.31 C 67.17 124.22 67.32 122.81 68.44 122.10 C 73.61 121.71 78.82 122.22 84.00 121.98 C 83.98 119.97 83.97 117.96 83.95 115.96 C 76.63 116.10 69.31 115.88 61.99 116.03 Z" />
<path fill="#000000" opacity="1.00" d=" M 11.51 63.99 C 15.84 63.95 20.17 63.95 24.49 63.99 C 25.46 64.90 26.42 65.80 27.40 66.69 C 26.77 67.84 26.60 70.00 24.90 69.97 C 20.08 70.06 15.24 70.19 10.43 69.89 C 9.32 69.19 9.17 67.77 8.61 66.69 C 9.58 65.79 10.55 64.89 11.51 63.99 Z" />
<path fill="#000000" opacity="1.00" d=" M 118.71 65.24 C 124.29 63.29 130.71 63.29 136.29 65.25 C 135.97 66.86 136.25 68.92 134.57 69.88 C 129.87 70.18 125.13 70.18 120.43 69.88 C 118.74 68.93 119.02 66.86 118.71 65.24 Z" />
<path fill="#000000" opacity="1.00" d=" M 37.67 98.65 C 40.21 98.98 41.40 100.97 41.22 103.42 C 37.85 106.57 34.58 109.84 31.43 113.21 C 28.96 113.42 26.92 112.20 26.69 109.61 C 30.50 106.12 34.15 102.44 37.67 98.65 Z" />
<path fill="#000000" opacity="1.00" d=" M 104.79 103.43 C 104.58 100.98 105.80 99.01 108.29 98.62 C 111.85 102.45 115.55 106.14 119.37 109.70 C 119.00 112.20 117.02 113.42 114.58 113.22 C 111.42 109.85 108.16 106.58 104.79 103.43 Z" />
</g>
</svg>
