<?xml version="1.0" encoding="UTF-8" ?>
<!DOCTYPE svg PUBLIC "-//W3C//DTD SVG 1.1//EN" "http://www.w3.org/Graphics/SVG/1.1/DTD/svg11.dtd">
<svg width="177pt" height="100pt" viewBox="0 0 177 100" version="1.1" xmlns="http://www.w3.org/2000/svg">
<g id="#ffffffff">
</g>
<g id="#000000ff">
<path fill="#000000" opacity="1.00" d=" M 9.38 44.43 C 23.46 30.26 37.67 16.21 51.72 2.00 C 55.27 5.20 58.13 9.19 62.00 12.00 C 53.83 19.46 46.27 27.60 38.31 35.31 C 36.01 37.41 34.15 40.15 31.22 41.45 C 34.07 42.23 37.04 41.99 39.96 42.00 C 83.97 42.00 127.98 42.00 172.00 42.00 C 172.00 46.67 172.00 51.33 172.00 56.00 C 126.32 56.00 80.65 56.00 34.97 56.00 C 33.70 56.05 32.45 56.24 31.22 56.57 C 32.34 57.13 33.47 57.73 34.33 58.68 C 42.60 67.07 51.01 75.32 59.28 83.71 C 60.06 84.60 60.99 85.34 61.98 85.99 C 58.24 88.98 55.27 92.82 51.68 95.99 C 37.11 81.33 22.47 66.75 7.90 52.09 C 7.11 51.35 6.29 50.64 5.43 49.98 C 5.39 49.33 5.39 48.68 5.41 48.04 C 6.84 46.95 8.14 45.73 9.38 44.43 Z" />
</g>
</svg>
