<?xml version="1.0" encoding="UTF-8" ?>
<!DOCTYPE svg PUBLIC "-//W3C//DTD SVG 1.1//EN" "http://www.w3.org/Graphics/SVG/1.1/DTD/svg11.dtd">
<svg width="179pt" height="133pt" viewBox="0 0 179 133" version="1.1" xmlns="http://www.w3.org/2000/svg">
<g id="#ffffffff">
</g>
<g id="#000000ff">
<path fill="#000000" opacity="1.00" d=" M 8.43 64.08 C 29.63 42.93 50.72 21.66 72.00 0.59 C 75.41 3.63 78.29 7.29 81.94 10.05 C 81.50 11.70 79.95 12.64 78.87 13.84 C 64.85 27.84 50.81 41.81 36.81 55.82 C 36.13 56.61 35.10 56.92 34.21 57.41 C 36.74 58.24 39.41 57.99 42.02 58.00 C 86.34 58.00 130.67 58.00 175.00 58.00 C 175.00 62.67 175.00 67.33 175.00 72.00 C 129.31 72.00 83.62 72.01 37.94 71.99 C 36.67 72.02 35.43 72.22 34.22 72.59 C 34.89 72.92 35.56 73.26 36.21 73.63 C 51.50 88.69 66.41 104.17 81.89 119.02 L 81.64 119.99 C 78.44 123.18 75.22 126.37 72.00 129.54 C 50.76 108.38 29.52 87.21 8.42 65.92 C 8.42 65.46 8.43 64.54 8.43 64.08 Z" />
</g>
</svg>
