<?xml version="1.0" encoding="UTF-8" ?>
<!DOCTYPE svg PUBLIC "-//W3C//DTD SVG 1.1//EN" "http://www.w3.org/Graphics/SVG/1.1/DTD/svg11.dtd">
<svg width="522pt" height="521pt" viewBox="0 0 522 521" version="1.1" xmlns="http://www.w3.org/2000/svg">
<g id="#ffffffff">
<path fill="#ffffff" opacity="1.00" d=" M 241.57 6.03 C 289.77 2.26 339.01 12.55 381.60 35.47 C 419.43 55.68 451.95 85.65 475.37 121.57 C 510.54 175.08 524.10 242.13 512.86 305.12 C 505.81 346.31 488.24 385.60 462.45 418.47 C 440.64 446.11 413.33 469.52 382.24 486.15 C 323.19 518.35 251.24 525.40 186.95 505.79 C 148.39 494.18 112.62 473.25 83.72 445.18 C 43.53 406.85 16.49 354.96 8.29 300.00 C -0.20 245.99 9.31 189.30 35.10 141.06 C 57.70 98.45 92.66 62.53 134.56 38.67 C 167.22 20.02 204.07 8.80 241.57 6.03 M 202.34 144.33 C 190.91 156.46 183.26 172.30 181.38 188.88 C 176.98 219.39 192.57 251.45 218.86 267.38 C 179.09 279.20 145.70 310.16 130.54 348.75 C 123.86 365.45 120.69 383.43 120.62 401.38 C 214.24 401.31 307.85 401.30 401.47 401.38 C 400.63 394.71 401.04 387.94 399.86 381.31 C 398.37 369.95 395.45 358.76 391.12 348.14 C 375.89 309.84 342.61 279.22 303.11 267.40 C 324.31 253.85 339.49 230.36 340.93 205.01 C 341.83 199.98 340.99 194.92 340.65 189.89 C 337.27 153.50 305.56 122.09 269.09 119.27 C 244.52 116.15 219.02 126.17 202.34 144.33 Z" />
</g>
</svg>
