<?xml version="1.0" encoding="UTF-8" ?>
<!DOCTYPE svg PUBLIC "-//W3C//DTD SVG 1.1//EN" "http://www.w3.org/Graphics/SVG/1.1/DTD/svg11.dtd">
<svg width="800pt" height="800pt" viewBox="0 0 800 800" version="1.1" xmlns="http://www.w3.org/2000/svg">
<g id="#000000ff">
<path fill="#000000" opacity="1.00" d=" M 261.87 8.51 C 307.06 2.28 353.71 6.39 397.01 20.83 C 441.79 35.67 482.85 61.48 515.77 95.25 C 540.02 120.05 559.90 149.12 574.16 180.74 C 605.53 249.70 608.87 330.80 583.35 402.12 C 572.40 432.96 556.37 461.99 536.00 487.61 C 544.72 496.55 553.66 505.30 562.46 514.17 C 579.57 504.84 601.58 505.33 618.04 515.87 C 624.99 520.07 630.32 526.30 636.11 531.88 C 676.91 572.41 717.71 612.94 758.52 653.47 C 765.52 660.55 773.35 667.17 777.85 676.26 C 788.49 695.95 785.54 721.92 770.63 738.63 C 764.03 745.69 757.01 752.33 750.24 759.23 C 744.48 764.80 739.22 771.02 732.38 775.33 C 716.95 785.47 696.38 787.05 679.56 779.44 C 672.72 776.45 666.60 771.95 661.45 766.56 C 618.27 723.07 575.07 679.59 531.88 636.11 C 525.81 629.87 519.08 624.04 514.79 616.34 C 505.14 600.19 504.37 579.12 513.22 562.46 C 504.39 553.64 495.57 544.81 486.74 535.99 C 459.27 557.63 428.09 574.60 394.86 585.57 C 321.85 609.99 239.38 603.85 170.61 569.35 C 139.92 554.09 111.94 533.45 88.24 508.70 C 52.35 471.32 26.47 424.41 14.21 374.04 C 2.28 325.27 2.88 273.47 16.02 225.00 C 31.56 167.19 65.27 114.52 111.02 75.94 C 153.57 39.80 206.53 16.05 261.87 8.51 M 278.51 61.84 C 227.66 66.80 178.69 88.59 140.83 122.87 C 102.98 156.84 76.20 202.97 65.83 252.78 C 56.04 299.15 60.07 348.39 77.64 392.43 C 94.71 435.62 124.59 473.60 162.43 500.52 C 194.15 523.19 231.44 538.02 270.09 543.22 C 313.75 549.19 359.03 543.12 399.45 525.50 C 454.65 501.72 500.22 456.59 524.54 401.63 C 542.37 361.83 548.94 317.15 543.70 273.88 C 539.22 236.05 525.55 199.38 504.25 167.81 C 478.26 129.11 440.91 98.15 397.99 79.93 C 360.55 63.89 319.02 57.74 278.51 61.84 Z" />
<path fill="#000000" opacity="1.00" d=" M 273.67 150.54 C 293.87 150.52 314.06 150.52 334.26 150.54 C 334.28 191.27 334.26 232.00 334.27 272.73 C 374.36 272.74 414.45 272.73 454.54 272.73 C 454.57 292.93 454.57 313.13 454.54 333.34 C 414.45 333.33 374.36 333.33 334.27 333.34 C 334.26 373.40 334.27 413.47 334.27 453.54 C 314.07 453.57 293.86 453.57 273.66 453.54 C 273.67 413.48 273.67 373.41 273.66 333.34 C 232.95 333.32 192.25 333.35 151.54 333.33 C 151.52 313.13 151.52 292.94 151.54 272.74 C 192.25 272.72 232.95 272.74 273.66 272.73 C 273.67 232.00 273.66 191.27 273.67 150.54 Z" />
</g>
</svg>
