<?xml version="1.0" encoding="UTF-8" ?>
<!DOCTYPE svg PUBLIC "-//W3C//DTD SVG 1.1//EN" "http://www.w3.org/Graphics/SVG/1.1/DTD/svg11.dtd">
<svg width="177pt" height="141pt" viewBox="0 0 177 141" version="1.1" xmlns="http://www.w3.org/2000/svg">
<g id="#ffffffff">
</g>
<g id="#607d8bff">
<path fill="#607d8b" opacity="1.00" d=" M 4.01 4.63 C 60.00 4.62 116.00 4.62 171.99 4.63 C 172.00 10.88 172.00 17.12 171.99 23.37 C 116.00 23.38 60.00 23.38 4.01 23.37 C 3.99 17.12 4.00 10.88 4.01 4.63 Z" />
<path fill="#607d8b" opacity="1.00" d=" M 4.01 60.63 C 60.00 60.62 116.00 60.62 171.99 60.63 C 172.00 66.87 172.00 73.12 171.99 79.37 C 116.00 79.38 60.00 79.38 4.01 79.37 C 3.99 73.12 4.00 66.88 4.01 60.63 Z" />
<path fill="#607d8b" opacity="1.00" d=" M 4.01 116.62 C 60.00 116.62 116.00 116.62 171.99 116.63 C 172.00 122.87 172.00 129.12 171.99 135.37 C 116.00 135.38 60.00 135.38 4.01 135.37 C 4.00 129.12 3.99 122.87 4.01 116.62 Z" />
</g>
</svg>
