<?xml version="1.0" encoding="UTF-8" ?>
<!DOCTYPE svg PUBLIC "-//W3C//DTD SVG 1.1//EN" "http://www.w3.org/Graphics/SVG/1.1/DTD/svg11.dtd">
<svg width="800pt" height="800pt" viewBox="0 0 800 800" version="1.1" xmlns="http://www.w3.org/2000/svg">
<g id="#000000ff">
<path fill="#000000" opacity="1.00" d=" M 251.93 10.06 C 298.87 1.96 347.77 5.13 393.18 19.59 C 438.76 34.00 480.67 59.75 514.29 93.74 C 538.70 118.36 558.78 147.27 573.26 178.77 C 605.00 247.20 609.03 327.85 584.40 399.12 C 573.44 431.08 557.01 461.17 535.99 487.62 C 544.74 496.55 553.65 505.30 562.45 514.17 C 578.95 505.20 600.01 505.27 616.25 514.79 C 624.02 519.05 629.87 525.81 636.13 531.91 C 677.43 572.93 718.73 613.95 760.03 654.97 C 765.85 660.84 772.23 666.37 776.38 673.64 C 786.78 690.73 786.81 713.46 776.46 730.58 C 772.35 737.81 766.04 743.34 760.27 749.20 C 756.60 752.87 752.93 756.53 749.27 760.20 C 743.37 766.01 737.80 772.37 730.50 776.50 C 713.39 786.81 690.71 786.76 673.65 776.38 C 666.38 772.23 660.85 765.85 654.97 760.04 C 615.28 720.07 575.59 680.11 535.90 640.15 C 529.59 633.46 522.41 627.50 517.09 619.95 C 505.35 603.37 503.73 580.38 513.19 562.37 C 504.31 553.64 495.58 544.76 486.73 535.99 C 459.46 557.48 428.52 574.36 395.56 585.33 C 323.58 609.62 242.30 604.17 174.00 571.01 C 143.08 556.12 114.80 535.80 90.77 511.31 C 55.08 475.02 28.91 429.44 15.80 380.24 C 3.22 333.31 2.38 283.30 13.28 235.96 C 26.43 178.32 57.48 125.01 100.89 84.91 C 142.61 46.09 195.73 19.67 251.93 10.06 M 278.62 61.83 C 258.41 63.85 238.46 68.42 219.40 75.43 C 171.79 92.83 130.06 125.70 101.82 167.78 C 75.56 206.58 61.08 253.17 60.64 300.01 C 59.97 345.19 72.29 390.47 95.89 429.01 C 126.70 479.88 176.84 518.68 233.93 535.45 C 279.35 548.96 328.73 548.77 374.03 534.87 C 407.24 524.74 438.17 507.28 464.09 484.19 C 489.04 462.02 509.36 434.66 523.32 404.34 C 539.90 368.46 547.35 328.47 545.04 289.02 C 542.86 249.55 530.75 210.68 510.11 176.96 C 484.95 135.58 447.12 102.04 402.97 82.12 C 364.28 64.50 320.89 57.56 278.62 61.83 Z" />
<path fill="#000000" opacity="1.00" d=" M 151.54 272.74 C 252.53 272.72 353.53 272.74 454.53 272.73 C 454.60 292.93 454.56 313.13 454.55 333.33 C 353.54 333.33 252.54 333.34 151.54 333.33 C 151.53 313.13 151.52 292.94 151.54 272.74 Z" />
</g>
</svg>
