<?xml version="1.0" encoding="UTF-8" ?>
<!DOCTYPE svg PUBLIC "-//W3C//DTD SVG 1.1//EN" "http://www.w3.org/Graphics/SVG/1.1/DTD/svg11.dtd">
<svg width="104pt" height="104pt" viewBox="0 0 104 104" version="1.1" xmlns="http://www.w3.org/2000/svg">
<g id="#ffffffff">
<path fill="#ffffff" opacity="1.00" d=" M 14.39 9.23 C 15.95 8.77 16.78 10.39 17.78 11.23 C 23.36 16.97 29.13 22.51 34.68 28.27 C 35.39 23.97 35.01 19.64 34.78 15.31 C 37.74 15.01 40.71 14.79 43.69 14.81 C 44.10 18.52 44.20 22.26 44.20 26.00 C 43.55 31.89 44.18 37.78 44.18 43.68 C 38.14 44.65 32.07 43.68 26.00 43.78 C 22.26 43.99 18.49 44.36 14.77 43.68 C 14.95 40.83 15.17 37.99 15.19 35.13 C 19.60 35.28 24.00 34.89 28.40 34.70 C 22.33 29.08 16.68 23.02 10.73 17.28 C 10.04 16.48 8.72 15.65 9.24 14.40 C 10.78 12.52 12.51 10.77 14.39 9.23 Z" />
<path fill="#ffffff" opacity="1.00" d=" M 88.42 9.20 C 91.25 9.28 92.75 12.69 94.77 14.35 C 88.61 21.69 80.91 27.76 74.76 35.17 C 79.10 35.01 83.43 34.75 87.76 34.85 C 87.90 37.97 87.89 41.09 87.77 44.20 C 81.52 43.45 75.25 44.43 68.99 43.80 C 65.61 44.00 62.23 43.78 58.85 43.76 C 58.69 38.17 59.15 32.59 59.19 27.00 C 59.08 22.95 58.55 18.88 59.29 14.85 C 62.11 14.86 64.94 14.86 67.77 14.85 C 67.94 19.32 67.80 23.80 67.90 28.27 C 69.15 27.84 70.36 27.29 71.25 26.27 C 77.02 20.62 82.55 14.73 88.42 9.20 Z" />
<path fill="#ffffff" opacity="1.00" d=" M 15.23 58.82 C 19.80 59.33 24.41 59.09 29.00 59.15 C 33.75 59.35 38.48 58.85 43.22 58.87 C 44.95 60.39 43.86 63.03 44.16 65.05 C 43.61 71.37 44.28 77.69 44.16 84.02 C 44.02 85.30 43.88 86.58 43.75 87.86 C 40.77 88.30 37.75 88.14 34.78 87.70 C 35.35 83.37 35.21 78.99 34.64 74.67 C 28.09 81.54 21.34 88.22 14.54 94.85 C 12.41 93.00 10.02 91.15 8.89 88.48 C 15.87 81.92 22.34 74.83 29.38 68.34 C 27.26 68.20 25.14 68.05 23.02 67.85 C 20.43 68.13 17.83 68.18 15.23 68.17 C 15.11 65.06 15.11 61.94 15.23 58.82 Z" />
<path fill="#ffffff" opacity="1.00" d=" M 58.79 63.99 C 59.03 62.22 58.01 58.60 60.88 58.85 C 69.28 59.07 77.69 59.24 86.07 58.87 C 86.60 59.02 87.64 59.31 88.16 59.46 C 88.13 62.20 88.14 64.95 88.15 67.69 C 83.65 68.30 79.11 68.07 74.59 68.26 C 80.46 73.76 85.98 79.63 91.77 85.23 C 92.92 86.42 94.25 87.50 95.05 88.99 C 93.68 91.25 91.63 93.03 89.63 94.72 C 88.17 95.43 87.22 93.49 86.22 92.77 C 80.33 86.66 74.12 80.86 68.34 74.64 C 67.73 79.15 67.90 83.69 67.76 88.22 C 64.91 88.05 62.06 87.82 59.20 87.83 C 58.26 79.89 59.75 71.92 58.79 63.99 Z" />
</g>
</svg>
