<?xml version="1.0" encoding="UTF-8" ?>
<!DOCTYPE svg PUBLIC "-//W3C//DTD SVG 1.1//EN" "http://www.w3.org/Graphics/SVG/1.1/DTD/svg11.dtd">
<svg width="59pt" height="60pt" viewBox="0 0 59 60" version="1.1" xmlns="http://www.w3.org/2000/svg">
<g id="#fefefeff">
</g>
<g id="#666666ff">
<path fill="#666666" opacity="1.00" d=" M 2.33 3.33 C 9.02 3.39 15.71 3.26 22.40 3.40 C 22.36 5.63 22.33 7.86 22.30 10.08 C 17.85 9.94 13.40 9.99 8.95 10.12 C 9.11 23.43 8.79 36.75 9.11 50.06 C 22.39 49.92 35.68 50.03 48.97 49.95 C 49.21 45.53 48.90 41.11 48.93 36.69 C 51.16 36.67 53.39 36.64 55.62 36.62 C 55.71 43.30 55.63 49.98 55.67 56.67 C 37.89 56.65 20.11 56.65 2.33 56.67 C 2.35 38.89 2.35 21.11 2.33 3.33 Z" />
<path fill="#666666" opacity="1.00" d=" M 30.42 3.33 C 38.84 3.35 47.25 3.34 55.67 3.33 C 55.66 11.74 55.64 20.15 55.68 28.55 C 52.42 25.49 49.34 22.24 46.15 19.11 C 41.48 23.91 36.69 28.59 31.98 33.35 C 29.85 31.24 27.74 29.12 25.61 27.01 C 30.41 22.32 35.08 17.51 39.89 12.83 C 36.73 9.66 33.53 6.55 30.42 3.33 Z" />
</g>
</svg>
