<?xml version="1.0" encoding="UTF-8" ?>
<!DOCTYPE svg PUBLIC "-//W3C//DTD SVG 1.1//EN" "http://www.w3.org/Graphics/SVG/1.1/DTD/svg11.dtd">
<svg width="207pt" height="244pt" viewBox="0 0 207 244" version="1.1" xmlns="http://www.w3.org/2000/svg">
<g id="#ffffffff">
</g>
<g id="#010101ff">
<path fill="#010101" opacity="1.00" d=" M 56.41 17.32 C 68.30 7.59 83.62 2.18 98.99 2.27 C 114.11 2.18 129.19 7.41 141.01 16.85 C 153.87 26.97 162.77 41.97 165.50 58.10 C 166.88 65.60 166.43 73.26 166.48 80.84 C 176.81 81.04 186.52 88.68 188.51 98.92 C 189.59 105.89 188.75 112.98 189.05 120.00 C 188.82 141.33 189.12 162.66 188.93 183.99 C 188.81 195.02 189.35 206.05 188.92 217.07 C 188.66 226.66 181.38 235.43 172.13 237.76 C 168.81 238.68 165.33 238.49 161.93 238.51 C 118.30 238.48 74.67 238.53 31.04 238.48 C 19.99 238.47 9.88 229.08 9.15 218.04 C 8.54 208.02 9.42 197.98 8.93 187.96 C 9.10 159.65 8.95 131.33 9.03 103.03 C 9.01 91.18 19.67 80.86 31.46 80.95 C 31.64 73.79 31.11 66.58 32.27 59.48 C 34.70 43.07 43.49 27.71 56.41 17.32 M 73.91 31.96 C 62.11 39.49 54.60 53.04 54.12 66.99 C 54.06 71.61 53.91 76.23 53.91 80.86 C 67.27 81.36 80.64 80.66 94.00 81.05 C 110.70 80.63 127.40 81.35 144.09 80.88 C 143.78 72.93 144.60 64.80 142.33 57.07 C 139.23 45.39 131.03 35.19 120.25 29.74 C 105.84 22.39 87.52 23.12 73.91 31.96 M 31.47 103.51 C 31.55 141.04 31.45 178.57 31.52 216.10 C 76.52 215.80 121.52 216.20 166.52 215.89 C 166.49 178.43 166.48 140.96 166.53 103.50 C 121.51 103.50 76.49 103.49 31.47 103.51 Z" />
<path fill="#010101" opacity="1.00" d=" M 89.46 115.76 C 102.31 112.91 116.33 116.09 126.67 124.25 C 138.12 133.04 144.84 147.62 143.89 162.05 C 143.33 181.35 128.65 199.01 109.91 203.41 C 95.64 207.06 79.69 203.15 68.85 193.14 C 58.76 184.17 53.14 170.46 54.13 156.98 C 54.89 137.36 70.24 119.62 89.46 115.76 M 92.97 138.06 C 83.69 140.48 76.65 149.43 76.50 159.02 C 76.03 168.49 82.30 177.72 91.21 180.88 C 100.13 184.31 110.99 181.21 116.75 173.59 C 121.32 167.95 122.46 160.18 120.68 153.25 C 118.58 156.19 115.88 159.13 112.08 159.59 C 105.33 160.97 98.41 154.84 99.07 147.96 C 99.00 143.65 102.16 140.35 105.44 138.01 C 101.33 137.29 97.03 136.81 92.97 138.06 Z" />
</g>
</svg>
