<?xml version="1.0" encoding="UTF-8" ?>
<!DOCTYPE svg PUBLIC "-//W3C//DTD SVG 1.1//EN" "http://www.w3.org/Graphics/SVG/1.1/DTD/svg11.dtd">
<svg width="150pt" height="150pt" viewBox="0 0 150 150" version="1.1" xmlns="http://www.w3.org/2000/svg">
<g id="#000000ff">
<path fill="#000000" opacity="1.00" d=" M 64.52 5.86 C 73.91 3.62 83.58 4.99 92.81 7.28 C 110.71 12.01 126.44 24.12 135.84 40.05 C 144.75 54.91 147.84 73.20 143.96 90.12 C 138.25 116.41 116.34 138.29 90.05 143.97 C 73.67 147.71 56.01 144.91 41.44 136.63 C 27.15 128.62 15.75 115.60 9.76 100.35 C 6.54 92.29 5.13 83.61 4.60 74.99 C 5.29 64.20 7.62 53.35 12.71 43.73 C 22.82 23.97 42.52 9.27 64.52 5.86 M 69.27 20.37 C 53.77 21.86 39.03 30.26 30.11 43.07 C 20.12 57.07 17.53 75.77 22.56 92.12 C 26.60 105.48 36.05 117.08 48.32 123.73 C 60.60 130.47 75.43 132.23 89.01 128.87 C 100.92 126.03 111.75 118.96 119.18 109.22 C 128.81 96.85 132.44 80.26 129.59 64.92 C 127.13 50.89 118.91 37.99 107.19 29.89 C 96.26 22.20 82.51 19.01 69.27 20.37 Z" />
<path fill="#000000" opacity="1.00" d=" M 69.57 30.83 C 77.33 29.06 86.12 30.43 92.25 35.74 C 97.80 40.65 101.86 47.56 102.41 55.03 C 102.84 60.95 100.29 66.90 95.86 70.82 C 91.80 74.68 86.24 77.34 83.86 82.69 C 82.38 85.72 83.48 89.55 81.31 92.30 C 78.22 96.32 71.12 95.96 68.69 91.41 C 66.64 87.26 67.90 82.08 70.50 78.43 C 73.84 72.81 79.81 69.81 84.36 65.37 C 89.36 60.51 89.89 51.38 84.33 46.72 C 77.69 40.50 65.24 44.19 62.98 52.98 C 61.56 56.93 62.15 62.69 57.47 64.52 C 53.58 66.29 49.20 63.08 48.89 59.03 C 48.51 54.39 49.82 49.71 51.48 45.41 C 54.51 37.81 61.88 32.84 69.57 30.83 Z" />
<path fill="#000000" opacity="1.00" d=" M 71.41 106.50 C 76.10 103.27 83.18 107.41 82.84 113.04 C 83.08 118.88 75.52 122.78 70.93 119.10 C 66.48 116.23 66.80 109.05 71.41 106.50 Z" />
</g>
</svg>
