<?xml version="1.0" encoding="UTF-8" ?>
<!DOCTYPE svg PUBLIC "-//W3C//DTD SVG 1.1//EN" "http://www.w3.org/Graphics/SVG/1.1/DTD/svg11.dtd">
<svg width="209pt" height="200pt" viewBox="0 0 209 200" version="1.1" xmlns="http://www.w3.org/2000/svg">
<g id="#ffffffff">
</g>
<g id="#000000ff">
<path fill="#000000" opacity="1.00" d=" M 97.62 5.11 C 108.16 4.92 119.20 6.75 127.91 13.05 C 136.19 19.04 141.71 28.76 142.23 39.01 C 142.72 49.76 140.31 60.42 137.14 70.63 C 151.40 70.68 165.68 70.50 179.94 70.71 C 189.65 70.75 198.30 79.37 198.34 89.07 C 198.43 96.39 198.35 103.70 198.38 111.01 C 198.43 113.69 197.93 116.38 196.70 118.78 C 186.85 138.24 177.10 157.75 167.23 177.21 C 165.22 181.27 163.16 185.63 159.30 188.27 C 155.55 191.22 150.67 192.09 146.01 192.01 C 119.97 191.97 93.94 192.04 67.91 191.98 C 60.82 191.99 53.74 187.77 50.86 181.21 C 49.21 178.09 48.99 174.50 48.99 171.04 C 49.01 142.67 48.99 114.31 49.00 85.94 C 49.06 83.00 49.23 79.97 50.50 77.26 C 52.38 72.29 56.87 69.09 60.77 65.77 C 70.23 57.64 79.94 49.70 89.25 41.47 C 92.30 29.42 94.80 17.22 97.62 5.11 M 112.01 26.01 C 110.22 34.05 108.33 42.08 106.55 50.12 C 106.44 51.25 105.79 52.18 104.90 52.84 C 92.41 63.13 80.35 73.95 67.76 84.11 C 67.57 113.86 67.75 143.62 67.68 173.38 C 94.52 173.38 121.37 173.35 148.22 173.40 C 158.44 153.47 168.33 133.38 178.52 113.43 C 179.02 112.34 179.76 111.27 179.68 110.02 C 179.70 103.14 179.69 96.27 179.67 89.40 C 156.27 89.30 132.88 89.48 109.49 89.31 C 115.05 77.39 119.66 64.97 122.35 52.07 C 123.40 46.97 124.12 41.67 123.23 36.49 C 122.20 31.06 117.25 27.08 112.01 26.01 Z" />
<path fill="#000000" opacity="1.00" d=" M 11.67 70.62 C 17.91 70.63 24.14 70.62 30.37 70.63 C 30.38 111.08 30.38 151.54 30.38 192.00 C 24.12 192.00 17.87 192.00 11.62 192.00 C 11.77 151.54 11.64 111.08 11.67 70.62 Z" />
</g>
</svg>
