<?xml version="1.0" encoding="UTF-8" ?>
<!DOCTYPE svg PUBLIC "-//W3C//DTD SVG 1.1//EN" "http://www.w3.org/Graphics/SVG/1.1/DTD/svg11.dtd">
<svg width="214pt" height="279pt" viewBox="0 0 214 279" version="1.1" xmlns="http://www.w3.org/2000/svg">
<g id="#fafafaff">
</g>
<g id="#010101ff">
<path fill="#010101" opacity="1.00" d=" M 56.14 8.15 C 57.04 6.95 58.58 6.72 59.99 6.74 C 90.34 6.74 120.69 6.74 151.04 6.74 C 152.41 6.78 153.77 6.88 155.13 7.03 C 162.75 14.48 170.29 22.01 177.66 29.70 C 184.88 30.11 192.91 28.44 199.31 32.74 C 204.92 35.99 207.85 42.65 207.63 49.00 C 207.62 117.70 207.66 186.41 207.62 255.12 C 207.98 264.69 199.65 273.58 190.00 273.47 C 134.34 273.54 78.67 273.49 23.00 273.50 C 16.43 273.75 9.82 270.02 6.87 264.11 C 5.17 261.02 4.70 257.44 4.72 253.96 C 4.74 185.63 4.73 117.31 4.73 48.98 C 4.39 41.98 8.24 34.75 14.66 31.72 C 20.82 28.48 27.99 30.18 34.64 29.74 C 41.74 22.47 48.87 15.23 56.14 8.15 M 66.69 13.23 C 79.77 26.57 93.13 39.64 106.20 52.99 C 119.26 39.63 132.61 26.57 145.69 13.25 C 119.36 13.25 93.02 13.28 66.69 13.23 M 40.58 33.02 C 55.09 47.47 69.02 62.48 83.45 77.01 C 89.33 70.61 95.32 64.32 101.26 57.98 C 87.15 43.51 72.90 29.17 58.76 14.74 C 52.73 20.87 46.47 26.77 40.58 33.02 M 153.61 14.77 C 139.94 29.68 126.07 44.41 112.38 59.31 C 117.95 65.16 123.45 71.07 128.96 76.97 C 143.29 62.37 157.42 47.56 171.77 32.98 C 165.79 26.83 159.71 20.79 153.61 14.77 M 21.25 36.39 C 15.63 37.07 11.09 42.36 11.27 48.02 C 11.22 117.03 11.25 186.04 11.25 255.05 C 10.81 261.51 16.57 267.16 22.96 266.98 C 49.62 267.02 76.28 267.00 102.94 266.99 C 102.91 199.90 102.90 132.80 102.94 65.71 C 97.88 71.06 92.88 76.48 87.76 81.76 C 86.09 83.66 83.10 84.50 80.86 83.14 C 78.63 81.74 77.02 79.60 75.16 77.78 C 61.66 63.99 48.24 50.12 34.81 36.25 C 30.29 36.33 25.76 36.05 21.25 36.39 M 177.48 36.44 C 164.14 50.10 150.81 63.80 137.49 77.49 C 135.28 79.61 133.47 82.38 130.55 83.59 C 128.02 84.45 125.53 82.95 123.90 81.10 C 119.13 75.94 114.28 70.85 109.41 65.78 C 109.47 132.83 109.47 199.88 109.41 266.93 C 136.28 267.10 163.16 266.94 190.04 267.02 C 196.33 267.29 201.53 261.07 201.11 254.98 C 201.13 186.31 201.11 117.65 201.12 48.98 C 201.49 44.30 199.06 39.31 194.60 37.45 C 189.21 35.32 183.12 36.40 177.48 36.44 Z" />
<path fill="#010101" opacity="1.00" d=" M 81.37 109.43 C 84.14 107.56 88.33 109.54 88.75 112.83 C 89.70 116.58 85.23 120.17 81.80 118.30 C 78.23 116.82 77.92 111.23 81.37 109.43 Z" />
<path fill="#010101" opacity="1.00" d=" M 81.44 171.61 C 85.02 169.64 90.14 173.61 88.59 177.59 C 87.61 180.93 82.84 182.26 80.45 179.59 C 78.00 177.47 78.62 173.13 81.44 171.61 Z" />
<path fill="#010101" opacity="1.00" d=" M 81.27 234.23 C 84.58 231.86 89.46 235.13 88.82 239.06 C 88.60 242.90 83.39 245.04 80.61 242.26 C 78.06 240.20 78.47 235.87 81.27 234.23 Z" />
</g>
</svg>
