<?xml version="1.0" encoding="UTF-8" ?>
<!DOCTYPE svg PUBLIC "-//W3C//DTD SVG 1.1//EN" "http://www.w3.org/Graphics/SVG/1.1/DTD/svg11.dtd">
<svg width="119pt" height="104pt" viewBox="0 0 119 104" version="1.1" xmlns="http://www.w3.org/2000/svg">
<g id="#adb5bdff">
<path fill="#adb5bd" opacity="1.00" d=" M 28.57 11.64 C 52.11 -1.85 84.83 1.31 104.06 20.93 C 113.92 30.71 118.45 45.92 114.15 59.31 C 109.17 75.46 94.18 86.74 78.35 91.09 C 69.14 93.37 59.40 94.64 50.01 92.67 C 46.64 92.22 43.43 90.90 40.04 90.57 C 30.82 96.32 20.26 100.66 9.24 100.59 C 6.52 100.81 5.25 98.14 4.51 95.99 C 4.86 93.88 6.22 92.13 7.53 90.49 C 11.16 86.18 14.35 81.37 16.11 75.98 C 13.53 72.22 10.37 68.83 8.51 64.62 C 5.31 57.61 3.58 49.62 5.35 41.99 C 7.44 28.75 17.36 18.20 28.57 11.64 M 23.01 28.00 C 16.93 33.91 13.68 42.60 14.53 51.04 C 15.20 60.22 21.32 67.57 27.46 73.89 C 25.75 79.05 23.26 83.88 21.17 88.88 C 27.52 87.21 32.91 83.43 38.27 79.82 C 44.22 81.47 50.16 83.55 56.40 83.57 C 70.70 84.62 85.76 80.37 96.27 70.33 C 102.62 64.35 106.35 55.75 106.27 47.03 C 105.44 41.08 103.56 35.10 99.62 30.44 C 89.87 18.14 73.50 12.62 58.16 13.36 C 45.22 13.59 31.93 18.39 23.01 28.00 Z" />
</g>
</svg>
