<?xml version="1.0" encoding="UTF-8" ?>
<!DOCTYPE svg PUBLIC "-//W3C//DTD SVG 1.1//EN" "http://www.w3.org/Graphics/SVG/1.1/DTD/svg11.dtd">
<svg width="154pt" height="137pt" viewBox="0 0 154 137" version="1.1" xmlns="http://www.w3.org/2000/svg">
<g id="#000000ff">
<path fill="#000000" opacity="1.00" d=" M 33.07 3.21 C 34.87 2.19 36.72 0.93 38.89 1.01 C 64.64 0.99 90.39 1.00 116.14 1.00 C 119.11 0.78 121.06 3.32 123.38 4.70 C 132.24 9.84 141.12 14.96 149.96 20.14 C 153.55 22.05 152.93 26.61 152.97 30.01 C 152.70 35.99 153.85 42.39 151.03 47.94 C 149.62 51.10 146.90 53.34 144.41 55.63 C 144.36 78.76 144.38 101.89 144.40 125.01 C 144.32 127.82 144.82 130.86 143.35 133.41 C 142.34 135.24 140.08 135.98 138.10 135.96 C 97.36 135.94 56.61 135.94 15.87 135.96 C 12.46 136.27 9.58 133.33 9.66 129.96 C 9.53 105.18 9.69 80.40 9.58 55.62 C 6.91 53.19 4.00 50.75 2.68 47.27 C 0.16 41.87 1.30 35.79 1.04 30.05 C 1.10 26.83 0.38 22.72 3.42 20.56 C 13.21 14.63 23.25 9.11 33.07 3.21 M 13.26 28.85 C 13.40 33.08 12.92 37.37 13.56 41.57 C 14.60 44.66 17.66 47.30 21.03 47.24 C 24.53 47.29 28.20 44.74 28.63 41.13 C 29.05 39.20 29.07 37.03 30.43 35.45 C 32.47 32.79 36.84 32.39 39.14 34.96 C 42.26 37.34 40.30 42.19 43.41 44.61 C 46.32 48.34 52.53 47.92 55.29 44.24 C 57.44 41.77 56.28 37.97 58.41 35.47 C 60.42 32.80 64.75 32.40 67.07 34.90 C 70.01 37.31 68.59 41.62 70.66 44.51 C 73.70 48.47 80.36 48.46 83.37 44.48 C 85.31 41.79 84.17 37.94 86.42 35.43 C 88.62 32.58 93.38 32.63 95.59 35.44 C 97.86 37.95 96.58 41.83 98.64 44.47 C 101.18 47.89 106.51 48.47 109.87 45.89 C 112.53 44.23 112.57 40.80 113.04 38.06 C 113.79 33.96 119.29 31.63 122.59 34.48 C 126.10 36.88 124.20 41.94 127.11 44.72 C 129.85 47.76 135.21 48.21 138.08 45.10 C 142.67 41.04 140.03 34.27 140.78 28.96 C 132.20 23.95 123.58 19.01 115.03 13.94 C 113.79 13.30 112.58 12.30 111.09 12.48 C 88.00 12.56 64.90 12.42 41.82 12.55 C 32.12 17.61 22.88 23.60 13.26 28.85 M 21.81 59.54 C 21.88 80.98 21.83 102.43 21.84 123.87 C 37.22 123.88 52.59 123.76 67.97 123.74 C 67.93 109.15 67.95 94.56 67.95 79.96 C 67.59 76.15 71.03 72.29 74.95 72.72 C 88.32 72.85 101.66 72.86 115.03 72.74 C 118.50 72.36 121.73 75.59 121.60 79.03 C 121.63 93.98 121.64 108.93 121.59 123.88 C 125.11 124.05 128.64 124.03 132.17 123.85 C 132.16 102.40 132.14 80.95 132.18 59.51 C 127.35 59.06 122.82 57.14 119.06 54.10 C 115.36 57.08 110.94 59.53 106.08 59.68 C 100.58 60.08 95.18 57.78 91.02 54.28 C 87.07 57.52 82.12 59.86 76.92 59.73 C 71.72 59.80 66.75 57.46 62.86 54.12 C 60.43 55.82 58.01 57.64 55.12 58.46 C 48.24 60.86 39.89 58.89 35.06 53.36 C 31.96 57.41 26.66 58.92 21.81 59.54 M 80.24 85.05 C 80.26 97.99 80.32 110.94 80.21 123.89 C 89.94 123.87 99.67 123.96 109.41 123.86 C 109.35 110.92 109.39 97.98 109.39 85.04 C 99.67 85.02 89.96 85.03 80.24 85.05 Z" />
</g>
</svg>
