<?xml version="1.0" encoding="UTF-8" ?>
<!DOCTYPE svg PUBLIC "-//W3C//DTD SVG 1.1//EN" "http://www.w3.org/Graphics/SVG/1.1/DTD/svg11.dtd">
<svg width="150pt" height="148pt" viewBox="0 0 150 148" version="1.1" xmlns="http://www.w3.org/2000/svg">
<g id="#000000ff">
<path fill="#000000" opacity="1.00" d=" M 36.32 0.00 L 114.27 0.00 C 115.86 1.02 117.93 2.07 117.98 4.25 C 118.43 8.44 118.09 12.66 118.12 16.87 C 127.37 22.34 136.68 27.70 145.99 33.07 C 147.60 33.97 148.92 35.29 150.00 36.78 L 150.00 55.01 C 149.07 60.52 145.72 65.14 141.39 68.51 C 141.36 93.01 141.41 117.52 141.38 142.02 C 141.70 144.58 140.16 146.62 138.16 148.00 L 12.04 148.00 C 9.84 146.78 8.33 144.59 8.62 142.00 C 8.59 117.50 8.64 93.00 8.60 68.49 C 4.41 65.27 1.28 60.83 0.00 55.66 L 0.00 37.08 C 1.55 33.87 5.01 32.58 7.87 30.85 C 16.13 26.08 24.39 21.29 32.63 16.47 C 32.67 12.32 32.35 8.16 32.81 4.04 C 32.93 2.03 34.98 1.12 36.32 0.00 M 42.84 10.24 C 42.84 11.25 42.85 13.26 42.85 14.27 C 64.52 14.26 86.19 14.25 107.86 14.28 C 107.84 13.26 107.82 11.22 107.80 10.20 C 86.15 10.32 64.50 10.25 42.84 10.24 M 37.57 25.48 C 28.51 30.80 19.43 36.09 10.31 41.32 C 10.42 45.91 9.77 50.59 10.74 55.12 C 12.42 60.93 20.58 63.30 24.95 58.95 C 27.90 56.74 27.56 52.84 28.65 49.71 C 30.42 46.62 35.18 46.35 37.25 49.26 C 38.75 52.13 38.04 55.96 40.62 58.31 C 43.95 62.24 50.57 62.08 53.79 58.10 C 55.90 55.83 55.62 52.57 56.59 49.83 C 58.19 46.66 63.04 46.30 65.12 49.18 C 66.83 51.90 65.81 55.70 68.15 58.17 C 71.13 62.15 77.53 62.67 81.02 59.07 C 83.88 56.82 83.47 52.95 84.49 49.82 C 86.39 45.93 93.32 46.69 93.87 51.15 C 94.12 54.93 95.48 59.11 99.28 60.69 C 104.70 63.52 111.79 59.00 111.73 52.95 C 111.40 49.10 115.61 45.80 119.17 47.72 C 123.53 49.70 121.06 55.68 124.54 58.45 C 128.74 63.35 137.51 61.24 139.28 55.13 C 140.22 50.61 139.57 45.95 139.72 41.37 C 131.28 36.45 122.80 31.58 114.39 26.62 C 112.70 25.70 111.06 24.33 109.02 24.49 C 87.33 24.49 65.64 24.54 43.95 24.47 C 41.80 24.53 39.43 24.13 37.57 25.48 M 18.86 71.58 C 18.82 93.68 18.85 115.77 18.85 137.87 C 39.59 137.80 60.32 137.88 81.06 137.82 C 80.88 122.52 81.04 107.21 81.10 91.91 C 80.83 88.77 83.99 86.31 86.98 86.73 C 98.00 86.75 109.02 86.72 120.04 86.74 C 122.95 86.45 125.83 88.93 125.59 91.93 C 125.69 107.27 125.55 122.61 125.65 137.94 C 127.48 137.90 129.32 137.87 131.15 137.84 C 131.16 115.74 131.16 93.65 131.15 71.55 C 125.90 71.24 120.70 69.37 117.02 65.51 C 109.95 73.67 96.22 73.71 89.02 65.72 C 81.78 73.71 68.05 73.71 60.90 65.60 C 56.99 69.41 51.58 71.79 46.06 71.46 C 41.11 71.25 36.54 68.81 33.01 65.44 C 29.35 69.34 24.15 71.36 18.86 71.58 M 91.29 96.96 C 91.26 110.61 91.23 124.27 91.30 137.93 C 99.32 137.80 107.33 137.78 115.35 137.94 C 115.41 124.27 115.38 110.61 115.36 96.95 C 107.34 96.95 99.31 96.94 91.29 96.96 Z" />
<path fill="#000000" opacity="1.00" d=" M 31.13 86.96 C 44.06 86.41 57.04 86.92 69.99 86.72 C 73.16 86.22 76.47 88.66 76.34 92.00 C 76.45 101.35 76.37 110.71 76.37 120.06 C 76.75 123.18 74.23 126.20 71.03 126.10 C 58.67 126.24 46.30 126.12 33.94 126.16 C 30.95 126.49 27.50 124.34 27.66 121.07 C 27.54 111.71 27.65 102.34 27.61 92.97 C 27.36 90.46 28.57 87.72 31.13 86.96 M 37.84 115.75 C 47.28 115.73 56.71 115.72 66.15 115.76 C 66.16 109.49 66.16 103.22 66.15 96.95 C 56.72 96.88 47.28 97.16 37.85 96.93 C 37.83 103.20 37.85 109.48 37.84 115.75 Z" />
</g>
</svg>
