<?xml version="1.0" encoding="UTF-8" ?>
<!DOCTYPE svg PUBLIC "-//W3C//DTD SVG 1.1//EN" "http://www.w3.org/Graphics/SVG/1.1/DTD/svg11.dtd">
<svg width="158pt" height="141pt" viewBox="0 0 158 141" version="1.1" xmlns="http://www.w3.org/2000/svg">
<g id="#000000ff">
<path fill="#000000" opacity="1.00" d=" M 34.42 4.38 C 36.42 3.21 38.50 1.84 40.93 1.99 C 66.65 2.00 92.37 2.01 118.10 1.99 C 121.36 1.65 123.51 4.42 126.06 5.90 C 134.90 11.06 143.80 16.11 152.58 21.34 C 156.09 23.25 156.08 27.58 155.97 31.04 C 155.68 37.41 156.89 44.18 154.06 50.15 C 152.67 53.50 150.02 56.05 147.37 58.42 C 147.41 82.62 147.38 106.82 147.39 131.02 C 147.80 135.15 144.41 139.45 140.05 138.96 C 99.35 138.95 58.65 138.95 17.95 138.96 C 13.60 139.45 10.22 135.17 10.61 131.05 C 10.62 106.84 10.58 82.64 10.64 58.43 C 7.81 55.93 5.06 53.16 3.69 49.57 C 1.10 43.73 2.34 37.23 2.02 31.06 C 1.85 27.60 1.89 23.31 5.36 21.39 C 14.98 15.61 24.81 10.17 34.42 4.38 M 16.29 31.44 C 16.36 35.26 16.01 39.11 16.45 42.92 C 17.35 47.75 23.97 50.02 27.54 46.54 C 30.84 44.22 29.08 39.46 31.71 36.73 C 34.11 33.68 39.09 33.36 41.83 36.12 C 45.17 38.42 43.22 43.36 46.07 46.00 C 48.56 48.91 53.48 48.95 56.02 46.07 C 58.71 43.64 57.20 39.32 59.68 36.74 C 62.08 33.67 67.09 33.35 69.83 36.15 C 73.25 38.73 71.06 44.00 74.37 46.63 C 76.79 49.18 81.26 49.19 83.66 46.60 C 86.80 44.16 84.98 39.42 87.64 36.68 C 90.28 33.52 95.67 33.52 98.31 36.66 C 100.91 39.23 99.29 43.57 101.84 46.14 C 104.19 49.08 109.03 49.38 111.63 46.62 C 115.04 44.01 112.57 38.56 116.20 36.12 C 118.93 33.34 123.88 33.71 126.30 36.70 C 128.97 39.43 127.16 44.18 130.44 46.52 C 134.02 50.04 140.76 47.72 141.57 42.83 C 141.97 39.05 141.65 35.24 141.70 31.45 C 132.90 26.50 124.23 21.34 115.50 16.27 C 114.20 15.32 112.55 15.50 111.03 15.47 C 88.65 15.63 66.26 15.33 43.89 15.62 C 34.57 20.66 25.58 26.34 16.29 31.44 M 24.81 62.57 C 24.89 83.32 24.83 104.08 24.84 124.84 C 37.22 124.77 49.59 125.07 61.96 124.47 C 61.98 109.96 61.85 95.44 62.02 80.93 C 61.91 77.17 65.23 73.71 69.01 73.76 C 76.33 73.59 83.65 73.80 90.97 74.04 C 99.31 73.74 107.65 73.60 116.00 73.78 C 119.69 73.90 122.81 77.43 122.61 81.11 C 122.63 95.70 122.65 110.29 122.59 124.87 C 126.11 125.01 129.63 125.05 133.15 124.99 C 133.17 104.14 133.13 83.29 133.17 62.44 C 128.79 61.71 124.46 60.27 121.04 57.34 C 113.38 64.39 100.76 64.42 93.01 57.49 C 85.24 64.46 72.57 64.40 64.85 57.39 C 57.10 64.13 44.77 64.03 37.07 57.24 C 33.61 60.25 29.24 61.74 24.81 62.57 M 76.24 88.05 C 76.26 100.33 76.32 112.61 76.21 124.88 C 86.94 125.01 97.67 124.91 108.40 124.86 C 108.35 112.59 108.38 100.32 108.38 88.05 C 97.67 88.04 86.95 87.98 76.24 88.05 Z" />
</g>
</svg>
