<?xml version="1.0" encoding="UTF-8" ?>
<!DOCTYPE svg PUBLIC "-//W3C//DTD SVG 1.1//EN" "http://www.w3.org/Graphics/SVG/1.1/DTD/svg11.dtd">
<svg width="209pt" height="51pt" viewBox="0 0 209 51" version="1.1" xmlns="http://www.w3.org/2000/svg">
<g id="#ffffffff">
</g>
<g id="#060606ff">
<path fill="#060606" opacity="1.00" d=" M 13.19 14.19 C 26.98 5.47 44.62 6.41 59.54 11.54 C 90.95 22.25 122.05 34.66 154.94 40.16 C 164.18 41.92 173.64 43.10 183.04 42.08 C 188.76 41.27 194.85 39.25 198.41 34.41 C 201.20 30.97 201.37 25.72 199.00 22.02 C 196.43 17.88 192.21 14.88 187.54 13.59 C 184.80 12.95 181.30 12.98 179.60 15.63 C 177.72 20.88 181.64 26.81 186.90 27.91 C 188.35 28.02 189.39 26.76 190.37 25.88 C 191.20 23.41 188.59 21.87 187.35 20.13 C 188.04 19.68 189.42 18.78 190.11 18.33 C 191.50 19.42 193.65 20.19 193.71 22.26 C 194.58 26.79 190.13 30.56 185.92 30.77 C 179.24 30.78 173.93 23.39 175.84 17.04 C 177.30 12.89 181.81 10.76 185.98 10.62 C 193.12 10.62 200.38 14.81 203.24 21.47 C 205.73 29.44 200.90 38.10 193.59 41.54 C 186.23 44.78 177.99 45.71 170.01 45.17 C 134.66 42.21 101.13 29.70 67.89 18.13 C 54.30 13.10 39.50 7.93 24.92 11.66 C 19.23 13.28 13.19 15.67 9.50 20.52 C 7.59 23.00 9.42 25.94 11.18 27.87 C 13.95 31.14 18.86 32.91 22.82 30.76 C 25.25 29.50 28.29 27.36 27.68 24.22 C 26.83 21.56 24.53 18.47 21.34 19.27 C 19.07 19.29 18.96 21.88 18.26 23.48 C 18.02 25.02 16.04 24.58 14.98 25.00 C 13.74 19.11 21.33 14.83 26.38 16.59 C 28.88 18.20 31.09 20.86 30.78 24.01 C 30.75 29.30 25.49 32.59 20.94 33.92 C 14.80 36.01 7.45 32.15 5.60 25.98 C 4.53 20.67 9.10 16.64 13.19 14.19 Z" />
</g>
</svg>
