<?xml version="1.0" encoding="UTF-8" ?>
<!DOCTYPE svg PUBLIC "-//W3C//DTD SVG 1.1//EN" "http://www.w3.org/Graphics/SVG/1.1/DTD/svg11.dtd">
<svg width="100pt" height="177pt" viewBox="0 0 100 177" version="1.1" xmlns="http://www.w3.org/2000/svg">
<g id="#ffffffff">
</g>
<g id="#000000ff">
<path fill="#000000" opacity="1.00" d=" M 45.42 10.36 C 47.36 8.48 49.30 6.57 51.00 4.46 C 52.56 6.40 54.31 8.17 56.10 9.89 C 70.08 23.82 83.98 37.84 98.00 51.73 C 94.71 55.14 91.10 58.24 87.95 61.78 C 80.65 54.17 73.07 46.83 65.67 39.30 C 63.17 36.69 60.26 34.40 58.42 31.23 C 57.82 34.79 58.00 38.41 58.00 42.01 C 58.00 85.34 58.00 128.67 58.00 172.00 C 53.33 172.00 48.67 172.00 44.00 172.00 C 44.00 129.00 44.00 86.01 44.00 43.01 C 43.97 39.08 44.22 35.13 43.59 31.24 C 42.89 32.30 42.18 33.37 41.30 34.31 C 32.23 43.50 22.92 52.45 14.00 61.78 C 10.77 58.31 7.24 55.15 4.01 51.69 C 17.83 37.93 31.61 24.13 45.42 10.36 Z" />
</g>
</svg>
