<?xml version="1.0" encoding="UTF-8" ?>
<!DOCTYPE svg PUBLIC "-//W3C//DTD SVG 1.1//EN" "http://www.w3.org/Graphics/SVG/1.1/DTD/svg11.dtd">
<svg width="113pt" height="114pt" viewBox="0 0 113 114" version="1.1" xmlns="http://www.w3.org/2000/svg">
<g id="#f9f9f9ff">
</g>
<g id="#000000ff">
<path fill="#000000" opacity="1.00" d=" M 47.49 3.73 C 59.08 1.76 71.24 3.95 81.56 9.51 C 93.31 15.81 102.62 26.57 106.91 39.21 C 112.24 53.95 110.49 71.02 102.46 84.45 C 94.58 97.89 80.61 107.64 65.20 110.15 C 53.43 112.32 41.00 110.18 30.49 104.52 C 17.59 97.68 7.72 85.34 3.99 71.21 C 0.32 58.54 1.91 44.55 7.78 32.80 C 15.41 17.54 30.58 6.28 47.49 3.73 M 48.42 12.70 C 30.83 15.45 15.87 29.84 12.11 47.18 C 9.10 60.72 12.52 75.79 21.92 86.13 C 33.80 100.82 55.47 105.91 72.84 98.74 C 85.82 93.39 96.26 81.76 99.61 68.06 C 102.11 58.13 101.09 47.38 96.83 38.07 C 92.86 29.90 86.53 22.92 78.77 18.21 C 69.73 12.87 58.76 10.92 48.42 12.70 Z" />
<path fill="#000000" opacity="1.00" d=" M 37.94 47.98 C 37.88 37.65 47.78 28.71 58.07 30.18 C 68.59 31.07 76.40 42.49 73.38 52.62 C 71.67 58.63 66.49 63.24 60.53 64.83 C 60.51 66.72 60.50 68.60 60.48 70.48 C 57.48 70.48 54.48 70.49 51.48 70.52 C 51.62 66.63 50.85 62.07 53.75 58.94 C 56.36 55.46 61.96 56.14 63.94 52.00 C 66.85 46.89 63.06 39.63 57.16 39.21 C 51.88 38.24 47.18 42.90 46.96 48.02 C 43.96 48.04 40.95 48.03 37.94 47.98 Z" />
<path fill="#000000" opacity="1.00" d=" M 51.42 75.07 C 54.44 74.97 57.47 74.99 60.49 75.02 C 60.48 78.02 60.48 81.02 60.51 84.02 C 57.50 84.04 54.50 84.03 51.49 83.97 C 51.50 81.00 51.50 78.04 51.42 75.07 Z" />
</g>
</svg>
