<?xml version="1.0" encoding="UTF-8" ?>
<!DOCTYPE svg PUBLIC "-//W3C//DTD SVG 1.1//EN" "http://www.w3.org/Graphics/SVG/1.1/DTD/svg11.dtd">
<svg width="512pt" height="512pt" viewBox="0 0 512 512" version="1.1" xmlns="http://www.w3.org/2000/svg">
<g id="#1d1d1bff">
<path fill="#1d1d1b" opacity="1.00" d=" M 231.58 52.52 C 241.82 48.56 253.97 51.63 261.52 59.48 C 288.72 86.61 315.88 113.78 343.01 140.97 C 350.11 147.82 353.43 158.36 350.96 167.99 C 348.34 179.43 337.76 188.47 326.03 189.19 C 317.91 189.95 309.71 186.74 303.95 181.05 C 292.26 169.70 281.10 157.82 269.22 146.68 C 269.04 199.46 269.28 252.24 269.11 305.01 C 269.22 314.82 263.87 324.48 255.35 329.38 C 244.89 335.80 230.32 334.02 221.68 325.32 C 216.15 320.10 213.29 312.52 213.21 304.98 C 212.99 252.21 213.40 199.44 213.00 146.68 C 204.49 154.60 196.52 163.07 188.22 171.22 C 183.98 175.32 180.06 179.78 175.49 183.51 C 167.00 190.25 154.48 191.16 145.06 185.85 C 135.27 180.55 129.27 169.06 130.79 157.98 C 131.47 151.33 134.98 145.30 139.66 140.65 C 165.13 115.12 190.65 89.65 216.13 64.13 C 220.64 59.52 225.32 54.66 231.58 52.52 Z" />
<path fill="#1d1d1b" opacity="1.00" d=" M 101.37 354.47 C 114.69 350.44 130.12 358.04 134.93 371.10 C 137.65 376.81 135.74 383.98 139.94 389.05 C 142.59 392.34 146.95 393.39 151.00 393.34 C 211.00 393.35 271.00 393.32 330.99 393.36 C 335.08 393.45 339.51 392.50 342.23 389.18 C 346.38 384.73 344.90 378.13 346.80 372.79 C 350.47 360.59 363.32 352.11 375.99 353.57 C 388.72 354.47 399.82 365.29 401.07 377.99 C 403.03 403.71 388.04 429.43 365.30 441.30 C 355.13 446.82 343.53 449.38 331.99 449.33 C 274.33 449.36 216.66 449.33 159.00 449.35 C 151.29 449.34 143.51 449.56 135.91 448.01 C 119.63 444.90 104.72 435.49 94.75 422.27 C 85.64 410.21 80.54 395.04 81.10 379.90 C 81.49 368.23 90.11 357.48 101.37 354.47 Z" />
</g>
</svg>
