<?xml version="1.0" encoding="UTF-8" ?>
<!DOCTYPE svg PUBLIC "-//W3C//DTD SVG 1.1//EN" "http://www.w3.org/Graphics/SVG/1.1/DTD/svg11.dtd">
<svg width="369pt" height="358pt" viewBox="0 0 369 358" version="1.1" xmlns="http://www.w3.org/2000/svg">
<g id="#ffffffff">
<path fill="#ffffff" opacity="1.00" d=" M 170.50 5.84 C 188.30 3.99 206.67 7.72 222.20 16.68 C 248.35 31.39 265.61 60.91 264.81 91.00 C 265.21 108.81 259.25 126.53 248.86 140.92 C 233.07 162.91 206.22 176.95 179.00 175.84 C 161.21 176.37 143.56 170.18 129.24 159.77 C 112.32 147.60 100.32 128.88 96.09 108.49 C 92.19 89.72 94.61 69.63 103.29 52.49 C 115.90 26.89 142.09 8.70 170.50 5.84 Z" />
<path fill="#ffffff" opacity="1.00" d=" M 65.33 241.38 C 94.30 213.64 132.84 195.57 173.01 192.94 C 203.30 190.72 234.13 197.22 261.16 211.06 C 293.10 227.32 319.74 253.27 338.02 284.00 C 350.54 304.28 358.89 326.86 364.60 349.92 C 244.72 350.07 124.84 350.01 4.96 349.96 C 13.77 308.93 34.76 270.27 65.33 241.38 Z" />
</g>
</svg>
