<?xml version="1.0" encoding="UTF-8" ?>
<!DOCTYPE svg PUBLIC "-//W3C//DTD SVG 1.1//EN" "http://www.w3.org/Graphics/SVG/1.1/DTD/svg11.dtd">
<svg width="369pt" height="358pt" viewBox="0 0 369 358" version="1.1" xmlns="http://www.w3.org/2000/svg">
<g id="#ffffffff">
<path fill="#ffffff" opacity="1.00" d=" M 170.50 5.84 C 189.04 3.91 208.18 8.04 224.09 17.80 C 250.46 33.46 266.84 64.43 264.82 95.00 C 264.26 111.45 258.48 127.61 248.86 140.92 C 237.13 157.21 219.48 169.09 199.95 173.76 C 189.87 176.45 179.31 175.96 168.99 175.50 C 149.74 173.21 131.43 163.97 118.00 150.00 C 103.20 134.58 94.34 113.43 94.35 92.00 C 93.89 74.18 99.45 56.30 109.72 41.75 C 123.57 21.77 146.32 8.36 170.50 5.84 M 169.67 29.90 C 150.32 32.87 132.83 45.54 124.02 63.03 C 116.57 77.61 115.25 95.16 120.33 110.71 C 124.50 123.64 133.05 135.11 144.30 142.73 C 158.49 152.54 176.87 155.91 193.64 151.91 C 208.56 148.50 222.09 139.33 230.68 126.66 C 241.03 111.79 244.26 92.28 239.41 74.84 C 235.43 59.91 225.52 46.72 212.41 38.59 C 199.83 30.58 184.36 27.78 169.67 29.90 Z" />
<path fill="#ffffff" opacity="1.00" d=" M 148.92 196.40 C 166.32 192.65 184.32 191.42 202.01 193.47 C 239.61 197.21 275.28 214.56 302.75 240.29 C 317.06 253.49 329.22 268.98 339.09 285.75 C 351.00 305.59 359.07 327.50 364.58 349.91 C 244.72 350.08 124.84 350.02 4.98 349.94 C 13.71 309.13 34.55 270.71 64.81 241.85 C 88.09 219.54 117.34 203.25 148.92 196.40 M 175.97 217.99 C 159.97 218.53 144.26 222.66 129.49 228.69 C 87.24 246.35 54.50 283.41 38.93 326.11 C 136.66 326.14 234.40 326.14 332.14 326.11 C 327.68 312.60 320.66 300.02 312.83 288.18 C 302.28 272.42 289.03 258.43 273.83 247.07 C 252.71 231.26 227.37 220.97 201.08 218.30 C 192.72 217.87 184.31 216.60 175.97 217.99 Z" />
</g>
</svg>
