ply
format ascii 1.0
comment Created by Blender 2.77 (sub 0) - www.blender.org, source file: 'headset1.blend'
element vertex 113
property float x
property float y
property float z
property float nx
property float ny
property float nz
property uchar red
property uchar green
property uchar blue
element face 62
property list uchar uint vertex_indices
end_header
-0.290413 -0.000000 0.148177 -0.000000 -1.000000 -0.000001 255 255 255
-0.347407 -0.000000 0.177494 -0.000000 -1.000000 -0.000001 255 255 255
-0.435138 0.000000 0.086446 -0.000000 -1.000000 -0.000001 255 255 255
-0.290413 -0.000000 0.148177 -0.000001 -1.000000 -0.000000 255 255 255
-0.435138 0.000000 0.086446 -0.000001 -1.000000 -0.000000 255 255 255
-0.269663 -0.000000 0.120082 -0.000001 -1.000000 -0.000000 255 255 255
-0.435138 0.000000 0.086446 0.000001 1.000000 0.000000 255 255 255
-0.269663 -0.000000 0.120082 0.000001 1.000000 0.000000 255 255 255
-0.422046 0.000000 -0.068290 0.000001 1.000000 0.000000 255 255 255
-0.217296 -0.000000 -0.143929 0.000001 1.000000 0.000000 255 255 255
-0.374006 -0.000000 -0.170573 0.000001 1.000000 0.000000 255 255 255
-0.239533 -0.000000 -0.173834 0.000001 1.000000 -0.000000 255 255 255
-0.272505 -0.000000 -0.197604 0.000001 1.000000 -0.000001 255 255 255
-0.374006 -0.000000 -0.170573 0.000001 1.000000 -0.000001 255 255 255
-0.239533 -0.000000 -0.173834 0.000001 1.000000 -0.000001 255 255 255
-0.305610 -0.000000 -0.216247 0.000002 1.000000 0.000002 226 226 226
-0.374006 -0.000000 -0.170573 0.000002 1.000000 0.000002 255 255 255
-0.272505 -0.000000 -0.197604 0.000002 1.000000 0.000002 255 255 255
-0.305610 -0.000000 -0.216247 -0.000000 1.000000 -0.000000 226 226 226
-0.265083 -0.000000 -0.210457 -0.000000 1.000000 -0.000000 179 179 179
-0.298534 -0.000000 -0.231042 -0.000000 1.000000 -0.000000 179 179 179
-0.265083 -0.000000 -0.210457 -0.000001 1.000000 0.000008 179 179 179
-0.305610 -0.000000 -0.216247 -0.000001 1.000000 0.000008 226 226 226
-0.272505 -0.000000 -0.197604 -0.000001 1.000000 0.000008 255 255 255
-0.435138 0.000000 0.086446 0.000007 1.000000 -0.000005 255 255 255
-0.384525 0.000000 0.158495 0.000007 1.000000 -0.000005 255 255 255
-0.347407 -0.000000 0.177494 0.000007 1.000000 -0.000005 255 255 255
-0.002701 -0.000000 -0.373894 0.000003 1.000000 -0.000001 255 255 255
-0.020337 -0.000000 -0.453640 0.000003 1.000000 -0.000001 255 255 255
-0.028005 0.000000 -0.415301 0.000003 1.000000 -0.000001 179 179 179
-0.028005 0.000000 -0.415301 0.000004 1.000000 -0.000001 179 179 179
-0.020337 -0.000000 -0.453640 0.000004 1.000000 -0.000001 255 255 255
-0.034906 0.000000 -0.451340 0.000004 1.000000 -0.000001 179 179 179
-0.034906 0.000000 -0.451340 0.000000 1.000000 -0.000000 179 179 179
-0.093949 0.000000 -0.403032 0.000000 1.000000 -0.000000 174 174 174
-0.028005 0.000000 -0.415301 0.000000 1.000000 -0.000000 179 179 179
-0.139956 0.000000 -0.426803 -0.000000 1.000000 -0.000000 179 179 179
-0.218935 0.000000 -0.357792 0.000000 1.000000 0.000001 179 179 179
-0.199766 0.000000 -0.329421 0.000000 1.000000 0.000001 179 179 179
-0.093949 0.000000 -0.403032 0.000000 1.000000 0.000001 174 174 174
-0.218935 0.000000 -0.357792 -0.000000 1.000000 -0.000000 179 179 179
-0.277211 -0.000000 -0.268844 0.000000 1.000000 0.000001 179 179 179
-0.277211 -0.000000 -0.268844 -0.000000 1.000000 -0.000000 179 179 179
-0.245006 0.000000 -0.246608 -0.000000 1.000000 -0.000000 179 179 179
-0.199766 0.000000 -0.329421 -0.000000 1.000000 -0.000000 179 179 179
-0.245006 0.000000 -0.246608 -0.000001 1.000000 0.000000 179 179 179
-0.277211 -0.000000 -0.268844 -0.000001 1.000000 0.000000 179 179 179
-0.265083 -0.000000 -0.210457 -0.000001 1.000000 0.000000 179 179 179
-0.298534 -0.000000 -0.231042 -0.000001 1.000000 0.000000 179 179 179
-0.002701 -0.000000 -0.373894 -0.000000 1.000000 -0.000000 255 255 255
0.077608 -0.000000 -0.458050 -0.000000 1.000000 -0.000000 255 255 255
-0.020337 -0.000000 -0.453640 -0.000000 1.000000 -0.000000 255 255 255
0.174990 -0.000000 -0.427378 0.000000 1.000000 0.000000 255 255 255
0.126119 -0.000000 -0.352424 0.000000 1.000000 -0.000000 255 255 255
0.231732 -0.000000 -0.287056 0.000000 1.000000 -0.000000 255 255 255
0.283874 -0.000000 -0.303926 0.000000 -1.000000 0.000000 253 253 253
0.231732 -0.000000 -0.287056 0.000000 -1.000000 0.000000 255 255 255
0.174990 -0.000000 -0.427378 0.000000 -1.000000 0.000000 255 255 255
0.313012 -0.000000 -0.323095 -0.000000 -1.000000 0.000000 255 255 255
0.292794 -0.000000 -0.292564 -0.000000 1.000000 -0.000001 179 179 179
0.313012 -0.000000 -0.323095 -0.000000 1.000000 -0.000001 255 255 255
0.283874 -0.000000 -0.303926 -0.000000 1.000000 -0.000001 253 253 253
0.292794 -0.000000 -0.292564 -0.000002 1.000000 -0.000002 179 179 179
0.320398 0.000000 -0.310967 -0.000002 1.000000 -0.000002 179 179 179
0.313012 -0.000000 -0.323095 -0.000002 1.000000 -0.000002 255 255 255
0.292794 -0.000000 -0.292564 -0.000000 1.000000 0.000001 179 179 179
0.354085 -0.000000 -0.193397 -0.000000 1.000000 0.000001 179 179 179
0.320398 0.000000 -0.310967 -0.000000 1.000000 0.000001 179 179 179
0.377856 -0.000000 -0.215634 -0.000000 1.000000 0.000001 179 179 179
0.377856 -0.000000 -0.215634 -0.000000 1.000000 0.000000 179 179 179
0.354085 -0.000000 -0.193397 -0.000000 1.000000 0.000000 179 179 179
0.386296 -0.000000 -0.108284 -0.000000 1.000000 0.000000 179 179 179
0.343350 -0.000000 -0.077612 -0.000000 1.000000 0.000000 179 179 179
0.356825 -0.000000 -0.003434 0.000000 1.000000 0.000000 179 179 179
0.356825 -0.000000 -0.003434 0.000001 1.000000 -0.000000 179 179 179
0.343350 -0.000000 -0.077612 0.000001 1.000000 -0.000000 179 179 179
0.323853 -0.000000 -0.014936 0.000001 1.000000 -0.000000 179 179 179
0.323853 -0.000000 -0.014936 0.000000 1.000000 -0.000000 179 179 179
0.296470 -0.000000 0.048431 0.000000 1.000000 -0.000000 172 172 172
0.331742 -0.000000 0.058399 0.000000 1.000000 -0.000000 178 178 178
0.291869 -0.000000 0.059166 0.000000 1.000000 -0.000000 204 204 204
0.334043 -0.000000 0.068367 0.000000 1.000000 -0.000000 234 234 234
0.284401 -0.000000 0.072113 0.000000 1.000000 -0.000001 255 255 255
0.334043 -0.000000 0.068367 0.000000 1.000000 -0.000001 234 234 234
0.291869 -0.000000 0.059166 0.000000 1.000000 -0.000001 204 204 204
0.352446 -0.000000 0.156548 -0.000000 -1.000000 -0.000000 255 255 255
0.284401 -0.000000 0.072113 -0.000000 -1.000000 -0.000000 255 255 255
0.334043 -0.000000 0.068367 -0.000000 -1.000000 -0.000000 234 234 234
0.242994 -0.000000 0.049110 0.000000 -1.000000 -0.000000 255 255 255
0.307287 -0.000000 0.251110 0.000000 -1.000000 -0.000000 255 255 255
0.193035 -0.000000 0.367662 -0.000000 -1.000000 -0.000000 255 255 255
0.206955 -0.000000 0.046042 -0.000000 -1.000000 -0.000000 255 255 255
0.246710 -0.000000 0.318587 -0.000000 -1.000000 -0.000000 255 255 255
0.037377 -0.000000 0.257244 -0.000000 1.000000 -0.000000 255 255 255
0.193035 -0.000000 0.367662 -0.000000 1.000000 -0.000000 255 255 255
0.206955 -0.000000 0.046042 -0.000000 1.000000 -0.000000 255 255 255
0.038911 -0.000000 0.294817 0.000000 1.000000 -0.000000 255 255 255
0.063448 -0.000000 0.355393 -0.000000 1.000000 0.000000 255 255 255
0.105621 -0.000000 0.375330 0.000000 -1.000000 0.000001 255 255 255
0.063448 -0.000000 0.355393 0.000000 -1.000000 0.000001 255 255 255
0.193035 -0.000000 0.367662 0.000000 -1.000000 0.000001 255 255 255
-0.217296 -0.000000 -0.143929 -0.000001 -1.000000 -0.000000 255 255 255
-0.384525 0.000000 0.158495 0.000001 1.000000 -0.000000 255 255 255
-0.384525 0.000000 0.158495 -0.000000 -1.000000 0.000000 255 255 255
-0.435138 0.000000 0.086446 -0.000000 -1.000000 0.000000 255 255 255
-0.374006 -0.000000 -0.170573 -0.000000 -1.000000 0.000000 255 255 255
-0.002701 -0.000000 -0.373894 -0.000000 -1.000000 0.000000 255 255 255
-0.020337 -0.000000 -0.453640 -0.000000 -1.000000 0.000000 255 255 255
0.126119 -0.000000 -0.352424 -0.000000 -1.000000 0.000000 255 255 255
0.077608 -0.000000 -0.458050 0.000000 -1.000000 0.000000 255 255 255
0.313012 -0.000000 -0.323095 0.000000 1.000000 -0.000000 255 255 255
0.283874 -0.000000 -0.303926 0.000000 1.000000 0.000000 253 253 253
0.038911 -0.000000 0.294817 -0.000000 -1.000000 0.000000 255 255 255
3 0 1 2
3 3 4 5
3 6 7 8
3 7 9 8
3 8 9 10
3 9 11 10
3 12 13 14
3 15 16 17
3 18 19 20
3 21 22 23
3 24 25 26
3 27 28 29
3 30 31 32
3 33 34 35
3 34 33 36
3 37 38 39
3 40 34 36
3 38 37 41
3 42 43 44
3 45 46 47
3 47 46 48
3 49 50 51
3 50 49 52
3 49 53 52
3 54 52 53
3 55 56 57
3 58 55 57
3 59 60 61
3 62 63 64
3 65 66 67
3 68 67 66
3 69 70 71
3 71 70 72
3 72 73 71
3 74 75 76
3 77 78 73
3 79 73 78
3 80 81 78
3 79 78 81
3 82 83 84
3 85 86 87
3 88 86 89
3 86 85 89
3 90 91 92
3 88 89 91
3 89 92 91
3 93 94 95
3 96 94 93
3 97 94 96
3 98 99 100
3 5 4 101
3 9 8 102
3 103 104 105
3 106 107 108
3 108 106 109
3 53 110 52
3 111 50 54
3 90 86 89
3 112 85 90
3 97 94 95
3 91 86 89
3 108 109 58
