<?xml version="1.0" encoding="UTF-8" ?>
<!DOCTYPE svg PUBLIC "-//W3C//DTD SVG 1.1//EN" "http://www.w3.org/Graphics/SVG/1.1/DTD/svg11.dtd">
<svg width="600pt" height="600pt" viewBox="0 0 600 600" version="1.1" xmlns="http://www.w3.org/2000/svg">
<g id="#231f20ff">
<path fill="#231f20" opacity="1.00" d=" M 297.19 68.05 C 299.25 66.85 302.06 67.81 303.05 69.95 C 339.52 133.17 375.83 196.48 412.29 259.70 C 413.45 261.85 415.50 264.39 413.96 266.89 C 413.04 268.67 410.92 269.08 409.10 269.00 C 335.70 269.00 262.30 269.00 188.91 269.00 C 187.07 269.09 185.00 268.58 184.10 266.81 C 182.59 264.08 184.94 261.48 186.15 259.16 C 221.80 197.48 257.41 135.76 293.03 74.06 C 294.33 72.02 295.19 69.52 297.19 68.05 Z" />
<path fill="#231f20" opacity="1.00" d=" M 295.53 279.53 C 296.98 276.38 301.87 276.63 303.14 279.80 C 318.55 306.49 333.88 333.23 349.27 359.93 C 369.54 359.97 389.81 359.89 410.08 359.96 C 411.96 359.76 413.51 361.01 414.32 362.62 C 458.16 438.52 501.98 514.43 545.80 590.33 C 547.85 593.00 545.39 597.16 542.10 596.78 C 380.37 597.07 218.63 597.04 56.90 596.80 C 53.25 597.39 50.62 592.88 52.91 589.99 C 96.49 514.23 140.11 438.48 183.72 362.74 C 184.53 361.13 186.03 359.79 187.94 359.97 C 208.30 359.90 228.67 359.95 249.04 359.94 C 264.59 333.16 279.97 306.29 295.53 279.53 M 190.24 368.31 C 147.99 441.68 105.75 515.05 63.52 588.43 C 81.07 588.46 98.62 588.39 116.17 588.47 C 158.61 515.16 200.70 441.66 243.03 368.29 C 225.43 368.34 207.83 368.31 190.24 368.31 M 355.08 368.28 C 397.48 441.63 439.81 515.02 482.18 588.39 C 499.77 588.49 517.37 588.41 534.97 588.43 C 492.61 515.05 450.26 441.66 407.87 368.30 C 390.27 368.31 372.67 368.34 355.08 368.28 M 192.00 478.69 C 192.00 515.19 192.00 551.69 192.00 588.19 C 263.38 588.19 334.75 588.19 406.12 588.19 C 406.13 551.69 406.12 515.19 406.12 478.69 C 334.75 478.69 263.38 478.69 192.00 478.69 M 414.40 487.49 C 414.64 521.05 414.42 554.62 414.51 588.19 C 433.78 588.19 453.06 588.19 472.33 588.18 C 453.08 554.59 433.41 521.22 414.40 487.49 M 126.15 588.19 C 145.28 588.18 164.42 588.19 183.55 588.19 C 183.63 554.79 183.44 521.40 183.65 488.00 C 164.74 521.54 145.27 554.77 126.15 588.19 Z" />
</g>
</svg>
