<?xml version="1.0" encoding="UTF-8" ?>
<!DOCTYPE svg PUBLIC "-//W3C//DTD SVG 1.1//EN" "http://www.w3.org/Graphics/SVG/1.1/DTD/svg11.dtd">
<svg width="600pt" height="600pt" viewBox="0 0 600 600" version="1.1" xmlns="http://www.w3.org/2000/svg">
<g id="#231f20ff">
<path fill="#231f20" opacity="1.00" d=" M 164.51 70.97 C 164.19 68.40 166.19 65.73 168.94 66.02 C 205.60 65.98 242.28 66.00 278.95 66.01 C 305.40 66.14 331.64 76.04 351.56 93.45 C 374.62 113.21 389.06 142.61 390.50 172.95 C 391.82 196.65 385.50 220.71 372.54 240.61 C 358.41 262.39 336.61 279.32 311.70 286.82 C 342.78 286.44 373.84 296.03 399.41 313.67 C 427.91 333.16 449.55 362.49 459.56 395.55 C 465.89 416.01 467.41 437.75 465.40 459.01 C 462.44 488.74 450.41 517.45 431.42 540.51 C 411.59 564.77 384.20 582.78 353.99 591.16 C 341.63 594.68 328.82 596.34 316.01 596.97 C 266.98 596.95 217.94 596.98 168.91 596.95 C 166.83 597.15 164.96 595.57 164.47 593.62 C 164.57 419.41 164.42 245.18 164.51 70.97 M 172.95 74.38 C 172.93 94.92 172.94 115.47 172.95 136.02 C 184.42 108.27 207.26 85.18 235.32 74.29 C 214.53 74.49 193.74 74.32 172.95 74.38 M 180.97 138.76 C 170.94 162.71 170.29 190.44 179.20 214.84 C 188.23 239.86 207.24 261.07 231.06 272.89 C 252.05 283.40 276.64 286.36 299.58 281.45 C 324.89 276.15 347.89 260.93 362.86 239.87 C 377.68 219.26 384.43 193.11 381.68 167.90 C 379.05 142.02 366.23 117.41 346.63 100.34 C 328.87 84.55 305.55 75.32 281.82 74.45 C 281.82 95.64 281.80 116.84 281.82 138.03 C 291.06 139.07 299.81 143.22 306.53 149.62 C 313.69 156.86 318.31 166.69 318.75 176.91 C 319.33 187.13 315.89 197.50 309.32 205.35 C 302.14 214.07 291.25 219.62 279.95 220.18 C 269.67 220.82 259.26 217.34 251.34 210.77 C 237.72 199.81 232.65 179.71 239.47 163.60 C 244.97 149.66 258.56 139.58 273.43 138.03 C 273.44 116.90 273.44 95.78 273.43 74.65 C 233.53 75.33 195.98 101.98 180.97 138.76 M 246.18 169.96 C 243.18 179.84 245.48 190.86 251.61 199.08 C 266.95 183.73 282.35 168.45 297.67 153.07 C 291.70 148.73 284.41 146.06 276.97 146.39 C 262.98 146.33 249.87 156.52 246.18 169.96 M 172.95 286.75 C 196.43 286.78 219.92 286.70 243.40 286.79 C 211.78 277.29 185.51 252.51 172.95 222.11 C 172.94 243.66 172.94 265.20 172.95 286.75 M 172.95 295.19 C 172.94 343.71 172.94 392.23 172.95 440.75 C 220.18 440.73 267.42 440.80 314.65 440.71 C 326.53 428.92 338.33 417.05 350.17 405.22 C 351.45 403.73 353.54 402.70 355.48 403.62 C 358.26 404.65 358.94 408.71 356.64 410.61 C 345.45 421.88 334.18 433.08 322.96 444.32 C 322.92 492.24 322.94 540.15 322.95 588.07 C 341.54 586.66 359.90 581.81 376.62 573.53 C 404.17 560.01 427.19 537.52 441.36 510.30 C 457.93 478.91 461.84 441.50 453.93 407.06 C 446.07 373.07 425.29 342.38 396.89 322.19 C 372.64 304.73 342.85 295.19 312.98 295.18 C 266.30 295.20 219.62 295.18 172.95 295.19 M 175.25 449.13 C 175.23 492.83 175.28 536.53 175.23 580.24 C 218.87 536.48 262.60 492.80 306.32 449.11 C 262.63 449.14 218.94 449.11 175.25 449.13 Z" />
</g>
</svg>
