<?xml version="1.0" encoding="UTF-8" ?>
<!DOCTYPE svg PUBLIC "-//W3C//DTD SVG 1.1//EN" "http://www.w3.org/Graphics/SVG/1.1/DTD/svg11.dtd">
<svg width="600pt" height="600pt" viewBox="0 0 600 600" version="1.1" xmlns="http://www.w3.org/2000/svg">
<g id="#231f20ff">
<path fill="#231f20" opacity="1.00" d=" M 266.19 75.26 C 288.64 69.22 311.89 66.12 335.13 66.19 C 338.02 65.94 340.29 69.21 339.17 71.86 C 338.43 74.00 336.07 74.73 334.02 74.57 C 293.60 74.69 253.23 84.55 217.39 103.25 C 217.37 255.35 217.35 407.44 217.41 559.54 C 256.78 580.07 301.60 589.91 345.95 587.98 C 380.16 586.64 413.98 578.16 444.99 563.71 C 428.80 563.69 412.81 557.06 401.11 545.90 C 390.35 535.74 383.20 521.82 381.35 507.12 C 379.65 494.14 381.93 480.64 387.97 469.01 C 394.77 455.71 406.28 444.91 419.99 438.98 C 434.70 432.53 451.82 431.88 467.00 437.12 C 481.42 442.04 493.95 452.23 501.75 465.32 C 509.08 477.45 512.19 492.04 510.55 506.11 C 508.73 522.77 500.07 538.50 487.08 549.06 C 481.30 553.90 474.47 557.19 468.03 561.02 C 435.05 580.16 397.87 591.98 359.91 595.46 C 318.86 599.32 276.93 593.51 238.56 578.39 C 204.47 565.05 173.27 544.46 147.44 518.53 C 116.35 487.39 93.12 448.45 80.73 406.21 C 66.66 358.52 66.42 306.84 80.02 259.01 C 92.91 213.38 118.46 171.47 152.91 138.91 C 184.64 108.78 223.91 86.61 266.19 75.26 M 186.06 122.40 C 193.70 132.33 201.33 142.28 208.99 152.20 C 209.00 137.39 209.01 122.59 208.99 107.78 C 201.10 112.25 193.47 117.17 186.06 122.40 M 143.85 160.27 C 165.52 188.56 187.29 216.78 209.00 245.04 C 208.98 218.48 209.04 191.92 208.97 165.36 C 206.83 163.35 205.05 161.02 203.32 158.67 C 195.31 148.26 187.32 137.83 179.30 127.44 C 166.49 137.25 154.64 148.28 143.85 160.27 M 109.70 208.72 C 142.80 251.75 175.88 294.81 208.99 337.83 C 208.98 311.27 209.05 284.71 208.96 258.15 C 208.10 257.28 207.23 256.43 206.44 255.51 C 183.64 225.99 161.02 196.31 138.16 166.83 C 127.39 179.87 117.68 193.81 109.70 208.72 M 85.73 270.15 C 87.75 273.15 90.05 275.94 92.23 278.82 C 131.15 329.43 170.07 380.04 208.98 430.65 C 208.99 404.08 209.05 377.51 208.96 350.94 C 207.03 349.18 205.40 347.13 203.87 345.02 C 171.06 302.29 138.17 259.63 105.38 216.88 C 96.85 233.82 90.36 251.77 85.73 270.15 M 83.32 280.98 C 78.69 304.67 77.25 328.99 79.30 353.04 C 79.41 355.80 81.67 357.72 83.15 359.84 C 125.11 414.37 167.05 468.92 208.98 523.48 C 209.00 496.91 209.03 470.34 208.96 443.77 C 207.09 442.04 205.48 440.06 203.99 438.00 C 163.80 385.64 123.48 333.37 83.32 280.98 M 81.32 371.00 C 88.36 414.83 106.68 456.82 134.51 491.44 C 154.99 517.11 180.43 538.79 208.99 555.00 C 208.97 548.83 209.08 542.65 208.93 536.48 C 204.54 532.32 201.40 527.05 197.55 522.42 C 158.85 471.91 119.80 421.66 81.32 371.00 M 406.73 457.76 C 395.32 468.56 388.76 484.27 389.22 499.98 C 389.46 514.41 395.61 528.54 405.78 538.73 C 432.52 512.03 459.21 485.30 485.94 458.59 C 476.64 449.37 464.16 443.38 451.08 442.25 C 434.97 440.66 418.36 446.51 406.73 457.76 Z" />
</g>
</svg>
