<?xml version="1.0" encoding="UTF-8" ?>
<!DOCTYPE svg PUBLIC "-//W3C//DTD SVG 1.1//EN" "http://www.w3.org/Graphics/SVG/1.1/DTD/svg11.dtd">
<svg width="600pt" height="600pt" viewBox="0 0 600 600" version="1.1" xmlns="http://www.w3.org/2000/svg">
<g id="#231f20ff">
<path fill="#231f20" opacity="1.00" d=" M 68.23 64.33 C 69.73 63.73 71.40 64.09 72.97 63.99 C 145.31 64.01 217.65 64.00 290.00 64.00 C 332.46 64.01 374.87 74.63 412.32 94.64 C 453.87 116.71 489.27 150.14 513.73 190.32 C 533.83 223.21 546.52 260.60 550.53 298.94 C 554.54 339.12 550.90 380.35 537.36 418.53 C 516.06 480.01 470.93 532.70 413.61 563.44 C 394.91 573.53 374.98 581.35 354.40 586.62 C 330.15 592.90 305.04 595.17 280.06 595.43 C 252.39 594.47 224.70 595.06 197.03 594.90 C 154.35 594.92 111.66 594.85 68.98 594.94 C 67.13 594.47 65.66 592.72 65.51 590.81 C 65.72 507.87 65.32 424.93 65.75 342.00 C 65.75 250.97 65.75 159.94 65.75 68.92 C 65.54 67.06 66.43 65.05 68.23 64.33 M 74.14 72.37 C 74.14 161.93 74.06 251.49 74.18 341.05 C 82.93 297.45 106.45 257.13 139.43 227.39 C 163.44 205.66 192.49 189.52 223.68 180.76 C 264.53 169.22 308.87 170.37 349.04 184.13 C 377.18 193.69 403.17 209.40 424.94 229.62 C 445.74 208.90 466.46 188.09 487.25 167.36 C 457.93 130.78 418.27 102.60 374.08 86.95 C 346.51 77.14 317.23 72.24 287.97 72.37 C 216.70 72.38 145.42 72.38 74.14 72.37 M 431.00 235.55 C 445.90 250.58 458.55 267.86 468.35 286.63 C 484.33 317.11 492.57 351.57 492.21 385.97 C 491.98 421.55 482.51 457.02 464.93 487.95 C 446.45 520.64 419.14 548.28 386.61 567.05 C 436.23 546.39 478.96 509.68 506.78 463.68 C 527.83 429.10 540.41 389.41 543.02 349.01 C 544.56 323.61 543.34 297.93 537.87 273.03 C 530.20 237.24 514.49 203.27 492.53 174.02 C 472.01 194.51 451.50 215.03 431.00 235.55 M 204.98 196.05 C 169.75 210.27 138.75 234.68 116.51 265.47 C 96.45 293.08 83.60 325.85 79.51 359.73 C 151.26 359.82 223.01 359.66 294.76 359.81 C 336.19 318.42 377.58 277.01 418.98 235.60 C 390.55 209.14 354.44 190.98 316.14 184.34 C 278.96 177.78 239.96 181.80 204.98 196.05 M 319.28 347.25 C 312.21 354.54 304.64 361.44 297.89 368.98 C 297.72 441.34 297.85 513.71 297.83 586.07 C 305.60 585.87 313.31 584.51 320.94 583.06 C 357.17 575.85 391.24 558.35 418.35 533.27 C 443.80 509.85 463.17 479.86 473.87 446.96 C 486.30 409.02 487.10 367.39 476.19 328.99 C 466.92 296.13 449.12 265.73 425.04 241.52 C 389.76 276.74 354.54 312.01 319.28 347.25 M 78.68 368.21 C 74.05 424.02 93.88 481.53 132.55 522.12 C 183.80 470.74 235.12 419.43 286.49 368.17 C 217.22 368.23 147.95 368.15 78.68 368.21 M 74.21 580.47 C 91.51 562.93 109.07 545.64 126.41 528.14 C 100.45 500.08 81.54 465.00 74.37 427.35 C 74.04 478.38 74.35 529.43 74.21 580.47 Z" />
</g>
</svg>
