<?xml version="1.0" encoding="UTF-8" ?>
<!DOCTYPE svg PUBLIC "-//W3C//DTD SVG 1.1//EN" "http://www.w3.org/Graphics/SVG/1.1/DTD/svg11.dtd">
<svg width="600pt" height="600pt" viewBox="0 0 600 600" version="1.1" xmlns="http://www.w3.org/2000/svg">
<g id="#231f20ff">
<path fill="#231f20" opacity="1.00" d=" M 151.87 65.81 C 152.65 63.78 154.94 63.15 156.92 63.30 C 229.62 63.31 302.32 63.32 375.01 63.29 C 376.54 63.33 378.32 63.27 379.45 64.52 C 381.71 66.57 380.67 70.86 377.65 71.52 C 375.13 71.86 372.58 71.67 370.05 71.69 C 324.99 71.69 279.94 71.69 234.88 71.69 C 234.88 131.32 234.87 190.94 234.89 250.56 C 259.26 250.59 283.64 250.52 308.02 250.59 C 310.41 250.40 312.46 252.60 312.27 254.96 C 312.34 265.31 312.36 275.67 312.26 286.02 C 312.40 288.32 310.32 290.36 308.02 290.21 C 283.65 290.31 259.26 290.22 234.88 290.25 C 234.87 331.27 234.87 372.29 234.88 413.30 C 265.95 413.33 297.02 413.28 328.08 413.33 C 330.56 413.22 332.61 415.51 332.34 417.97 C 332.42 447.62 332.36 477.27 332.37 506.93 C 357.26 506.96 382.14 506.90 407.03 506.96 C 409.85 506.55 411.62 509.51 411.32 512.04 C 411.38 536.60 411.32 561.18 411.34 585.75 C 427.23 585.76 443.13 585.73 459.02 585.76 C 460.90 585.58 462.97 586.43 463.68 588.30 C 464.88 590.80 462.88 594.16 460.06 594.07 C 359.05 594.55 258.02 594.10 157.00 594.24 C 154.23 594.70 151.26 592.93 151.33 589.92 C 151.14 561.95 151.46 533.97 151.15 506.00 C 151.54 473.33 150.96 440.65 151.51 407.98 C 151.47 296.65 151.51 185.34 151.49 74.01 C 151.58 71.29 151.18 68.48 151.87 65.81 M 159.95 71.70 C 159.94 131.32 159.93 190.94 159.95 250.56 C 182.11 250.56 204.27 250.57 226.43 250.55 C 226.44 190.93 226.44 131.31 226.43 71.69 C 204.27 71.69 182.11 71.68 159.95 71.70 M 159.95 290.25 C 159.94 331.27 159.94 372.29 159.95 413.31 C 182.11 413.31 204.27 413.31 226.43 413.30 C 226.44 372.29 226.44 331.27 226.43 290.25 C 204.27 290.25 182.11 290.25 159.95 290.25 M 160.00 421.75 C 159.98 437.34 160.00 452.93 159.99 468.52 C 170.81 445.90 191.58 428.21 215.84 421.67 C 197.23 421.85 178.62 421.70 160.00 421.75 M 262.72 421.67 C 275.47 425.15 287.32 431.67 297.25 440.38 C 303.49 434.16 309.76 427.97 315.98 421.74 C 298.23 421.73 280.47 421.84 262.72 421.67 M 303.28 446.25 C 313.07 456.77 320.35 469.65 323.96 483.59 C 323.91 464.30 323.95 445.00 323.94 425.71 C 317.07 432.57 310.17 439.40 303.28 446.25 M 211.72 431.87 C 195.01 438.04 180.55 450.04 171.35 465.29 C 163.76 477.78 159.73 492.41 159.98 507.03 C 160.02 525.53 167.00 543.83 179.07 557.81 C 216.49 520.67 253.86 483.49 291.26 446.33 C 270.00 427.45 238.27 421.68 211.72 431.87 M 332.61 515.32 C 332.57 536.78 332.69 558.24 332.55 579.70 C 353.94 558.15 375.42 536.67 396.97 515.27 C 375.52 515.37 354.06 515.27 332.61 515.32 M 275.66 585.68 C 291.72 585.40 307.80 585.64 323.87 585.56 C 323.92 566.58 323.81 547.59 323.93 528.60 C 317.46 553.52 299.29 575.35 275.66 585.68 M 159.99 543.92 C 160.00 554.87 159.99 565.81 160.00 576.76 C 164.40 572.47 168.74 568.11 173.08 563.76 C 167.87 557.75 163.49 551.06 159.99 543.92 M 162.99 585.63 C 176.19 585.56 189.40 585.43 202.61 585.69 C 193.77 582.04 185.95 576.29 178.93 569.87 C 173.59 575.09 168.37 580.45 162.99 585.63 Z" />
</g>
</svg>
