<?xml version="1.0" encoding="UTF-8" ?>
<!DOCTYPE svg PUBLIC "-//W3C//DTD SVG 1.1//EN" "http://www.w3.org/Graphics/SVG/1.1/DTD/svg11.dtd">
<svg width="600pt" height="600pt" viewBox="0 0 600 600" version="1.1" xmlns="http://www.w3.org/2000/svg">
<g id="#231f20ff">
<path fill="#231f20" opacity="1.00" d=" M 160.67 104.70 C 202.61 77.99 252.25 63.58 301.98 63.70 C 305.20 63.29 307.65 67.23 305.92 69.95 C 305.01 71.76 302.86 72.17 301.03 72.08 C 274.84 72.18 248.68 76.35 223.73 84.34 C 223.64 187.56 223.70 290.79 223.71 394.02 C 223.59 396.61 224.36 400.10 221.64 401.66 C 219.06 403.37 215.14 401.23 215.34 398.12 C 215.28 360.90 215.32 323.68 215.31 286.46 C 205.02 286.41 194.73 286.44 184.44 286.44 C 184.41 375.63 184.48 464.81 184.41 553.99 C 184.61 555.11 183.90 556.96 185.34 557.51 C 219.73 575.29 258.27 584.93 296.97 585.68 C 346.09 586.68 395.63 573.50 437.25 547.27 C 437.10 461.73 437.22 376.18 437.18 290.63 C 399.81 290.59 362.45 290.68 325.08 290.59 C 322.27 290.78 320.01 287.66 321.03 285.03 C 321.68 282.93 323.96 281.99 326.01 282.19 C 390.03 282.19 454.05 282.17 518.07 282.20 C 520.75 281.84 523.33 284.14 522.98 286.90 C 522.99 372.64 523.04 458.37 522.96 544.11 C 523.16 547.38 518.89 549.54 516.34 547.49 C 514.46 546.30 514.54 543.89 514.54 541.95 C 514.61 485.53 514.49 429.12 514.60 372.70 C 509.65 377.89 504.46 382.85 499.45 387.99 C 503.49 393.44 505.60 400.35 504.72 407.14 C 503.65 417.38 495.87 426.47 485.94 429.16 C 478.05 431.49 469.28 429.62 462.74 424.71 C 456.99 430.44 451.16 436.10 445.56 441.99 C 445.57 477.01 445.58 512.03 445.55 547.06 C 445.52 550.81 442.99 554.16 439.71 555.81 C 402.47 578.41 359.58 591.58 316.07 593.76 C 275.59 595.92 234.62 588.66 197.42 572.54 C 164.22 558.24 134.06 536.99 109.28 510.69 C 73.48 472.85 49.15 424.26 40.66 372.84 C 32.78 325.83 37.74 276.68 55.22 232.31 C 75.64 180.01 113.21 134.66 160.67 104.70 M 116.60 151.64 C 101.86 166.96 89.26 184.24 78.58 202.60 C 111.09 170.17 143.52 137.67 176.01 105.21 C 154.17 117.82 133.98 133.35 116.60 151.64 M 71.08 222.07 C 69.29 223.93 67.17 225.61 66.09 228.02 C 60.16 241.70 55.61 255.95 52.10 270.43 C 93.26 229.08 134.66 187.95 175.80 146.59 C 176.42 136.81 175.87 126.91 176.06 117.09 C 141.07 152.09 106.08 187.09 71.08 222.07 M 50.21 284.22 C 48.99 285.15 48.91 286.72 48.65 288.11 C 47.12 297.87 46.08 307.72 45.69 317.60 C 48.29 315.58 50.55 313.18 52.86 310.85 C 93.91 269.83 134.91 228.75 175.99 187.76 C 176.15 177.96 176.00 168.15 176.07 158.35 C 134.11 200.30 92.15 242.25 50.21 284.22 M 45.55 330.07 C 45.32 339.33 46.08 348.58 47.04 357.78 C 90.18 314.98 133.01 271.86 176.03 228.93 C 176.09 219.16 176.04 209.38 176.06 199.61 C 132.54 243.08 89.09 286.62 45.55 330.07 M 48.43 368.65 C 49.82 376.76 51.46 384.84 53.44 392.84 C 94.24 351.89 135.20 311.08 176.04 270.16 C 176.08 260.39 176.05 250.63 176.06 240.86 C 133.53 283.47 90.80 325.89 48.43 368.65 M 56.08 402.17 C 58.24 409.52 60.83 416.74 63.60 423.89 C 100.13 387.32 136.67 350.77 173.25 314.25 C 174.28 312.99 176.23 312.01 176.05 310.14 C 176.09 300.79 176.04 291.44 176.06 282.09 C 136.09 322.14 95.98 362.05 56.08 402.17 M 445.57 290.63 C 445.54 311.30 445.61 331.97 445.53 352.64 C 466.15 331.89 486.83 311.20 507.59 290.59 C 486.92 290.68 466.24 290.59 445.57 290.63 M 445.57 366.89 C 445.51 387.93 445.66 408.98 445.49 430.03 C 449.28 426.14 453.14 422.32 456.99 418.50 C 454.54 414.39 452.83 409.77 452.76 404.95 C 452.27 394.79 458.41 384.79 467.61 380.52 C 475.69 376.55 485.66 377.40 493.21 382.21 C 498.38 377.14 503.47 371.97 508.61 366.86 C 487.59 366.90 466.58 366.86 445.57 366.89 M 466.47 391.45 C 460.87 396.71 459.65 405.54 463.08 412.33 C 471.13 404.36 479.15 396.37 487.09 388.30 C 480.39 385.01 471.76 386.04 466.47 391.45 M 468.74 418.72 C 472.17 420.74 476.11 422.10 480.15 421.70 C 488.06 421.24 495.10 414.79 496.26 406.95 C 497.12 402.44 495.78 397.86 493.50 393.99 C 485.18 402.16 476.95 410.44 468.74 418.72 Z" />
</g>
</svg>
