<?xml version="1.0" encoding="UTF-8" ?>
<!DOCTYPE svg PUBLIC "-//W3C//DTD SVG 1.1//EN" "http://www.w3.org/Graphics/SVG/1.1/DTD/svg11.dtd">
<svg width="600pt" height="600pt" viewBox="0 0 600 600" version="1.1" xmlns="http://www.w3.org/2000/svg">
<g id="#231f20ff">
<path fill="#231f20" opacity="1.00" d=" M 294.86 63.85 C 296.92 61.93 300.69 62.88 301.55 65.57 C 302.08 68.35 301.74 71.20 301.82 74.01 C 301.82 156.59 301.80 239.17 301.82 321.75 C 313.17 321.77 324.53 321.72 335.87 321.74 C 338.49 321.86 339.62 324.64 339.52 326.92 C 339.55 349.75 339.51 372.59 339.53 395.43 C 344.74 395.50 349.94 395.32 355.15 395.49 C 357.56 395.36 359.60 397.61 359.34 400.00 C 359.58 417.97 359.03 435.96 359.63 453.92 C 359.06 499.25 359.56 544.63 359.34 589.98 C 359.51 592.37 357.35 594.48 354.96 594.28 C 316.96 594.36 278.96 594.29 240.96 594.31 C 238.44 594.67 235.70 592.80 235.91 590.09 C 235.86 526.72 235.84 463.35 235.89 399.99 C 235.61 397.59 237.67 395.37 240.07 395.48 C 245.35 395.33 250.64 395.49 255.93 395.44 C 255.98 372.27 255.88 349.11 255.97 325.94 C 255.84 323.75 257.77 321.70 259.98 321.80 C 271.14 321.64 282.30 321.84 293.46 321.71 C 293.39 238.14 293.48 154.56 293.41 70.99 C 293.58 68.61 292.79 65.62 294.86 63.85 M 264.32 330.12 C 264.30 349.98 264.34 369.83 264.30 389.69 C 284.53 369.80 304.65 349.79 325.05 330.08 C 304.81 330.19 284.56 330.09 264.32 330.12 M 244.25 403.88 C 244.21 411.37 244.34 418.87 244.17 426.36 C 249.36 417.12 257.17 409.51 266.17 404.00 C 258.87 404.00 251.56 403.79 244.25 403.88 M 246.87 440.74 C 242.33 455.31 243.91 471.96 252.08 484.98 C 260.78 499.43 276.63 509.13 293.43 510.46 C 293.45 474.96 293.43 439.46 293.43 403.97 C 272.39 405.50 253.18 420.59 246.87 440.74 M 329.36 404.00 C 338.18 409.40 345.65 416.92 351.01 425.77 C 350.99 418.47 351.01 411.18 351.00 403.88 C 343.78 403.80 336.57 403.99 329.36 404.00 M 244.16 487.94 C 244.37 520.60 244.19 553.27 244.25 585.94 C 260.65 585.93 277.04 585.95 293.44 585.93 C 293.43 563.58 293.45 541.23 293.43 518.88 C 273.25 517.54 253.96 505.70 244.16 487.94 M 301.82 519.08 C 301.81 541.36 301.82 563.65 301.82 585.93 C 318.21 585.94 334.60 585.93 351.00 585.94 C 351.00 553.52 351.00 521.11 351.00 488.69 C 340.78 506.02 321.90 517.72 301.82 519.08 Z" />
</g>
</svg>
