<?xml version="1.0" encoding="UTF-8" ?>
<!DOCTYPE svg PUBLIC "-//W3C//DTD SVG 1.1//EN" "http://www.w3.org/Graphics/SVG/1.1/DTD/svg11.dtd">
<svg width="600pt" height="600pt" viewBox="0 0 600 600" version="1.1" xmlns="http://www.w3.org/2000/svg">
<g id="#231f20ff">
<path fill="#231f20" opacity="1.00" d=" M 89.95 69.91 C 89.51 66.44 94.00 64.59 96.64 66.40 C 177.94 172.07 259.21 277.81 340.50 383.51 C 369.14 420.90 398.06 458.09 426.53 495.61 C 426.88 441.40 426.57 387.18 426.69 332.97 C 426.67 245.99 426.69 159.00 426.69 72.02 C 426.01 68.65 429.67 65.50 432.82 67.23 C 435.42 68.44 435.14 71.63 435.15 74.02 C 435.07 143.67 435.18 213.33 435.10 282.98 C 435.23 284.94 434.64 287.25 436.11 288.86 C 454.63 313.03 473.31 337.07 491.73 361.32 C 491.62 264.54 491.73 167.75 491.68 70.97 C 491.60 69.34 491.95 67.49 493.45 66.56 C 495.69 64.84 499.44 66.22 499.90 69.03 C 500.24 72.02 500.02 75.02 500.06 78.01 C 500.06 249.36 500.06 420.71 500.07 592.05 C 500.93 596.06 495.03 598.71 492.68 595.32 C 366.11 430.54 239.38 265.87 112.74 101.14 C 107.93 94.80 102.95 88.58 98.26 82.15 C 98.37 100.76 98.30 119.37 98.30 137.97 C 98.43 140.76 97.61 144.02 99.78 146.24 C 135.64 192.72 171.25 239.40 207.22 285.79 C 233.56 322.39 260.06 358.92 286.41 395.53 C 288.56 397.82 287.20 402.04 284.05 402.47 C 281.95 402.98 280.24 401.47 279.17 399.87 C 256.11 367.91 233.03 335.95 209.94 304.01 C 209.90 335.00 209.81 365.99 209.80 396.98 C 209.07 418.62 209.60 440.30 209.44 461.95 C 209.37 505.64 209.57 549.33 209.34 593.01 C 209.09 598.34 200.28 597.32 201.09 592.08 C 201.02 530.31 201.09 468.53 201.05 406.76 C 166.81 406.74 132.57 406.76 98.33 406.75 C 98.27 468.50 98.36 530.26 98.29 592.01 C 98.60 594.48 96.47 596.87 93.94 596.66 C 91.58 596.64 89.71 594.39 89.96 592.09 C 89.87 418.03 89.92 243.97 89.95 69.91 M 98.26 157.94 C 98.38 201.00 98.28 244.06 98.31 287.11 C 131.38 287.14 164.44 287.10 197.51 287.13 C 164.44 244.06 131.22 201.10 98.26 157.94 M 98.53 295.51 C 98.50 327.68 98.58 359.85 98.49 392.02 C 130.64 359.80 162.82 327.61 195.05 295.46 C 162.88 295.56 130.70 295.47 98.53 295.51 M 435.11 301.32 C 435.23 315.23 434.95 329.16 435.24 343.07 C 440.22 350.51 446.13 357.34 451.45 364.55 C 464.86 382.07 478.43 399.47 491.74 417.07 C 491.53 403.15 491.90 389.21 491.56 375.30 C 486.67 367.74 480.63 360.92 475.30 353.64 C 461.91 336.19 448.45 318.80 435.11 301.32 M 435.11 357.06 C 435.24 370.99 434.93 384.94 435.25 398.86 C 440.74 406.87 447.06 414.33 452.86 422.12 C 465.86 438.83 478.46 455.85 491.75 472.33 C 491.61 459.21 491.71 446.09 491.71 432.98 C 492.01 430.10 489.58 428.15 488.10 426.01 C 470.42 403.03 452.72 380.08 435.11 357.06 M 435.11 412.80 C 435.14 426.78 435.11 440.76 435.13 454.74 C 437.66 458.14 440.26 461.48 442.85 464.84 C 451.10 459.44 461.42 457.45 471.08 459.52 C 458.99 444.03 447.06 428.40 435.11 412.80 M 448.00 471.53 C 459.40 486.37 470.79 501.21 482.22 516.02 C 491.05 507.97 493.92 494.16 488.65 483.38 C 485.52 477.74 481.15 472.44 475.12 469.79 C 466.54 465.63 456.03 466.52 448.00 471.53 M 435.21 469.30 C 434.35 470.52 434.60 471.24 435.95 471.46 C 436.80 470.22 436.55 469.51 435.21 469.30 M 438.47 508.53 C 442.88 516.81 451.64 522.59 461.02 523.25 C 465.88 523.73 470.70 522.57 475.20 520.78 C 464.08 506.19 452.83 491.70 441.69 477.13 C 434.43 485.70 433.12 498.68 438.47 508.53 M 487.38 522.74 C 488.85 524.66 490.32 526.59 491.73 528.56 C 491.66 525.04 491.65 521.52 491.76 518.01 C 490.36 519.64 488.89 521.21 487.38 522.74 M 453.25 530.37 C 466.27 546.87 478.99 563.60 491.73 580.31 C 491.52 567.69 491.92 555.04 491.55 542.43 C 488.28 537.18 484.09 532.54 480.41 527.56 C 472.09 531.77 462.25 533.01 453.25 530.37 Z" />
</g>
</svg>
