<?xml version="1.0" encoding="UTF-8" ?>
<!DOCTYPE svg PUBLIC "-//W3C//DTD SVG 1.1//EN" "http://www.w3.org/Graphics/SVG/1.1/DTD/svg11.dtd">
<svg width="600pt" height="600pt" viewBox="0 0 600 600" version="1.1" xmlns="http://www.w3.org/2000/svg">
<g id="#231f20ff">
<path fill="#231f20" opacity="1.00" d=" M 277.45 68.75 C 317.37 65.34 358.08 71.01 395.44 85.53 C 437.80 101.89 475.78 129.38 504.59 164.46 C 526.01 190.41 542.44 220.46 552.63 252.53 C 566.64 296.45 568.78 344.04 558.99 389.07 C 546.16 448.92 511.54 503.64 463.32 541.27 C 437.10 561.86 406.97 577.46 374.98 586.87 C 330.57 600.01 282.69 601.13 237.69 590.23 C 175.66 575.40 119.78 537.02 83.25 484.80 C 63.81 457.19 49.70 425.83 42.06 392.94 C 31.21 346.49 33.16 297.10 47.82 251.70 C 64.11 200.80 96.36 155.24 138.74 122.71 C 178.54 91.94 227.29 72.90 277.45 68.75 M 223.72 87.81 C 172.84 103.60 127.34 135.86 95.31 178.39 C 67.01 215.71 49.25 260.93 44.78 307.57 C 40.47 351.26 47.51 396.06 65.37 436.18 C 57.93 408.48 56.80 379.10 62.22 350.92 C 67.89 321.09 80.94 292.69 99.94 269.00 C 120.73 242.98 148.45 222.47 179.59 210.57 C 216.64 196.29 258.22 194.26 296.54 204.55 C 326.26 212.46 353.82 228.01 376.25 249.01 C 410.04 215.25 443.82 181.47 477.59 147.68 C 446.87 118.19 408.77 96.41 367.66 85.23 C 320.74 72.37 270.14 73.25 223.72 87.81 M 382.26 254.92 C 397.19 270.26 409.57 288.12 418.51 307.58 C 433.47 339.96 438.88 376.62 434.10 411.95 C 430.07 442.33 418.48 471.69 400.57 496.57 C 379.22 526.33 349.10 549.78 314.85 562.83 C 279.27 576.57 239.60 578.71 202.54 570.04 C 257.30 592.62 319.92 595.44 376.44 577.64 C 434.50 559.66 485.45 520.13 517.59 468.58 C 538.86 434.76 552.00 395.88 555.56 356.09 C 559.14 317.03 553.68 277.16 539.50 240.57 C 527.01 208.19 507.81 178.43 483.56 153.61 C 449.78 187.37 416.01 221.13 382.26 254.92 M 201.12 212.45 C 170.83 220.37 142.80 236.54 120.61 258.60 C 100.23 278.70 84.76 303.74 75.99 331.00 C 65.03 364.75 64.35 401.74 74.03 435.87 C 81.73 463.32 96.16 488.83 115.64 509.64 C 130.84 494.43 146.06 479.23 161.25 464.01 C 161.39 393.99 161.26 323.97 161.32 253.95 C 160.97 251.31 163.10 248.60 165.90 248.96 C 231.76 248.90 297.63 248.97 363.49 248.93 C 348.47 236.30 331.46 226.02 313.17 218.88 C 277.76 204.93 237.90 202.75 201.12 212.45 M 169.75 257.33 C 169.72 323.43 169.82 389.53 169.70 455.64 C 235.78 389.47 301.89 323.34 368.07 257.28 C 301.97 257.37 235.86 257.27 169.75 257.33 M 380.50 265.23 C 380.64 331.15 380.53 397.08 380.56 463.00 C 380.89 465.60 378.92 468.35 376.12 468.09 C 307.12 468.17 238.12 468.11 169.11 468.12 C 153.18 483.90 137.37 499.80 121.53 515.66 C 135.28 529.04 151.12 540.30 168.38 548.71 C 201.49 564.96 239.66 570.40 276.04 564.56 C 307.42 559.62 337.36 546.05 361.81 525.78 C 387.71 504.45 407.56 475.81 418.10 443.93 C 430.97 405.65 430.43 363.05 416.61 325.10 C 408.69 303.00 396.17 282.67 380.50 265.23 Z" />
</g>
</svg>
