<?xml version="1.0" encoding="UTF-8" ?>
<!DOCTYPE svg PUBLIC "-//W3C//DTD SVG 1.1//EN" "http://www.w3.org/Graphics/SVG/1.1/DTD/svg11.dtd">
<svg width="600pt" height="600pt" viewBox="0 0 600 600" version="1.1" xmlns="http://www.w3.org/2000/svg">
<g id="#231f20ff">
<path fill="#231f20" opacity="1.00" d=" M 71.08 69.94 C 72.63 66.34 76.98 67.48 80.03 67.49 C 196.04 67.52 312.05 67.47 428.06 67.51 C 459.60 67.45 490.90 79.60 514.26 100.76 C 541.30 124.88 557.38 160.73 557.18 196.98 C 557.93 230.39 545.08 263.80 522.12 288.08 C 497.44 314.68 461.21 329.91 424.94 329.06 C 361.71 329.06 298.49 329.07 235.26 329.06 C 322.56 416.33 409.85 503.62 497.12 590.91 C 499.55 592.81 498.86 597.07 495.93 598.06 C 493.98 598.90 491.96 597.81 490.68 596.36 C 403.20 508.81 315.63 421.35 228.17 333.79 C 228.21 355.53 228.18 377.27 228.19 399.01 C 228.56 401.46 226.67 404.04 224.09 403.94 C 200.48 404.09 176.86 403.95 153.25 404.01 C 153.11 412.31 153.53 420.64 153.05 428.92 C 151.84 432.91 145.26 432.30 144.98 428.11 C 144.67 395.11 144.78 362.08 144.77 329.07 C 122.95 329.06 101.13 329.05 79.31 329.07 C 79.30 417.37 79.35 505.67 79.29 593.97 C 79.62 597.11 75.81 599.43 73.13 597.84 C 71.31 596.98 70.80 594.85 70.93 593.01 C 70.99 422.00 70.83 250.98 70.88 79.96 C 70.93 76.62 70.68 73.26 71.08 69.94 M 79.48 76.00 C 79.55 96.61 79.58 117.21 79.46 137.81 C 99.95 117.05 120.70 96.53 141.29 75.87 C 120.69 75.98 100.08 75.70 79.48 76.00 M 153.25 75.88 C 153.26 157.39 153.23 238.89 153.27 320.39 C 188.10 320.31 222.92 320.43 257.74 320.71 C 241.25 310.47 234.78 287.53 242.87 269.98 C 248.63 256.62 261.89 247.01 276.36 245.54 C 276.39 188.99 276.37 132.44 276.37 75.88 C 235.33 75.87 194.29 75.87 153.25 75.88 M 284.76 75.89 C 284.74 132.43 284.76 188.97 284.75 245.52 C 296.42 246.87 307.66 253.11 314.27 262.92 C 320.39 271.50 322.91 282.52 321.25 292.92 C 319.54 304.12 312.97 314.59 303.40 320.72 C 345.96 320.46 388.53 320.76 431.09 320.57 C 469.35 319.82 506.39 299.35 527.73 267.65 C 548.41 237.86 553.91 198.76 544.19 164.04 C 539.26 146.58 530.30 130.30 518.26 116.74 C 499.28 95.22 472.44 80.77 443.98 77.01 C 434.03 75.57 423.96 75.92 413.95 75.88 C 370.89 75.88 327.82 75.87 284.76 75.89 M 81.54 147.47 C 80.65 148.46 79.32 149.45 79.54 150.97 C 79.47 160.96 79.61 170.94 79.48 180.93 C 97.82 162.44 116.30 144.08 134.70 125.64 C 138.08 122.34 141.27 118.83 144.87 115.76 C 144.89 105.21 144.85 94.65 144.89 84.10 C 123.81 105.26 102.68 126.37 81.54 147.47 M 81.66 190.59 C 80.84 191.62 79.36 192.51 79.55 194.01 C 79.46 204.03 79.60 214.06 79.49 224.08 C 99.36 204.10 119.34 184.23 139.24 164.27 C 141.03 162.43 142.88 160.65 144.85 159.01 C 144.91 148.46 144.85 137.91 144.89 127.35 C 123.85 148.47 102.76 169.54 81.66 190.59 M 79.55 236.02 C 79.47 246.45 79.59 256.89 79.49 267.32 C 99.67 246.90 120.10 226.71 140.34 206.35 C 141.75 204.90 143.26 203.55 144.82 202.27 C 144.95 191.70 144.83 181.12 144.89 170.54 C 123.17 192.43 101.22 214.09 79.55 236.02 M 83.81 274.84 C 82.41 276.35 80.64 277.61 79.65 279.44 C 79.32 289.82 79.69 300.23 79.47 310.63 C 99.67 290.10 120.20 269.89 140.49 249.45 C 141.86 248.04 143.32 246.71 144.84 245.45 C 144.93 234.88 144.84 224.31 144.89 213.74 C 124.55 234.14 104.17 254.48 83.81 274.84 M 249.68 275.69 C 245.91 285.97 248.03 297.85 254.53 306.58 C 269.92 291.26 285.28 275.91 300.60 260.51 C 294.64 256.27 287.43 253.55 280.04 253.89 C 266.65 253.76 253.97 263.06 249.68 275.69 M 81.07 320.67 C 102.33 320.56 123.60 320.65 144.86 320.63 C 144.90 299.39 144.85 278.16 144.89 256.93 C 123.63 278.19 102.44 299.52 81.07 320.67 M 153.44 329.13 C 153.43 351.21 153.46 373.30 153.42 395.38 C 175.47 373.27 197.59 351.22 219.64 329.12 C 197.57 329.13 175.50 329.11 153.44 329.13 Z" />
</g>
</svg>
