<?xml version="1.0" encoding="UTF-8" ?>
<!DOCTYPE svg PUBLIC "-//W3C//DTD SVG 1.1//EN" "http://www.w3.org/Graphics/SVG/1.1/DTD/svg11.dtd">
<svg width="600pt" height="600pt" viewBox="0 0 600 600" version="1.1" xmlns="http://www.w3.org/2000/svg">
<g id="#231f20ff">
<path fill="#231f20" opacity="1.00" d=" M 284.18 45.20 C 294.55 38.37 308.77 38.13 319.35 44.63 C 328.82 50.13 334.88 60.58 335.57 71.44 C 391.72 71.43 447.87 71.44 504.02 71.43 C 506.61 71.08 509.24 73.15 508.97 75.88 C 509.03 99.27 508.99 122.66 508.99 146.05 C 509.42 148.88 506.90 151.41 504.07 150.99 C 459.44 151.02 414.81 150.98 370.18 151.01 C 370.18 186.68 370.21 222.36 370.17 258.04 C 370.47 260.43 368.47 262.74 366.03 262.64 C 359.44 262.80 352.84 262.62 346.25 262.70 C 346.23 287.47 346.29 312.24 346.22 337.01 C 346.49 339.39 344.46 341.70 342.03 341.54 C 330.17 341.61 318.31 341.54 306.45 341.56 C 306.41 424.72 306.48 507.88 306.42 591.03 C 306.73 593.54 304.52 595.97 301.96 595.71 C 299.63 595.65 297.79 593.38 298.07 591.10 C 298.04 507.92 298.08 424.74 298.05 341.57 C 286.07 341.51 274.08 341.65 262.10 341.51 C 259.80 341.54 258.03 339.28 258.26 337.07 C 258.22 312.28 258.27 287.49 258.24 262.70 C 251.54 262.61 244.83 262.83 238.13 262.61 C 235.78 262.59 234.04 260.28 234.27 258.03 C 234.22 222.36 234.26 186.68 234.25 151.01 C 201.80 150.99 169.35 151.00 136.90 151.01 C 134.78 151.22 132.34 150.24 131.80 147.98 C 130.89 145.38 133.18 142.39 135.94 142.65 C 168.70 142.58 201.46 142.65 234.22 142.61 C 234.10 121.69 234.36 100.75 234.24 79.82 C 189.46 79.79 144.69 79.85 99.91 79.79 C 96.94 80.13 94.55 76.79 95.75 74.07 C 96.49 71.92 98.87 71.25 100.92 71.42 C 156.91 71.46 212.89 71.42 268.88 71.44 C 269.58 60.95 275.22 50.82 284.18 45.20 M 286.75 53.71 C 281.27 57.97 277.99 64.58 277.29 71.42 C 293.91 71.41 310.54 71.41 327.16 71.42 C 326.40 62.99 321.38 55.03 313.80 51.15 C 305.32 46.55 294.21 47.60 286.75 53.71 M 242.63 79.82 C 242.76 98.21 242.32 116.61 242.90 135.00 C 259.35 118.75 275.86 102.57 292.33 86.34 C 294.40 84.25 296.73 82.37 298.36 79.88 C 279.79 79.73 261.21 79.85 242.63 79.82 M 306.69 79.82 C 306.51 100.75 307.03 121.69 306.42 142.60 C 324.88 142.66 343.34 142.61 361.81 142.63 C 361.82 121.69 361.81 100.76 361.81 79.82 C 343.44 79.81 325.06 79.81 306.69 79.82 M 370.19 79.82 C 370.19 100.75 370.18 121.69 370.19 142.62 C 413.67 142.62 457.14 142.63 500.62 142.62 C 500.63 121.69 500.62 100.76 500.62 79.83 C 457.15 79.80 413.67 79.82 370.19 79.82 M 242.63 151.00 C 242.63 185.42 242.62 219.83 242.63 254.24 C 261.11 254.18 279.58 254.27 298.05 254.24 C 298.06 219.83 298.06 185.42 298.06 151.00 C 279.58 151.00 261.10 151.00 242.63 151.00 M 306.43 151.01 C 306.45 185.42 306.42 219.84 306.45 254.25 C 324.90 254.24 343.36 254.25 361.81 254.24 C 361.82 219.83 361.81 185.42 361.81 151.01 C 343.35 151.00 324.89 150.99 306.43 151.01 M 266.63 262.70 C 266.57 268.22 266.76 273.75 266.50 279.27 C 270.07 272.15 276.03 266.34 283.01 262.58 C 277.56 262.80 272.09 262.64 266.63 262.70 M 321.30 262.57 C 323.76 263.82 326.07 265.36 328.22 267.11 C 329.77 265.64 331.28 264.13 332.82 262.64 C 328.98 262.70 325.13 262.75 321.30 262.57 M 288.97 269.01 C 278.43 273.68 270.91 284.40 270.17 295.91 C 269.51 303.91 272.14 312.01 277.07 318.31 C 292.16 303.26 307.22 288.19 322.27 273.11 C 313.04 265.73 299.70 263.96 288.97 269.01 M 334.17 273.20 C 335.51 275.08 336.77 277.01 337.94 279.00 C 337.86 275.80 337.86 272.61 337.88 269.42 C 336.64 270.67 335.41 271.94 334.17 273.20 M 266.44 317.02 C 266.75 320.96 266.64 324.93 266.56 328.89 C 268.02 327.37 269.51 325.89 271.06 324.47 C 269.39 322.07 267.61 319.71 266.44 317.02 M 337.93 317.59 C 334.42 324.01 329.17 329.38 322.95 333.22 C 327.92 333.15 332.89 333.20 337.87 333.18 C 337.90 327.98 337.82 322.79 337.93 317.59 M 277.14 330.22 C 276.14 331.21 275.14 332.19 274.14 333.19 C 276.63 333.18 279.12 333.19 281.62 333.24 C 280.12 332.23 278.63 331.23 277.14 330.22 Z" />
</g>
</svg>
