<?xml version="1.0" encoding="UTF-8" ?>
<!DOCTYPE svg PUBLIC "-//W3C//DTD SVG 1.1//EN" "http://www.w3.org/Graphics/SVG/1.1/DTD/svg11.dtd">
<svg width="600pt" height="600pt" viewBox="0 0 600 600" version="1.1" xmlns="http://www.w3.org/2000/svg">
<g id="#231f20ff">
<path fill="#231f20" opacity="1.00" d=" M 80.96 74.91 C 81.03 71.92 84.80 70.01 87.27 71.69 C 121.13 90.82 154.97 109.99 188.78 129.22 C 182.05 112.13 175.27 95.06 168.67 77.93 C 167.37 74.85 170.87 71.41 173.95 72.63 C 176.44 73.38 176.88 76.23 177.81 78.29 C 229.82 210.86 281.91 343.39 333.93 475.94 C 391.06 345.03 448.11 214.10 505.24 83.19 C 506.18 79.88 511.15 79.26 512.83 82.28 C 514.48 84.97 512.22 87.76 511.32 90.29 C 453.65 222.53 395.94 354.75 338.33 487.01 C 351.72 521.43 365.32 555.77 378.78 590.17 C 379.58 591.80 379.67 593.96 378.31 595.35 C 376.68 597.24 373.32 597.14 371.87 595.10 C 371.21 594.02 370.78 592.83 370.32 591.68 C 358.12 560.36 345.67 529.13 333.54 497.78 C 319.72 529.81 305.66 561.75 291.74 593.75 C 290.65 597.79 284.31 597.53 283.52 593.41 C 216.69 423.25 149.90 253.07 83.07 82.90 C 82.14 80.32 80.56 77.77 80.96 74.91 M 92.56 84.29 C 101.87 107.47 110.86 130.77 120.01 154.01 C 120.82 155.72 121.07 158.04 122.97 158.94 C 156.20 177.85 189.56 196.53 222.71 215.57 C 213.09 191.40 203.69 167.13 194.12 142.94 C 193.78 141.97 193.14 141.27 192.22 140.82 C 159.02 121.95 125.75 103.19 92.56 84.29 M 126.43 170.47 C 136.06 194.63 145.45 218.88 155.00 243.06 C 155.32 244.00 155.93 244.71 156.82 245.17 C 190.06 264.08 223.39 282.82 256.60 301.79 C 246.88 277.58 237.51 253.23 227.91 228.97 C 227.55 228.11 226.94 227.47 226.08 227.06 C 192.89 208.16 159.55 189.50 126.43 170.47 M 160.39 256.86 C 170.16 281.37 179.55 306.06 189.45 330.51 C 198.13 335.97 207.29 340.69 216.15 345.87 C 240.89 359.89 265.64 373.91 290.38 387.94 C 280.88 363.97 271.51 339.95 262.08 315.96 C 261.69 314.78 260.99 313.71 259.81 313.22 C 226.66 294.45 193.51 275.68 160.39 256.86 M 194.20 343.05 C 204.87 369.84 215.26 396.74 225.89 423.54 C 247.28 414.86 268.61 406.04 290.02 397.41 C 258.09 379.28 226.09 361.25 194.20 343.05 M 284.88 408.39 C 290.74 409.47 296.26 411.96 301.18 415.28 C 299.50 411.51 298.10 407.62 296.56 403.79 C 292.67 405.31 288.86 407.08 284.88 408.39 M 243.71 437.22 C 265.37 446.59 287.05 455.90 308.73 465.24 C 310.64 460.40 311.76 455.22 311.52 450.01 C 311.22 434.44 299.39 420.09 284.16 416.82 C 268.04 412.73 250.07 421.90 243.71 437.22 M 228.96 431.38 C 230.36 435.19 232.04 438.90 233.26 442.77 C 234.29 437.10 236.61 431.72 239.78 426.93 C 236.19 428.46 232.57 429.91 228.96 431.38 M 312.30 475.98 C 315.89 474.42 319.52 472.99 323.14 471.50 C 321.77 467.93 320.35 464.39 318.97 460.83 C 317.65 466.22 315.51 471.43 312.30 475.98 M 258.63 506.96 C 268.36 531.81 278.11 556.64 287.89 581.47 C 301.69 549.97 315.40 518.43 329.15 486.91 C 328.22 484.37 327.23 481.85 326.22 479.34 C 303.69 488.55 281.14 497.71 258.63 506.96 M 250.69 486.87 C 252.35 490.92 253.91 495.02 255.52 499.10 C 259.59 497.50 263.59 495.72 267.70 494.23 C 261.58 493.04 255.75 490.50 250.69 486.87 Z" />
</g>
</svg>
